<?xml version="1.0" standalone="no"?>
<!DOCTYPE svg PUBLIC "-//W3C//DTD SVG 20010904//EN"
 "http://www.w3.org/TR/2001/REC-SVG-20010904/DTD/svg10.dtd">
<svg version="1.0" xmlns="http://www.w3.org/2000/svg"
 width="428.000000pt" height="1154.000000pt" viewBox="0 0 428.000000 1154.000000"
 preserveAspectRatio="xMidYMid meet">

<g transform="translate(0.000000,1154.000000) scale(0.100000,-0.100000)"
fill="#000000" stroke="none">
<path d="M110 5720 l0 -5670 2030 0 2030 0 0 5580 0 5580 -1210 0 -1210 0 0
90 0 90 -820 0 -820 0 0 -5670z m1620 5570 l0 -80 -800 0 -800 0 0 80 0 80
800 0 800 0 0 -80z m2420 -5660 l0 -5560 -2010 0 -2010 0 0 5560 0 5560 2010
0 2010 0 0 -5560z"/>
<path d="M2260 11070 c0 -17 -3 -19 -19 -8 -15 9 -23 9 -35 -1 -35 -29 -3 -87
35 -63 11 7 19 8 19 2 0 -5 5 -10 10 -10 6 0 10 23 10 50 0 28 -4 50 -10 50
-5 0 -10 -9 -10 -20z m-20 -40 c0 -11 -7 -20 -15 -20 -8 0 -15 9 -15 20 0 11
7 20 15 20 8 0 15 -9 15 -20z"/>
<path d="M2290 11040 c0 -27 5 -50 10 -50 6 0 10 23 10 50 0 28 -4 50 -10 50
-5 0 -10 -22 -10 -50z"/>
<path d="M2076 11072 c-3 -5 -21 -7 -40 -6 -36 3 -36 3 -36 -36 0 -22 5 -40
10 -40 6 0 10 14 10 30 0 20 5 30 15 30 10 0 15 -10 15 -30 0 -41 20 -38 21 3
l1 32 7 -29 c3 -16 12 -31 19 -34 9 -3 11 3 6 23 -4 18 -2 30 7 36 12 8 12 11
-1 19 -18 12 -27 12 -34 2z"/>
<path d="M1842 11058 c-17 -17 -15 -43 4 -58 12 -11 18 -10 32 4 16 17 16 18
-5 11 -19 -5 -23 -2 -23 15 0 18 4 20 22 14 20 -6 21 -5 9 10 -16 19 -23 20
-39 4z"/>
<path d="M1920 11055 c-26 -31 13 -82 44 -56 19 16 21 42 4 59 -16 16 -33 15
-48 -3z m40 -25 c0 -11 -7 -20 -15 -20 -8 0 -15 9 -15 20 0 11 7 20 15 20 8 0
15 -9 15 -20z"/>
<path d="M2130 11029 c0 -22 5 -39 10 -39 6 0 10 12 10 26 0 15 8 32 17 39 15
11 14 13 -10 13 -25 0 -27 -4 -27 -39z"/>
<path d="M2342 11058 c-28 -28 0 -78 35 -63 16 7 15 9 -7 15 l-25 8 28 1 c30
1 32 4 17 32 -12 22 -30 25 -48 7z m35 -14 c-3 -3 -12 -4 -19 -1 -8 3 -5 6 6
6 11 1 17 -2 13 -5z"/>
<path d="M2410 11029 c0 -22 5 -39 10 -39 6 0 10 12 10 26 0 15 8 32 17 39 15
11 14 13 -10 13 -25 0 -27 -4 -27 -39z"/>
<path d="M430 10125 l0 -695 858 -2 857 -3 32 -60 c18 -33 33 -63 33 -67 0 -5
-29 -8 -65 -8 l-65 0 30 60 c16 33 30 63 30 67 -1 9 -69 -118 -70 -129 0 -5
15 -8 34 -8 19 0 37 -6 39 -12 4 -10 6 -10 6 0 1 7 16 12 41 12 l40 0 -35 70
c-19 38 -35 72 -35 75 0 3 378 5 840 5 l840 0 0 695 0 695 -1705 0 -1705 0 0
-695z m3390 460 l0 -215 -1685 0 -1685 0 0 215 0 215 1685 0 1685 0 0 -215z
m0 -270 l0 -45 -1685 0 -1685 0 0 45 0 45 1685 0 1685 0 0 -45z m0 -460 l0
-405 -1685 0 -1685 0 0 405 0 405 1685 0 1685 0 0 -405z"/>
<path d="M1999 10701 c-3 -7 -3 -29 -1 -50 4 -37 5 -39 43 -39 21 0 41 3 43 7
3 5 -6 6 -19 3 -18 -3 -25 0 -25 12 0 11 9 16 26 16 19 0 25 4 22 18 -2 12
-13 17 -37 18 -18 1 -36 7 -41 14 -6 9 -9 9 -11 1z m31 -51 c0 -16 -4 -30 -10
-30 -5 0 -10 14 -10 30 0 17 5 30 10 30 6 0 10 -13 10 -30z m50 20 c0 -5 -9
-10 -20 -10 -11 0 -20 5 -20 10 0 6 9 10 20 10 11 0 20 -4 20 -10z"/>
<path d="M2163 10699 c-5 -5 -20 -11 -32 -12 -18 -1 -21 -7 -20 -42 l2 -40 6
35 c4 22 12 36 24 38 13 3 17 -4 19 -35 l1 -38 4 35 c3 19 10 38 16 42 8 5 7
8 -3 8 -13 0 -13 1 0 10 8 5 10 10 5 10 -6 0 -16 -5 -22 -11z"/>
<path d="M1738 10674 c-16 -8 -28 -17 -28 -19 0 -2 15 -12 33 -20 28 -14 30
-14 13 0 -11 8 -25 15 -30 15 -6 1 1 8 17 16 15 8 27 17 27 19 0 7 -1 6 -32
-11z"/>
<path d="M1828 10674 c-16 -8 -28 -17 -28 -19 0 -2 15 -12 33 -20 28 -14 30
-14 13 0 -11 8 -25 15 -30 15 -6 1 1 8 17 16 15 8 27 17 27 19 0 7 -1 6 -32
-11z"/>
<path d="M1883 10650 c0 -25 2 -35 4 -22 2 12 2 32 0 45 -2 12 -4 2 -4 -23z"/>
<path d="M1911 10646 l2 -41 6 35 c8 48 38 54 44 8 l4 -33 -1 35 c-1 31 -4 35
-28 36 -26 1 -28 -1 -27 -40z"/>
<path d="M2206 10682 c-3 -5 6 -7 19 -4 31 6 33 -10 3 -23 -33 -14 -29 -40 5
-41 26 -1 28 1 25 35 -2 28 -8 37 -25 39 -11 2 -24 -1 -27 -6z m44 -42 c0 -12
-28 -25 -36 -17 -9 9 6 27 22 27 8 0 14 -5 14 -10z"/>
<path d="M2287 10683 c-4 -3 -7 -19 -7 -35 0 -31 24 -48 42 -30 8 8 5 9 -11 5
-18 -5 -21 -1 -21 27 0 27 3 32 20 27 11 -3 18 -1 14 4 -6 11 -28 12 -37 2z"/>
<path d="M2354 10676 c-16 -41 20 -86 48 -58 6 6 0 8 -16 5 -19 -4 -26 -1 -26
11 0 11 9 16 26 16 19 0 25 5 22 18 -4 22 -46 29 -54 8z m46 -6 c0 -5 -9 -10
-20 -10 -11 0 -20 5 -20 10 0 6 9 10 20 10 11 0 20 -4 20 -10z"/>
<path d="M2420 10686 c0 -3 12 -12 28 -20 15 -8 22 -15 16 -16 -5 0 -19 -7
-30 -15 -17 -14 -15 -14 14 0 17 8 32 18 32 20 0 2 -13 11 -30 20 -16 9 -30
13 -30 11z"/>
<path d="M2510 10686 c0 -3 12 -12 28 -20 15 -8 22 -15 16 -16 -5 0 -19 -7
-30 -15 -17 -14 -15 -14 14 0 17 8 32 18 32 20 0 2 -13 11 -30 20 -16 9 -30
13 -30 11z"/>
<path d="M1673 10490 c-6 -27 -7 -50 -3 -50 4 0 12 23 17 50 6 28 7 50 3 50
-4 0 -12 -22 -17 -50z"/>
<path d="M2020 10520 c-24 -24 -25 -43 -4 -64 21 -21 40 -20 64 4 24 24 25 43
4 64 -21 21 -40 20 -64 -4z m55 -10 c11 -18 -6 -50 -25 -50 -24 0 -33 15 -25
40 7 21 39 27 50 10z"/>
<path d="M2113 10491 l-10 -50 26 4 c14 1 29 3 33 4 4 0 10 10 13 21 8 26 -11
51 -32 43 -12 -5 -15 -2 -10 10 3 9 3 17 -2 17 -5 0 -13 -22 -18 -49z m47 -11
c0 -11 -7 -20 -15 -20 -8 0 -15 9 -15 20 0 11 7 20 15 20 8 0 15 -9 15 -20z"/>
<path d="M1955 10520 c-11 -4 -22 -18 -25 -31 -3 -13 -14 -25 -24 -27 -16 -3
-17 1 -11 30 5 22 4 30 -3 23 -6 -5 -12 -23 -14 -40 -3 -27 0 -30 27 -30 22 1
31 6 33 20 7 35 24 43 20 10 -2 -22 2 -31 15 -33 9 -2 17 1 17 7 0 6 -4 11
-10 11 -16 0 -12 30 5 36 34 13 5 37 -30 24z"/>
<path d="M1715 10505 c-9 -30 -11 -65 -4 -65 5 0 9 8 9 18 0 19 18 42 33 42 5
0 7 -13 5 -30 -3 -16 -1 -30 4 -30 7 0 10 12 12 58 1 12 -7 17 -28 17 -15 1
-30 -4 -31 -10z"/>
<path d="M1790 10506 c-1 -6 -5 -30 -9 -53 -5 -24 -4 -43 0 -43 5 0 9 9 9 21
0 16 4 19 19 14 23 -7 45 26 36 54 -6 20 -55 26 -55 7z m40 -26 c0 -11 -7 -20
-15 -20 -15 0 -21 21 -8 33 12 13 23 7 23 -13z"/>
<path d="M2202 10508 c-10 -10 -8 -16 10 -30 l23 -18 -28 0 c-16 0 -26 -4 -22
-10 9 -15 41 -12 54 4 10 11 7 17 -11 30 l-22 16 22 0 c13 0 20 4 17 10 -8 14
-28 13 -43 -2z"/>
<path d="M2286 10504 c-9 -8 -16 -21 -16 -28 0 -20 27 -39 45 -32 22 8 18 25
-5 19 -11 -3 -20 0 -20 6 0 6 11 11 25 11 27 0 32 9 13 28 -16 16 -23 15 -42
-4z m31 -10 c-3 -3 -12 -4 -19 -1 -8 3 -5 6 6 6 11 1 17 -2 13 -5z"/>
<path d="M2355 10505 c-9 -30 -11 -65 -4 -65 5 0 9 9 9 19 0 20 25 51 41 51 5
0 9 -16 9 -35 0 -44 9 -44 38 0 29 46 28 58 -3 20 l-24 -30 -1 28 c0 24 -3 27
-31 25 -17 -1 -33 -7 -34 -13z"/>
<path d="M2496 10504 c-9 -8 -16 -21 -16 -28 0 -20 27 -39 45 -32 22 8 18 25
-5 19 -11 -3 -20 0 -20 6 0 6 11 11 25 11 27 0 32 9 13 28 -16 16 -23 15 -42
-4z m31 -10 c-3 -3 -12 -4 -19 -1 -8 3 -5 6 6 6 11 1 17 -2 13 -5z"/>
<path d="M2585 10505 c-9 -30 -11 -65 -4 -65 5 0 9 9 9 20 0 10 10 28 21 39
l22 20 -23 -2 c-12 -1 -24 -6 -25 -12z"/>
<path d="M867 10152 c-34 -37 -12 -87 34 -80 12 2 26 13 30 26 7 19 5 22 -19
21 -17 -1 -20 -3 -9 -6 29 -8 21 -35 -10 -31 -51 6 -39 78 12 78 13 0 26 -5
28 -10 3 -6 4 -5 3 2 -4 21 -50 21 -69 0z"/>
<path d="M1107 10156 c-4 -9 -14 -12 -26 -9 -15 4 -24 -2 -32 -20 -16 -35 -5
-57 25 -55 21 2 27 9 35 48 10 45 8 64 -2 36z m-12 -40 c0 -20 -30 -45 -41
-34 -3 4 -3 19 0 33 8 31 41 31 41 1z"/>
<path d="M1137 10152 c-35 -38 -10 -90 37 -78 13 3 27 13 30 23 6 15 5 15 -13
-1 -29 -26 -56 -17 -56 18 0 39 27 56 57 37 21 -13 22 -13 9 2 -18 22 -44 21
-64 -1z"/>
<path d="M1325 10145 c-14 -68 -15 -80 -6 -65 9 16 22 90 16 90 -3 0 -7 -11
-10 -25z"/>
<path d="M1365 10145 c-14 -68 -15 -80 -6 -65 9 16 22 90 16 90 -3 0 -7 -11
-10 -25z"/>
<path d="M1397 10152 c-35 -38 -10 -90 37 -78 13 3 27 13 30 23 6 15 5 15 -13
-1 -29 -26 -56 -17 -56 18 0 39 27 56 57 37 21 -13 22 -13 9 2 -18 22 -44 21
-64 -1z"/>
<path d="M1505 10145 c-14 -68 -15 -80 -6 -65 9 16 22 90 16 90 -3 0 -7 -11
-10 -25z"/>
<path d="M1646 10153 c-2 -10 -7 -34 -10 -53 -5 -28 -4 -31 4 -12 5 12 13 22
18 22 5 0 14 -10 20 -22 11 -22 11 -21 6 5 -4 16 -1 34 7 45 13 16 12 16 -7 0
-28 -25 -37 -22 -30 7 7 28 0 35 -8 8z"/>
<path d="M1847 10156 c-4 -9 -14 -12 -26 -9 -15 4 -24 -2 -32 -20 -16 -35 -5
-57 25 -55 21 2 27 9 35 48 10 45 8 64 -2 36z m-12 -40 c0 -20 -30 -45 -41
-34 -3 4 -3 19 0 33 8 31 41 31 41 1z"/>
<path d="M1887 10141 c-18 -30 -23 -86 -9 -95 4 -2 6 11 4 30 -3 21 2 44 13
60 9 14 15 27 13 30 -2 2 -12 -10 -21 -25z"/>
<path d="M2372 10157 c-6 -7 -25 -12 -42 -11 -22 1 -30 -2 -30 -14 0 -10 -3
-28 -5 -42 -3 -14 0 -10 8 10 8 19 22 37 32 38 15 3 17 -1 12 -35 -5 -27 -4
-32 3 -18 7 17 9 18 9 3 1 -29 16 -20 17 10 1 15 4 37 7 50 7 25 4 27 -11 9z"/>
<path d="M2635 10145 c-14 -68 -15 -80 -6 -65 9 16 22 90 16 90 -3 0 -7 -11
-10 -25z"/>
<path d="M2894 10158 c-11 -18 -17 -88 -7 -88 4 0 9 12 9 28 1 15 4 37 7 50 6
24 2 29 -9 10z"/>
<path d="M2938 10133 c3 -25 -2 -44 -18 -66 l-21 -32 25 28 c25 28 36 89 18
101 -4 2 -6 -11 -4 -31z"/>
<path d="M3327 10156 c-4 -9 -14 -12 -26 -9 -15 4 -24 -2 -32 -20 -16 -35 -5
-57 25 -55 21 2 27 9 35 48 10 45 8 64 -2 36z m-12 -40 c0 -20 -30 -45 -41
-34 -3 4 -3 19 0 33 8 31 41 31 41 1z"/>
<path d="M601 10148 c0 -9 -9 -19 -18 -21 -16 -4 -16 -5 -1 -6 9 0 19 -9 21
-18 4 -16 5 -16 6 -1 0 9 9 19 19 21 15 4 15 5 0 6 -9 0 -19 9 -21 19 -4 15
-5 15 -6 0z"/>
<path d="M702 10138 c-32 -32 0 -84 37 -61 24 15 21 67 -4 71 -11 1 -26 -3
-33 -10z m46 -25 c-2 -20 -9 -29 -25 -31 -18 -3 -23 1 -23 21 0 29 7 37 32 37
15 0 19 -6 16 -27z"/>
<path d="M780 10130 c0 -8 -3 -26 -5 -40 -3 -14 0 -10 8 10 8 19 22 37 32 38
15 3 17 -1 12 -35 -6 -35 -5 -36 4 -10 6 15 8 34 5 42 -7 20 -56 15 -56 -5z"/>
<path d="M966 10117 c-9 -47 -6 -55 7 -18 18 51 41 54 34 5 -5 -27 -4 -33 3
-19 5 11 9 30 9 42 1 18 -4 22 -23 21 -18 -2 -26 -10 -30 -31z"/>
<path d="M1241 10136 c-28 -33 11 -88 41 -58 6 6 0 8 -16 5 -19 -4 -26 -1 -26
11 0 11 9 16 31 16 24 0 30 4 27 18 -4 22 -41 27 -57 8z m49 -6 c0 -5 -12 -10
-26 -10 -14 0 -23 4 -19 10 3 6 15 10 26 10 10 0 19 -4 19 -10z"/>
<path d="M1531 10135 c-1 -11 -4 -31 -6 -45 l-6 -25 11 25 c6 13 9 33 7 45 -4
19 -4 19 -6 0z"/>
<path d="M1569 10126 c-6 -13 -9 -32 -5 -41 7 -19 38 -17 42 3 1 7 0 8 -3 2
-7 -15 -33 -12 -33 4 0 38 30 63 43 36 3 -6 4 -5 3 2 -5 24 -35 20 -47 -6z"/>
<path d="M1711 10136 c-28 -33 11 -88 41 -58 6 6 0 8 -16 5 -19 -4 -26 -1 -26
11 0 11 9 16 31 16 24 0 30 4 27 18 -4 22 -41 27 -57 8z m49 -6 c0 -5 -12 -10
-26 -10 -14 0 -23 4 -19 10 3 6 15 10 26 10 10 0 19 -4 19 -10z"/>
<path d="M1915 10112 c-3 -19 -4 -37 -1 -40 3 -3 6 4 6 16 0 12 9 31 19 41 19
19 19 20 1 18 -13 -1 -21 -12 -25 -35z"/>
<path d="M1972 10138 c-32 -32 0 -84 37 -61 24 15 21 67 -4 71 -11 1 -26 -3
-33 -10z m46 -25 c-2 -20 -9 -29 -25 -31 -18 -3 -23 1 -23 21 0 29 7 37 32 37
15 0 19 -6 16 -27z"/>
<path d="M2042 10130 c0 -14 3 -34 8 -45 8 -19 8 -19 18 5 l10 25 10 -25 c10
-25 10 -25 27 14 9 21 14 40 11 43 -3 3 -8 -6 -12 -21 -8 -34 -22 -33 -26 2
l-4 27 -14 -30 -13 -30 -7 30 c-7 27 -8 27 -8 5z"/>
<path d="M2271 10135 c-1 -11 -4 -31 -6 -45 l-6 -25 11 25 c6 13 9 33 7 45 -4
19 -4 19 -6 0z"/>
<path d="M2479 10126 c-6 -13 -9 -32 -5 -41 7 -19 38 -17 42 3 1 7 0 8 -3 2
-7 -15 -33 -12 -33 4 0 38 30 63 43 36 3 -6 4 -5 3 2 -5 24 -35 20 -47 -6z"/>
<path d="M2552 10138 c-32 -32 0 -84 37 -61 24 15 21 67 -4 71 -11 1 -26 -3
-33 -10z m46 -25 c-2 -20 -9 -29 -25 -31 -18 -3 -23 1 -23 21 0 29 7 37 32 37
15 0 19 -6 16 -27z"/>
<path d="M2781 10135 c-1 -11 -4 -31 -6 -45 l-6 -25 11 25 c6 13 9 33 7 45 -4
19 -4 19 -6 0z"/>
<path d="M2810 10130 c0 -8 -3 -26 -5 -40 -3 -14 0 -10 8 10 8 19 22 37 32 38
15 3 17 -1 12 -35 -6 -35 -5 -36 4 -10 6 15 8 34 5 42 -7 20 -56 15 -56 -5z"/>
<path d="M3077 10115 c9 -61 13 -61 38 -2 8 20 13 37 10 37 -3 0 -11 -14 -17
-32 l-11 -32 -13 34 -13 35 6 -40z"/>
<path d="M3152 10138 c-32 -32 0 -84 37 -61 24 15 21 67 -4 71 -11 1 -26 -3
-33 -10z m46 -25 c-2 -20 -9 -29 -25 -31 -18 -3 -23 1 -23 21 0 29 7 37 32 37
15 0 19 -6 16 -27z"/>
<path d="M3241 10135 c-1 -11 -4 -31 -6 -45 l-6 -25 11 25 c6 13 9 33 7 45 -4
19 -4 19 -6 0z"/>
<path d="M2397 10061 c-4 -17 -3 -21 5 -13 5 5 8 16 6 23 -3 8 -7 3 -11 -10z"/>
<path d="M866 9973 c-2 -10 -7 -33 -11 -50 -6 -31 -5 -33 23 -33 49 0 81 57
50 88 -18 18 -56 15 -62 -5z m62 -21 c5 -30 -14 -52 -44 -52 -25 0 -26 11 -8
68 7 23 49 10 52 -16z"/>
<path d="M1054 9979 c-3 -6 -8 -30 -9 -53 l-2 -41 10 35 c6 19 16 38 21 42 7
5 5 8 -4 8 -13 0 -13 1 0 10 9 6 10 10 3 10 -6 0 -15 -5 -19 -11z"/>
<path d="M1307 9976 c-4 -9 -14 -12 -26 -9 -15 4 -24 -2 -32 -20 -16 -35 -5
-57 25 -55 21 2 27 9 35 48 10 45 8 64 -2 36z m-12 -40 c0 -20 -30 -45 -41
-34 -3 4 -3 19 0 33 8 31 41 31 41 1z"/>
<path d="M1456 9975 c-10 -8 -22 -12 -26 -10 -9 6 -24 -64 -16 -73 3 -3 6 4 6
14 0 11 6 28 13 38 12 17 14 17 45 -1 17 -10 32 -24 32 -30 0 -15 -46 -17 -53
-3 -3 6 -4 5 -3 -2 2 -7 16 -13 32 -13 39 0 45 30 10 46 -14 7 -26 18 -26 26
0 15 46 18 53 3 3 -6 4 -5 3 2 -4 19 -48 20 -70 3z"/>
<path d="M1645 9965 c-14 -68 -15 -80 -6 -65 9 16 22 90 16 90 -3 0 -7 -11
-10 -25z"/>
<path d="M1834 9978 c-11 -18 -17 -88 -7 -88 4 0 9 12 9 28 1 15 4 37 7 50 6
24 2 29 -9 10z"/>
<path d="M2007 9976 c-4 -9 -14 -12 -26 -9 -15 4 -24 -2 -32 -20 -16 -35 -5
-57 25 -55 21 2 27 9 35 48 10 45 8 64 -2 36z m-12 -40 c0 -20 -30 -45 -41
-34 -3 4 -3 19 0 33 8 31 41 31 41 1z"/>
<path d="M2037 9961 c-18 -30 -23 -86 -9 -95 4 -2 6 11 4 30 -3 21 2 44 13 60
9 14 15 27 13 30 -2 2 -12 -10 -21 -25z"/>
<path d="M2084 9978 c-13 -21 -16 -88 -4 -88 6 0 8 5 5 11 -4 5 -4 22 0 37 5
20 8 23 16 11 12 -19 11 -76 -1 -82 -7 -4 -7 -5 0 -4 6 1 24 26 40 55 33 57
34 71 2 21 l-20 -32 -7 32 c-3 17 -11 31 -16 31 -6 0 -7 5 -4 10 3 6 4 10 1
10 -3 0 -8 -6 -12 -12z"/>
<path d="M2456 9973 c-2 -10 -7 -33 -11 -50 -6 -31 -5 -33 23 -33 49 0 81 57
50 88 -18 18 -56 15 -62 -5z m62 -21 c5 -30 -14 -52 -44 -52 -25 0 -26 11 -8
68 7 23 49 10 52 -16z"/>
<path d="M2634 9979 c-3 -6 -8 -30 -9 -53 l-2 -41 10 35 c6 19 16 38 21 42 7
5 5 8 -4 8 -13 0 -13 1 0 10 9 6 10 10 3 10 -6 0 -15 -5 -19 -11z"/>
<path d="M2897 9976 c-4 -9 -14 -12 -26 -9 -15 4 -24 -2 -32 -20 -16 -35 -5
-57 25 -55 21 2 27 9 35 48 10 45 8 64 -2 36z m-12 -40 c0 -20 -30 -45 -41
-34 -3 4 -3 19 0 33 8 31 41 31 41 1z"/>
<path d="M3063 9983 c13 -3 16 -11 11 -31 -3 -15 -8 -36 -10 -47 l-4 -20 9 20
c5 11 12 32 15 47 3 14 14 29 24 31 9 3 -1 5 -23 5 -22 0 -32 -2 -22 -5z"/>
<path d="M3378 9953 c3 -25 -2 -44 -18 -66 l-21 -32 25 28 c25 28 36 89 18
101 -4 2 -6 -11 -4 -31z"/>
<path d="M3767 9976 c-4 -9 -14 -12 -26 -9 -15 4 -24 -2 -32 -20 -16 -35 -5
-57 25 -55 21 2 27 9 35 48 10 45 8 64 -2 36z m-12 -40 c0 -20 -30 -45 -41
-34 -3 4 -3 19 0 33 8 31 41 31 41 1z"/>
<path d="M601 9968 c0 -9 -9 -19 -18 -21 -16 -4 -16 -5 -1 -6 9 0 19 -9 21
-18 4 -16 5 -16 6 -1 0 9 9 19 19 21 15 4 15 5 0 6 -9 0 -19 9 -21 19 -4 15
-5 15 -6 0z"/>
<path d="M702 9958 c-32 -32 0 -84 37 -61 24 15 21 67 -4 71 -11 1 -26 -3 -33
-10z m46 -25 c-2 -20 -9 -29 -25 -31 -18 -3 -23 1 -23 21 0 29 7 37 32 37 15
0 19 -6 16 -27z"/>
<path d="M780 9950 c0 -8 -3 -26 -5 -40 -3 -14 0 -10 8 10 8 19 22 37 32 38
15 3 17 -1 12 -35 -6 -35 -5 -36 4 -10 6 15 8 34 5 42 -7 20 -56 15 -56 -5z"/>
<path d="M971 9956 c-28 -33 11 -88 41 -58 6 6 0 8 -16 5 -19 -4 -26 -1 -26
11 0 11 9 16 31 16 24 0 30 4 27 18 -4 22 -41 27 -57 8z m49 -6 c0 -5 -12 -10
-26 -10 -14 0 -23 4 -19 10 3 6 15 10 26 10 10 0 19 -4 19 -10z"/>
<path d="M1091 9956 c-28 -33 11 -88 41 -58 6 6 0 8 -16 5 -19 -4 -26 -1 -26
11 0 11 9 16 31 16 24 0 30 4 27 18 -4 22 -41 27 -57 8z m49 -6 c0 -5 -12 -10
-26 -10 -14 0 -23 4 -19 10 3 6 15 10 26 10 10 0 19 -4 19 -10z"/>
<path d="M1170 9950 c0 -8 -3 -26 -5 -40 -3 -14 0 -10 8 10 8 19 22 37 32 38
15 3 17 -1 12 -35 -6 -35 -5 -36 4 -10 6 15 8 34 5 42 -7 20 -56 15 -56 -5z"/>
<path d="M1331 9956 c-28 -33 11 -88 41 -58 6 6 0 8 -16 5 -19 -4 -26 -1 -26
11 0 11 9 16 31 16 24 0 30 4 27 18 -4 22 -41 27 -57 8z m49 -6 c0 -5 -12 -10
-26 -10 -14 0 -23 4 -19 10 3 6 15 10 26 10 10 0 19 -4 19 -10z"/>
<path d="M1561 9956 c-28 -33 11 -88 41 -58 6 6 0 8 -16 5 -19 -4 -26 -1 -26
11 0 11 9 16 31 16 24 0 30 4 27 18 -4 22 -41 27 -57 8z m49 -6 c0 -5 -12 -10
-26 -10 -14 0 -23 4 -19 10 3 6 15 10 26 10 10 0 19 -4 19 -10z"/>
<path d="M1681 9956 c-28 -33 11 -88 41 -58 6 6 0 8 -16 5 -19 -4 -26 -1 -26
11 0 11 9 16 31 16 24 0 30 4 27 18 -4 22 -41 27 -57 8z m49 -6 c0 -5 -12 -10
-26 -10 -14 0 -23 4 -19 10 3 6 15 10 26 10 10 0 19 -4 19 -10z"/>
<path d="M1759 9946 c-6 -13 -9 -32 -5 -41 7 -19 38 -17 42 3 1 7 0 8 -3 2 -7
-15 -33 -12 -33 4 0 38 30 63 43 36 3 -6 4 -5 3 2 -5 24 -35 20 -47 -6z"/>
<path d="M1871 9956 c-28 -33 11 -88 41 -58 6 6 0 8 -16 5 -19 -4 -26 -1 -26
11 0 11 9 16 31 16 24 0 30 4 27 18 -4 22 -41 27 -57 8z m49 -6 c0 -5 -12 -10
-26 -10 -14 0 -23 4 -19 10 3 6 15 10 26 10 10 0 19 -4 19 -10z"/>
<path d="M2170 9917 c-12 -57 -12 -70 0 -40 6 15 15 20 29 16 15 -4 24 2 32
20 16 35 5 57 -25 55 -22 -2 -27 -9 -36 -51z m60 29 c0 -25 -12 -46 -26 -46
-20 0 -29 27 -14 45 16 19 40 19 40 1z"/>
<path d="M2271 9956 c-28 -33 11 -88 41 -58 6 6 0 8 -16 5 -19 -4 -26 -1 -26
11 0 11 9 16 31 16 24 0 30 4 27 18 -4 22 -41 27 -57 8z m49 -6 c0 -5 -12 -10
-26 -10 -14 0 -23 4 -19 10 3 6 15 10 26 10 10 0 19 -4 19 -10z"/>
<path d="M2551 9956 c-28 -33 11 -88 41 -58 6 6 0 8 -16 5 -19 -4 -26 -1 -26
11 0 11 9 16 31 16 24 0 30 4 27 18 -4 22 -41 27 -57 8z m49 -6 c0 -5 -12 -10
-26 -10 -14 0 -23 4 -19 10 3 6 15 10 26 10 10 0 19 -4 19 -10z"/>
<path d="M2671 9956 c-28 -33 11 -88 41 -58 6 6 0 8 -16 5 -19 -4 -26 -1 -26
11 0 11 9 16 31 16 24 0 30 4 27 18 -4 22 -41 27 -57 8z m49 -6 c0 -5 -12 -10
-26 -10 -14 0 -23 4 -19 10 3 6 15 10 26 10 10 0 19 -4 19 -10z"/>
<path d="M2750 9950 c0 -8 -3 -26 -5 -40 -3 -14 0 -10 8 10 8 19 22 37 32 38
15 3 17 -1 12 -35 -6 -35 -5 -36 4 -10 6 15 8 34 5 42 -7 20 -56 15 -56 -5z"/>
<path d="M2921 9956 c-28 -33 11 -88 41 -58 6 6 0 8 -16 5 -19 -4 -26 -1 -26
11 0 11 9 16 31 16 24 0 30 4 27 18 -4 22 -41 27 -57 8z m49 -6 c0 -5 -12 -10
-26 -10 -14 0 -23 4 -19 10 3 6 15 10 26 10 10 0 19 -4 19 -10z"/>
<path d="M2995 9932 c-3 -19 -4 -37 -1 -40 3 -3 6 4 6 16 0 12 9 31 19 41 19
19 19 20 1 18 -13 -1 -21 -12 -25 -35z"/>
<path d="M3127 9927 c4 -36 2 -52 -8 -59 -10 -6 -10 -8 -1 -6 7 2 26 28 43 58
18 33 22 45 10 30 -11 -14 -21 -29 -22 -35 0 -5 -7 6 -14 25 l-14 35 6 -48z"/>
<path d="M3190 9917 c-12 -57 -12 -70 0 -40 6 15 15 20 29 16 15 -4 24 2 32
20 16 35 5 57 -25 55 -22 -2 -27 -9 -36 -51z m60 29 c0 -25 -12 -46 -26 -46
-20 0 -29 27 -14 45 16 19 40 19 40 1z"/>
<path d="M3281 9956 c-28 -33 11 -88 41 -58 6 6 0 8 -16 5 -19 -4 -26 -1 -26
11 0 11 9 16 31 16 24 0 30 4 27 18 -4 22 -41 27 -57 8z m49 -6 c0 -5 -12 -10
-26 -10 -14 0 -23 4 -19 10 3 6 15 10 26 10 10 0 19 -4 19 -10z"/>
<path d="M3517 9935 c9 -61 13 -61 38 -2 8 20 13 37 10 37 -3 0 -11 -14 -17
-32 l-11 -32 -13 34 -13 35 6 -40z"/>
<path d="M3592 9958 c-32 -32 0 -84 37 -61 24 15 21 67 -4 71 -11 1 -26 -3
-33 -10z m46 -25 c-2 -20 -9 -29 -25 -31 -18 -3 -23 1 -23 21 0 29 7 37 32 37
15 0 19 -6 16 -27z"/>
<path d="M3671 9955 c-1 -11 -4 -31 -6 -45 l-6 -25 11 25 c6 13 9 33 7 45 -4
19 -4 19 -6 0z"/>
<path d="M867 9814 c-14 -15 -6 -35 18 -46 14 -6 25 -17 25 -25 0 -15 -46 -18
-53 -3 -3 6 -4 5 -3 -2 2 -7 16 -13 32 -13 39 0 45 30 10 46 -14 7 -26 18 -26
26 0 15 46 18 53 3 3 -6 4 -5 3 2 -3 14 -48 23 -59 12z"/>
<path d="M964 9808 c-11 -18 -17 -88 -7 -88 4 0 9 12 9 28 1 15 4 37 7 50 6
24 2 29 -9 10z"/>
<path d="M1125 9811 c-6 -5 -19 -11 -30 -13 -20 -3 -33 -27 -33 -63 -1 -11 4
-4 11 15 7 19 20 36 29 38 14 3 16 -3 11 -32 -3 -20 -2 -36 3 -36 5 0 10 12
10 28 1 15 4 37 7 50 6 24 5 26 -8 13z"/>
<path d="M1157 9775 c3 -27 7 -52 9 -54 2 -2 13 13 25 33 24 40 36 38 41 -9
l3 -30 28 47 c15 26 27 50 27 55 0 4 -11 -10 -24 -31 l-23 -39 -10 39 -10 39
-24 -40 -24 -39 -12 39 -12 40 6 -50z"/>
<path d="M1527 9802 c-35 -38 -10 -90 37 -78 13 3 27 13 30 23 6 15 5 15 -13
-1 -29 -26 -56 -17 -56 18 0 39 27 56 57 37 21 -13 22 -13 9 2 -18 22 -44 21
-64 -1z"/>
<path d="M1635 9795 c-14 -68 -15 -80 -6 -65 9 16 22 90 16 90 -3 0 -7 -11
-10 -25z"/>
<path d="M1776 9803 c-2 -10 -7 -34 -10 -53 -5 -28 -4 -31 4 -12 5 12 13 22
18 22 5 0 14 -10 20 -22 11 -22 11 -21 6 5 -4 16 -1 34 7 45 13 16 12 16 -7 0
-28 -25 -37 -22 -30 7 7 28 0 35 -8 8z"/>
<path d="M1977 9806 c-4 -9 -14 -12 -26 -9 -15 4 -24 -2 -32 -20 -16 -35 -5
-57 25 -55 21 2 27 9 35 48 10 45 8 64 -2 36z m-12 -40 c0 -20 -30 -45 -41
-34 -3 4 -3 19 0 33 8 31 41 31 41 1z"/>
<path d="M2017 9791 c-20 -33 -22 -86 -5 -97 19 -12 58 43 58 81 0 19 -4 36
-8 39 -4 2 -6 -11 -4 -30 4 -34 -18 -84 -38 -84 -16 0 -11 63 6 88 9 13 14 25
12 27 -2 3 -12 -9 -21 -24z"/>
<path d="M2447 9806 c-4 -9 -14 -12 -26 -9 -15 4 -24 -2 -32 -20 -16 -35 -5
-57 25 -55 21 2 27 9 35 48 10 45 8 64 -2 36z m-12 -40 c0 -20 -30 -45 -41
-34 -3 4 -3 19 0 33 8 31 41 31 41 1z"/>
<path d="M601 9798 c0 -9 -9 -19 -18 -21 -16 -4 -16 -5 -1 -6 9 0 19 -9 21
-18 4 -16 5 -16 6 -1 0 9 9 19 19 21 15 4 15 5 0 6 -9 0 -19 9 -21 19 -4 15
-5 15 -6 0z"/>
<path d="M702 9788 c-32 -32 0 -84 37 -61 24 15 21 67 -4 71 -11 1 -26 -3 -33
-10z m46 -25 c-2 -20 -9 -29 -25 -31 -18 -3 -23 1 -23 21 0 29 7 37 32 37 15
0 19 -6 16 -27z"/>
<path d="M780 9780 c0 -8 -3 -26 -5 -40 -3 -14 0 -10 8 10 8 19 22 37 32 38
15 3 17 -1 12 -35 -6 -35 -5 -36 4 -10 6 15 8 34 5 42 -7 20 -56 15 -56 -5z"/>
<path d="M996 9791 c-3 -4 6 -6 19 -3 14 2 25 0 25 -6 0 -6 -12 -12 -27 -14
-39 -4 -40 -43 -1 -44 21 -1 27 4 32 29 3 16 3 33 0 38 -7 11 -41 12 -48 0z
m32 -43 c-7 -19 -38 -22 -38 -4 0 10 9 16 21 16 12 0 19 -5 17 -12z"/>
<path d="M1296 9791 c-3 -4 6 -6 19 -3 14 2 25 0 25 -6 0 -6 -12 -12 -27 -14
-39 -4 -40 -43 -1 -44 21 -1 27 4 32 29 3 16 3 33 0 38 -7 11 -41 12 -48 0z
m32 -43 c-7 -19 -38 -22 -38 -4 0 10 9 16 21 16 12 0 19 -5 17 -12z"/>
<path d="M1367 9765 c9 -61 13 -61 38 -2 8 20 13 37 10 37 -3 0 -11 -14 -17
-32 l-11 -32 -13 34 -13 35 6 -40z"/>
<path d="M1441 9786 c-28 -33 11 -88 41 -58 6 6 0 8 -16 5 -19 -4 -26 -1 -26
11 0 11 9 16 31 16 24 0 30 4 27 18 -4 22 -41 27 -57 8z m49 -6 c0 -5 -12 -10
-26 -10 -14 0 -23 4 -19 10 3 6 15 10 26 10 10 0 19 -4 19 -10z"/>
<path d="M1661 9785 c-1 -11 -4 -31 -6 -45 l-6 -25 11 25 c6 13 9 33 7 45 -4
19 -4 19 -6 0z"/>
<path d="M1699 9776 c-6 -13 -9 -32 -5 -41 7 -19 38 -17 42 3 1 7 0 8 -3 2 -7
-15 -33 -12 -33 4 0 38 30 63 43 36 3 -6 4 -5 3 2 -5 24 -35 20 -47 -6z"/>
<path d="M1841 9786 c-28 -33 11 -88 41 -58 6 6 0 8 -16 5 -19 -4 -26 -1 -26
11 0 11 9 16 31 16 24 0 30 4 27 18 -4 22 -41 27 -57 8z m49 -6 c0 -5 -12 -10
-26 -10 -14 0 -23 4 -19 10 3 6 15 10 26 10 10 0 19 -4 19 -10z"/>
<path d="M2207 9765 c9 -61 13 -61 38 -2 8 20 13 37 10 37 -3 0 -11 -14 -17
-32 l-11 -32 -13 34 -13 35 6 -40z"/>
<path d="M2282 9788 c-17 -17 -15 -58 4 -65 9 -3 25 -1 35 5 13 9 19 8 22 -1
2 -7 8 5 12 26 4 21 5 41 1 44 -3 4 -6 -7 -7 -23 -1 -28 -1 -28 -8 -4 -8 28
-39 38 -59 18z m46 -25 c-2 -20 -9 -29 -25 -31 -18 -3 -23 1 -23 21 0 29 7 37
32 37 15 0 19 -6 16 -27z"/>
<path d="M867 9623 c-3 -10 -8 -34 -11 -53 -5 -28 -4 -31 4 -12 12 28 34 28
54 0 9 -12 16 -17 16 -11 0 7 -5 15 -12 19 -8 5 -6 11 6 20 28 20 16 48 -21
52 -23 2 -33 -1 -36 -15z m61 -10 c-4 -22 -58 -31 -58 -10 0 20 10 27 37 27
18 0 24 -5 21 -17z"/>
<path d="M1204 9628 c-11 -18 -17 -88 -7 -88 4 0 9 12 9 28 1 15 4 37 7 50 6
24 2 29 -9 10z"/>
<path d="M1247 9622 c-34 -37 -12 -87 34 -80 12 2 26 13 30 26 7 19 5 22 -19
21 -17 -1 -20 -3 -9 -6 29 -8 21 -35 -10 -31 -51 6 -39 78 12 78 13 0 26 -5
28 -10 3 -6 4 -5 3 2 -4 21 -50 21 -69 0z"/>
<path d="M1637 9622 c-35 -38 -10 -90 37 -78 13 3 27 13 30 23 6 15 5 15 -13
-1 -29 -26 -56 -17 -56 18 0 39 27 56 57 37 21 -13 22 -13 9 2 -18 22 -44 21
-64 -1z"/>
<path d="M1745 9615 c-14 -68 -15 -80 -6 -65 9 16 22 90 16 90 -3 0 -7 -11
-10 -25z"/>
<path d="M1886 9623 c-2 -10 -7 -34 -10 -53 -5 -28 -4 -31 4 -12 5 12 13 22
18 22 5 0 14 -10 20 -22 11 -22 11 -21 6 5 -4 16 -1 34 7 45 13 16 12 16 -7 0
-28 -25 -37 -22 -30 7 7 28 0 35 -8 8z"/>
<path d="M2087 9626 c-4 -9 -14 -12 -26 -9 -15 4 -24 -2 -32 -20 -16 -35 -5
-57 25 -55 21 2 27 9 35 48 10 45 8 64 -2 36z m-12 -40 c0 -20 -30 -45 -41
-34 -3 4 -3 19 0 33 8 31 41 31 41 1z"/>
<path d="M2117 9611 c-18 -30 -23 -86 -9 -95 4 -2 6 11 4 30 -3 21 2 44 13 60
9 14 15 27 13 30 -2 2 -12 -10 -21 -25z"/>
<path d="M2168 9603 c3 -25 -2 -44 -18 -66 l-21 -32 25 28 c25 28 36 89 18
101 -4 2 -6 -11 -4 -31z"/>
<path d="M2547 9626 c-4 -9 -14 -12 -26 -9 -15 4 -24 -2 -32 -20 -16 -35 -5
-57 25 -55 21 2 27 9 35 48 10 45 8 64 -2 36z m-12 -40 c0 -20 -30 -45 -41
-34 -3 4 -3 19 0 33 8 31 41 31 41 1z"/>
<path d="M601 9618 c0 -9 -9 -19 -18 -21 -16 -4 -16 -5 -1 -6 9 0 19 -9 21
-18 4 -16 5 -16 6 -1 0 9 9 19 19 21 15 4 15 5 0 6 -9 0 -19 9 -21 19 -4 15
-5 15 -6 0z"/>
<path d="M702 9608 c-32 -32 0 -84 37 -61 24 15 21 67 -4 71 -11 1 -26 -3 -33
-10z m46 -25 c-2 -20 -9 -29 -25 -31 -18 -3 -23 1 -23 21 0 29 7 37 32 37 15
0 19 -6 16 -27z"/>
<path d="M780 9600 c0 -8 -3 -26 -5 -40 -3 -14 0 -10 8 10 8 19 22 37 32 38
15 3 17 -1 12 -35 -6 -35 -5 -36 4 -10 6 15 8 34 5 42 -7 20 -56 15 -56 -5z"/>
<path d="M971 9606 c-28 -33 11 -88 41 -58 6 6 0 8 -16 5 -19 -4 -26 -1 -26
11 0 11 9 16 31 16 24 0 30 4 27 18 -4 22 -41 27 -57 8z m49 -6 c0 -5 -12 -10
-26 -10 -14 0 -23 4 -19 10 3 6 15 10 26 10 10 0 19 -4 19 -10z"/>
<path d="M1054 9608 c-4 -6 0 -16 9 -23 10 -7 17 -17 17 -24 0 -14 -27 -15
-33 -1 -3 6 -4 5 -3 -2 4 -20 35 -22 43 -2 4 10 0 22 -10 29 -23 17 -21 28 3
22 11 -3 18 -1 14 4 -7 13 -31 11 -40 -3z"/>
<path d="M1121 9606 c-28 -33 11 -88 41 -58 6 6 0 8 -16 5 -19 -4 -26 -1 -26
11 0 11 9 16 31 16 24 0 30 4 27 18 -4 22 -41 27 -57 8z m49 -6 c0 -5 -12 -10
-26 -10 -14 0 -23 4 -19 10 3 6 15 10 26 10 10 0 19 -4 19 -10z"/>
<path d="M1356 9611 c-3 -4 6 -6 19 -3 14 2 25 0 25 -6 0 -6 -12 -12 -27 -14
-39 -4 -40 -43 -1 -44 21 -1 27 4 32 29 3 16 3 33 0 38 -7 11 -41 12 -48 0z
m32 -43 c-7 -19 -38 -22 -38 -4 0 10 9 16 21 16 12 0 19 -5 17 -12z"/>
<path d="M1430 9601 c0 -9 -3 -27 -5 -41 -3 -15 0 -11 8 9 20 51 41 54 34 5
l-6 -39 12 34 c20 51 41 54 34 5 -6 -32 -5 -35 4 -15 17 42 8 56 -39 57 -32 0
-42 -3 -42 -15z"/>
<path d="M1551 9606 c-28 -33 11 -88 41 -58 6 6 0 8 -16 5 -19 -4 -26 -1 -26
11 0 11 9 16 31 16 24 0 30 4 27 18 -4 22 -41 27 -57 8z m49 -6 c0 -5 -12 -10
-26 -10 -14 0 -23 4 -19 10 3 6 15 10 26 10 10 0 19 -4 19 -10z"/>
<path d="M1771 9605 c-1 -11 -4 -31 -6 -45 l-6 -25 11 25 c6 13 9 33 7 45 -4
19 -4 19 -6 0z"/>
<path d="M1809 9596 c-6 -13 -9 -32 -5 -41 7 -19 38 -17 42 3 1 7 0 8 -3 2 -7
-15 -33 -12 -33 4 0 38 30 63 43 36 3 -6 4 -5 3 2 -5 24 -35 20 -47 -6z"/>
<path d="M1951 9606 c-28 -33 11 -88 41 -58 6 6 0 8 -16 5 -19 -4 -26 -1 -26
11 0 11 9 16 31 16 24 0 30 4 27 18 -4 22 -41 27 -57 8z m49 -6 c0 -5 -12 -10
-26 -10 -14 0 -23 4 -19 10 3 6 15 10 26 10 10 0 19 -4 19 -10z"/>
<path d="M2307 9585 c9 -61 13 -61 38 -2 8 20 13 37 10 37 -3 0 -11 -14 -17
-32 l-11 -32 -13 34 -13 35 6 -40z"/>
<path d="M2372 9608 c-32 -32 0 -84 37 -61 24 15 21 67 -4 71 -11 1 -26 -3
-33 -10z m46 -25 c-2 -20 -9 -29 -25 -31 -18 -3 -23 1 -23 21 0 29 7 37 32 37
15 0 19 -6 16 -27z"/>
<path d="M2461 9605 c-1 -11 -4 -31 -6 -45 l-6 -25 11 25 c6 13 9 33 7 45 -4
19 -4 19 -6 0z"/>
<path d="M2144 9110 c0 -52 1 -74 3 -47 2 26 2 68 0 95 -2 26 -3 4 -3 -48z"/>
<path d="M2144 8870 c0 -52 1 -74 3 -47 2 26 2 68 0 95 -2 26 -3 4 -3 -48z"/>
<path d="M2144 8630 c0 -52 1 -74 3 -47 2 26 2 68 0 95 -2 26 -3 4 -3 -48z"/>
<path d="M2144 8390 c0 -52 1 -74 3 -47 2 26 2 68 0 95 -2 26 -3 4 -3 -48z"/>
<path d="M2144 8150 c0 -52 1 -74 3 -47 2 26 2 68 0 95 -2 26 -3 4 -3 -48z"/>
<path d="M2144 7910 c0 -52 1 -74 3 -47 2 26 2 68 0 95 -2 26 -3 4 -3 -48z"/>
<path d="M2144 7670 c0 -52 1 -74 3 -47 2 26 2 68 0 95 -2 26 -3 4 -3 -48z"/>
<path d="M2144 7430 c0 -52 1 -74 3 -47 2 26 2 68 0 95 -2 26 -3 4 -3 -48z"/>
<path d="M2144 7190 c0 -52 1 -74 3 -47 2 26 2 68 0 95 -2 26 -3 4 -3 -48z"/>
<path d="M2144 6950 c0 -52 1 -74 3 -47 2 26 2 68 0 95 -2 26 -3 4 -3 -48z"/>
<path d="M2144 6710 c0 -52 1 -74 3 -47 2 26 2 68 0 95 -2 26 -3 4 -3 -48z"/>
<path d="M2144 6470 c0 -52 1 -74 3 -47 2 26 2 68 0 95 -2 26 -3 4 -3 -48z"/>
<path d="M2144 6230 c0 -52 1 -74 3 -47 2 26 2 68 0 95 -2 26 -3 4 -3 -48z"/>
<path d="M2144 5990 c0 -52 1 -74 3 -47 2 26 2 68 0 95 -2 26 -3 4 -3 -48z"/>
<path d="M2144 5750 c0 -52 1 -74 3 -47 2 26 2 68 0 95 -2 26 -3 4 -3 -48z"/>
<path d="M2144 5510 c0 -52 1 -74 3 -47 2 26 2 68 0 95 -2 26 -3 4 -3 -48z"/>
<path d="M2144 5270 c0 -52 1 -74 3 -47 2 26 2 68 0 95 -2 26 -3 4 -3 -48z"/>
<path d="M2144 5030 c0 -52 1 -74 3 -47 2 26 2 68 0 95 -2 26 -3 4 -3 -48z"/>
<path d="M2144 4790 c0 -52 1 -74 3 -47 2 26 2 68 0 95 -2 26 -3 4 -3 -48z"/>
<path d="M2144 4550 c0 -52 1 -74 3 -47 2 26 2 68 0 95 -2 26 -3 4 -3 -48z"/>
<path d="M2144 4310 c0 -52 1 -74 3 -47 2 26 2 68 0 95 -2 26 -3 4 -3 -48z"/>
<path d="M2144 4070 c0 -52 1 -74 3 -47 2 26 2 68 0 95 -2 26 -3 4 -3 -48z"/>
<path d="M2144 3830 c0 -52 1 -74 3 -47 2 26 2 68 0 95 -2 26 -3 4 -3 -48z"/>
<path d="M2144 3590 c0 -52 1 -74 3 -47 2 26 2 68 0 95 -2 26 -3 4 -3 -48z"/>
<path d="M2144 3350 c0 -52 1 -74 3 -47 2 26 2 68 0 95 -2 26 -3 4 -3 -48z"/>
<path d="M2144 3110 c0 -52 1 -74 3 -47 2 26 2 68 0 95 -2 26 -3 4 -3 -48z"/>
<path d="M2144 2870 c0 -52 1 -74 3 -47 2 26 2 68 0 95 -2 26 -3 4 -3 -48z"/>
<path d="M2144 2630 c0 -52 1 -74 3 -47 2 26 2 68 0 95 -2 26 -3 4 -3 -48z"/>
<path d="M2144 2390 c0 -52 1 -74 3 -47 2 26 2 68 0 95 -2 26 -3 4 -3 -48z"/>
<path d="M2144 2150 c0 -52 1 -74 3 -47 2 26 2 68 0 95 -2 26 -3 4 -3 -48z"/>
<path d="M2144 1910 c0 -52 1 -74 3 -47 2 26 2 68 0 95 -2 26 -3 4 -3 -48z"/>
<path d="M2142 1698 l-2 -68 -925 0 -925 0 0 -700 0 -700 1850 0 1850 0 0 700
0 700 -920 0 -919 0 -4 68 -3 67 -2 -67z m1828 -218 l0 -130 -1830 0 -1830 0
0 130 0 130 1830 0 1830 0 0 -130z m0 -185 l0 -45 -1830 0 -1830 0 0 45 0 45
1830 0 1830 0 0 -45z m0 -550 l0 -495 -1830 0 -1830 0 0 495 0 495 1830 0
1830 0 0 -495z"/>
<path d="M1636 1504 c-9 -8 -16 -24 -16 -34 0 -20 25 -50 41 -50 20 0 49 21
49 35 0 8 -9 15 -20 15 -22 0 -27 -15 -7 -24 6 -3 1 -4 -13 -3 -19 1 -25 8
-25 27 0 22 4 25 34 22 29 -2 32 0 21 13 -16 19 -44 19 -64 -1z"/>
<path d="M2036 1504 c-9 -8 -16 -24 -16 -34 0 -21 25 -50 44 -50 8 0 19 7 26
14 10 13 7 15 -17 13 -24 -2 -28 2 -28 23 0 21 4 25 28 23 24 -2 27 0 17 13
-16 18 -35 18 -54 -2z"/>
<path d="M2470 1470 c0 -27 5 -50 10 -50 6 0 10 23 10 50 0 28 -4 50 -10 50
-5 0 -10 -22 -10 -50z"/>
<path d="M2510 1470 c0 -27 5 -50 10 -50 6 0 10 23 10 50 0 28 -4 50 -10 50
-5 0 -10 -22 -10 -50z"/>
<path d="M2286 1502 c-3 -5 -21 -7 -40 -6 -36 3 -36 3 -36 -36 0 -22 5 -40 10
-40 6 0 10 14 10 30 0 20 5 30 15 30 10 0 15 -10 15 -30 0 -41 20 -38 21 3 l1
32 7 -29 c3 -16 12 -31 18 -33 9 -3 11 4 7 26 -4 20 -2 31 5 31 6 0 11 -13 11
-30 0 -16 5 -30 10 -30 6 0 10 12 10 26 0 15 8 33 18 40 16 12 16 13 -3 12
-11 -1 -32 1 -47 5 -15 4 -29 3 -32 -1z"/>
<path d="M1740 1490 c-12 -8 -11 -10 5 -10 14 0 21 -7 22 -20 1 -11 -2 -20 -8
-20 -5 0 -9 5 -9 11 0 5 -5 7 -11 4 -18 -12 -3 -30 25 -30 25 -1 27 2 24 34
-3 38 -21 49 -48 31z"/>
<path d="M1810 1459 c0 -22 5 -39 10 -39 6 0 10 14 10 30 0 17 5 30 10 30 6 0
10 -13 10 -30 0 -16 5 -30 10 -30 6 0 10 14 10 30 0 17 5 30 10 30 6 0 10 -13
10 -30 0 -16 5 -30 11 -30 6 0 9 16 7 37 -3 37 -3 38 -50 39 l-48 2 0 -39z"/>
<path d="M1952 1488 c-28 -28 0 -78 35 -63 16 7 15 9 -7 15 l-25 8 28 1 c30 1
32 4 17 32 -12 22 -30 25 -48 7z m35 -14 c-3 -3 -12 -4 -19 -1 -8 3 -5 6 6 6
11 1 17 -2 13 -5z"/>
<path d="M2140 1485 c-26 -31 13 -82 44 -56 19 16 21 42 4 59 -16 16 -33 15
-48 -3z m40 -25 c0 -11 -7 -20 -15 -20 -8 0 -15 9 -15 20 0 11 7 20 15 20 8 0
15 -9 15 -20z"/>
<path d="M2400 1485 c-26 -31 13 -82 44 -56 19 16 21 42 4 59 -16 16 -33 15
-48 -3z m40 -25 c0 -11 -7 -20 -15 -20 -8 0 -15 9 -15 20 0 11 7 20 15 20 8 0
15 -9 15 -20z"/>
<path d="M2552 1488 c-28 -28 0 -78 35 -63 16 7 15 9 -7 15 l-25 8 28 1 c30 1
32 4 17 32 -12 22 -30 25 -48 7z m35 -14 c-3 -3 -12 -4 -19 -1 -8 3 -5 6 6 6
11 1 17 -2 13 -5z"/>
<path d="M2620 1459 c0 -22 5 -39 10 -39 6 0 10 12 10 26 0 15 8 32 17 39 15
11 14 13 -10 13 -25 0 -27 -4 -27 -39z"/>
<path d="M552 1138 c-7 -7 -12 -24 -12 -38 0 -14 5 -31 12 -38 15 -15 51 -15
66 0 19 19 14 38 -10 37 -18 -1 -19 -2 -5 -6 28 -7 14 -28 -19 -28 -26 0 -29
3 -29 35 0 29 4 36 23 38 13 2 31 -2 40 -10 15 -12 16 -11 3 5 -16 20 -51 23
-69 5z"/>
<path d="M942 1138 c-15 -15 -15 -61 0 -76 17 -17 43 -15 59 5 13 15 12 15 -7
3 -31 -19 -54 -6 -54 30 0 36 23 49 54 30 19 -12 20 -12 7 3 -16 20 -42 22
-59 5z"/>
<path d="M1209 1141 c-3 -7 -3 -30 -1 -52 3 -30 8 -39 23 -39 14 0 19 7 19 30
0 17 7 33 17 38 13 8 11 10 -12 10 -15 0 -31 5 -35 12 -6 9 -9 9 -11 1z m31
-51 c0 -16 -4 -30 -10 -30 -5 0 -10 14 -10 30 0 17 5 30 10 30 6 0 10 -13 10
-30z"/>
<path d="M1373 1100 c0 -30 2 -43 4 -27 2 15 2 39 0 55 -2 15 -4 2 -4 -28z"/>
<path d="M1413 1100 c0 -30 2 -43 4 -27 2 15 2 39 0 55 -2 15 -4 2 -4 -28z"/>
<path d="M1580 1131 c-15 -29 -12 -74 6 -97 15 -18 15 -18 5 3 -14 28 -14 69
-1 94 6 10 8 19 6 19 -3 0 -10 -9 -16 -19z"/>
<path d="M1870 1137 c0 -8 -10 -13 -22 -13 -20 1 -23 -4 -23 -34 0 -31 3 -35
28 -36 26 -1 27 1 27 47 0 27 -2 49 -5 49 -3 0 -5 -6 -5 -13z m-5 -47 c0 -16
-6 -26 -17 -28 -14 -3 -18 3 -18 28 0 25 4 31 18 28 11 -2 17 -12 17 -28z"/>
<path d="M1983 1100 c0 -30 2 -43 4 -27 2 15 2 39 0 55 -2 15 -4 2 -4 -28z"/>
<path d="M2132 1100 c1 -52 1 -53 7 -15 l6 40 14 -40 14 -40 17 40 18 40 4
-40 c4 -37 5 -36 6 13 1 28 0 52 -3 52 -4 0 -14 -18 -24 -41 -17 -37 -19 -38
-24 -17 -4 13 -13 32 -21 43 -14 19 -15 16 -14 -35z"/>
<path d="M2380 1137 c0 -8 -10 -13 -22 -13 -20 1 -23 -4 -23 -34 0 -31 3 -35
28 -36 26 -1 27 1 27 47 0 27 -2 49 -5 49 -3 0 -5 -6 -5 -13z m-5 -47 c0 -16
-6 -26 -17 -28 -14 -3 -18 3 -18 28 0 25 4 31 18 28 11 -2 17 -12 17 -28z"/>
<path d="M2483 1100 c0 -30 2 -43 4 -27 2 15 2 39 0 55 -2 15 -4 2 -4 -28z"/>
<path d="M2529 1133 c6 -12 11 -34 11 -48 0 -14 -5 -36 -11 -48 -10 -21 -10
-21 5 -3 9 11 16 34 16 51 0 17 -7 40 -16 51 -15 18 -15 18 -5 -3z"/>
<path d="M461 1118 c0 -9 -9 -19 -18 -21 -16 -4 -16 -5 -1 -6 9 0 19 -9 21
-18 4 -16 5 -16 6 -1 0 9 9 19 19 21 15 4 15 5 0 6 -9 0 -19 9 -21 19 -4 15
-5 15 -6 0z"/>
<path d="M656 1122 c-3 -5 6 -7 19 -4 31 6 33 -10 3 -23 -33 -14 -29 -40 5
-41 26 -1 28 1 25 35 -2 28 -8 37 -25 39 -11 2 -24 -1 -27 -6z m44 -42 c0 -12
-28 -25 -36 -17 -9 9 6 27 22 27 8 0 14 -5 14 -10z"/>
<path d="M731 1086 l2 -41 6 34 c9 49 31 52 32 4 l2 -38 6 34 c8 47 29 51 34
7 l4 -36 -1 37 c-1 38 -1 38 -43 39 l-43 0 1 -40z"/>
<path d="M854 1116 c-16 -41 20 -86 48 -58 6 6 0 8 -16 5 -19 -4 -26 -1 -26
11 0 11 9 16 26 16 19 0 25 5 22 18 -4 22 -46 29 -54 8z m46 -6 c0 -5 -9 -10
-20 -10 -11 0 -20 5 -20 10 0 6 9 10 20 10 11 0 20 -4 20 -10z"/>
<path d="M1044 1116 c-3 -8 -4 -25 -2 -38 2 -17 9 -23 28 -23 22 0 25 4 25 35
0 29 -4 36 -23 38 -13 2 -24 -3 -28 -12z m46 -26 c0 -23 -4 -30 -20 -30 -16 0
-20 7 -20 30 0 23 4 30 20 30 16 0 20 -7 20 -30z"/>
<path d="M1121 1086 l2 -41 6 35 c8 48 38 54 44 8 l4 -33 -1 35 c-1 31 -4 35
-28 36 -26 1 -28 -1 -27 -40z"/>
<path d="M1294 1116 c-3 -8 -4 -25 -2 -38 2 -17 9 -23 28 -23 22 0 25 4 25 35
0 29 -4 36 -23 38 -13 2 -24 -3 -28 -12z m46 -26 c0 -23 -4 -30 -20 -30 -16 0
-20 7 -20 30 0 23 4 30 20 30 16 0 20 -7 20 -30z"/>
<path d="M1444 1116 c-16 -41 20 -86 48 -58 6 6 0 8 -16 5 -19 -4 -26 -1 -26
11 0 11 9 16 26 16 19 0 25 5 22 18 -4 22 -46 29 -54 8z m46 -6 c0 -5 -9 -10
-20 -10 -11 0 -20 5 -20 10 0 6 9 10 20 10 11 0 20 -4 20 -10z"/>
<path d="M1521 1085 c2 -33 3 -35 6 -10 2 17 11 35 20 42 13 10 13 12 -6 10
-18 -1 -21 -7 -20 -42z"/>
<path d="M1621 1086 l2 -41 6 34 c9 49 31 52 32 4 l2 -38 6 34 c8 47 29 51 34
7 l4 -36 -1 37 c-1 38 -1 38 -43 39 l-43 0 1 -40z"/>
<path d="M1744 1116 c-3 -8 -4 -25 -2 -38 2 -17 9 -23 28 -23 22 0 25 4 25 35
0 29 -4 36 -23 38 -13 2 -24 -3 -28 -12z m46 -26 c0 -23 -4 -30 -20 -30 -16 0
-20 7 -20 30 0 23 4 30 20 30 16 0 20 -7 20 -30z"/>
<path d="M1904 1116 c-16 -41 20 -86 48 -58 6 6 0 8 -16 5 -19 -4 -26 -1 -26
11 0 11 9 16 26 16 19 0 25 5 22 18 -4 22 -46 29 -54 8z m46 -6 c0 -5 -9 -10
-20 -10 -11 0 -20 5 -20 10 0 6 9 10 20 10 11 0 20 -4 20 -10z"/>
<path d="M2244 1116 c-3 -8 -4 -25 -2 -38 2 -17 9 -23 28 -23 22 0 25 4 25 35
0 29 -4 36 -23 38 -13 2 -24 -3 -28 -12z m46 -26 c0 -23 -4 -30 -20 -30 -16 0
-20 7 -20 30 0 23 4 30 20 30 16 0 20 -7 20 -30z"/>
<path d="M2414 1116 c-16 -41 20 -86 48 -58 6 6 0 8 -16 5 -19 -4 -26 -1 -26
11 0 11 9 16 26 16 19 0 25 5 22 18 -4 22 -46 29 -54 8z m46 -6 c0 -5 -9 -10
-20 -10 -11 0 -20 5 -20 10 0 6 9 10 20 10 11 0 20 -4 20 -10z"/>
<path d="M722 958 c-15 -15 -15 -61 0 -76 15 -15 51 -15 66 0 19 19 14 38 -10
37 -18 -1 -19 -2 -5 -6 28 -7 14 -28 -19 -28 -26 0 -29 3 -29 35 0 29 4 36 23
38 13 2 31 -2 40 -10 15 -12 16 -11 3 5 -16 20 -51 23 -69 5z"/>
<path d="M950 957 c0 -8 -10 -13 -22 -13 -20 1 -23 -4 -23 -34 0 -31 3 -35 28
-36 26 -1 27 1 27 47 0 27 -2 49 -5 49 -3 0 -5 -6 -5 -13z m-5 -47 c0 -16 -6
-26 -17 -28 -14 -3 -18 3 -18 28 0 25 4 31 18 28 11 -2 17 -12 17 -28z"/>
<path d="M992 958 c-15 -15 -15 -61 0 -76 17 -17 43 -15 59 5 13 15 12 15 -7
3 -31 -19 -54 -6 -54 30 0 36 23 49 54 30 19 -12 20 -12 7 3 -16 20 -42 22
-59 5z"/>
<path d="M1173 920 c0 -30 2 -43 4 -27 2 15 2 39 0 55 -2 15 -4 2 -4 -28z"/>
<path d="M1213 920 c0 -30 2 -43 4 -27 2 15 2 39 0 55 -2 15 -4 2 -4 -28z"/>
<path d="M1252 958 c-15 -15 -15 -61 0 -76 17 -17 43 -15 59 5 13 15 12 15 -7
3 -31 -19 -54 -6 -54 30 0 36 23 49 54 30 19 -12 20 -12 7 3 -16 20 -42 22
-59 5z"/>
<path d="M1353 920 c0 -30 2 -43 4 -27 2 15 2 39 0 55 -2 15 -4 2 -4 -28z"/>
<path d="M1492 920 c-1 -46 1 -51 9 -30 l10 25 21 -25 20 -25 -15 26 c-14 24
-14 28 1 45 9 10 5 8 -10 -5 l-27 -23 -4 33 c-2 22 -4 15 -5 -21z"/>
<path d="M1690 957 c0 -8 -10 -13 -22 -13 -20 1 -23 -4 -23 -34 0 -31 3 -35
28 -36 26 -1 27 1 27 47 0 27 -2 49 -5 49 -3 0 -5 -6 -5 -13z m-5 -47 c0 -16
-6 -26 -17 -28 -14 -3 -18 3 -18 28 0 25 4 31 18 28 11 -2 17 -12 17 -28z"/>
<path d="M1740 951 c-15 -29 -12 -74 6 -97 15 -18 15 -18 5 3 -14 28 -14 69
-1 94 6 10 8 19 6 19 -3 0 -10 -9 -16 -19z"/>
<path d="M2228 959 c-2 -6 -2 -28 0 -50 3 -28 9 -39 21 -38 10 0 11 2 4 6 -15
5 -18 60 -4 65 5 2 3 8 -4 15 -9 8 -15 9 -17 2z"/>
<path d="M2483 920 c0 -30 2 -43 4 -27 2 15 2 39 0 55 -2 15 -4 2 -4 -28z"/>
<path d="M2738 959 c-2 -6 -2 -28 0 -50 3 -28 9 -39 21 -38 10 0 11 2 4 6 -15
5 -18 60 -4 65 5 2 3 8 -4 15 -9 8 -15 9 -17 2z"/>
<path d="M2789 953 c6 -12 11 -34 11 -48 0 -14 -5 -36 -11 -48 -10 -21 -10
-21 5 -3 9 11 16 34 16 51 0 17 -7 40 -16 51 -15 18 -15 18 -5 -3z"/>
<path d="M3170 957 c0 -8 -10 -13 -22 -13 -20 1 -23 -4 -23 -34 0 -31 3 -35
28 -36 26 -1 27 1 27 47 0 27 -2 49 -5 49 -3 0 -5 -6 -5 -13z m-5 -47 c0 -16
-6 -26 -17 -28 -14 -3 -18 3 -18 28 0 25 4 31 18 28 11 -2 17 -12 17 -28z"/>
<path d="M461 938 c0 -9 -9 -19 -18 -21 -16 -4 -16 -5 -1 -6 9 0 19 -9 21 -18
4 -16 5 -16 6 -1 0 9 9 19 19 21 15 4 15 5 0 6 -9 0 -19 9 -21 19 -4 15 -5 15
-6 0z"/>
<path d="M544 936 c-3 -8 -4 -25 -2 -38 2 -17 9 -23 28 -23 22 0 25 4 25 35 0
29 -4 36 -23 38 -13 2 -24 -3 -28 -12z m46 -26 c0 -23 -4 -30 -20 -30 -16 0
-20 7 -20 30 0 23 4 30 20 30 16 0 20 -7 20 -30z"/>
<path d="M631 906 l2 -41 6 35 c8 48 38 54 44 8 l4 -33 -1 35 c-1 31 -4 35
-28 36 -26 1 -28 -1 -27 -40z"/>
<path d="M821 905 l2 -40 6 34 c9 49 29 51 34 4 l4 -38 1 42 c2 40 0 43 -23
41 -22 -2 -25 -6 -24 -43z"/>
<path d="M1094 936 c-16 -41 20 -86 48 -58 6 6 0 8 -16 5 -19 -4 -26 -1 -26
11 0 11 9 16 26 16 19 0 25 5 22 18 -4 22 -46 29 -54 8z m46 -6 c0 -5 -9 -10
-20 -10 -11 0 -20 5 -20 10 0 6 9 10 20 10 11 0 20 -4 20 -10z"/>
<path d="M1383 910 c0 -25 2 -35 4 -22 2 12 2 32 0 45 -2 12 -4 2 -4 -23z"/>
<path d="M1427 943 c-4 -3 -7 -19 -7 -35 0 -31 24 -48 42 -30 8 8 5 9 -11 5
-18 -5 -21 -1 -21 27 0 27 3 32 20 27 11 -3 18 -1 14 4 -6 11 -28 12 -37 2z"/>
<path d="M1564 936 c-16 -41 20 -86 48 -58 6 6 0 8 -16 5 -19 -4 -26 -1 -26
11 0 11 9 16 26 16 19 0 25 5 22 18 -4 22 -46 29 -54 8z m46 -6 c0 -5 -9 -10
-20 -10 -11 0 -20 5 -20 10 0 6 9 10 20 10 11 0 20 -4 20 -10z"/>
<path d="M1771 905 c2 -33 3 -35 6 -10 2 17 11 35 20 42 13 10 13 12 -6 10
-18 -1 -21 -7 -20 -42z"/>
<path d="M1824 936 c-3 -8 -4 -25 -2 -38 2 -17 9 -23 28 -23 22 0 25 4 25 35
0 29 -4 36 -23 38 -13 2 -24 -3 -28 -12z m46 -26 c0 -23 -4 -30 -20 -30 -16 0
-20 7 -20 30 0 23 4 30 20 30 16 0 20 -7 20 -30z"/>
<path d="M1896 925 c12 -55 21 -62 32 -25 6 21 11 27 11 15 1 -11 5 -26 10
-34 7 -11 12 -4 20 24 6 22 9 41 6 43 -2 2 -8 -11 -14 -29 -6 -21 -10 -26 -10
-14 -1 11 -5 26 -10 34 -7 11 -12 6 -19 -20 -6 -21 -11 -26 -11 -14 -1 11 -6
27 -11 35 -8 11 -9 7 -4 -15z"/>
<path d="M2113 910 c0 -25 2 -35 4 -22 2 12 2 32 0 45 -2 12 -4 2 -4 -23z"/>
<path d="M2151 906 l2 -41 6 35 c8 48 38 54 44 8 l4 -33 -1 35 c-1 31 -4 35
-28 36 -26 1 -28 -1 -27 -40z"/>
<path d="M2347 943 c-4 -3 -7 -19 -7 -35 0 -31 24 -48 42 -30 8 8 5 9 -11 5
-18 -5 -21 -1 -21 27 0 27 3 32 20 27 11 -3 18 -1 14 4 -6 11 -28 12 -37 2z"/>
<path d="M2414 936 c-3 -8 -4 -25 -2 -38 2 -17 9 -23 28 -23 22 0 25 4 25 35
0 29 -4 36 -23 38 -13 2 -24 -3 -28 -12z m46 -26 c0 -23 -4 -30 -20 -30 -16 0
-20 7 -20 30 0 23 4 30 20 30 16 0 20 -7 20 -30z"/>
<path d="M2623 910 c0 -25 2 -35 4 -22 2 12 2 32 0 45 -2 12 -4 2 -4 -23z"/>
<path d="M2661 906 l2 -41 6 35 c8 48 38 54 44 8 l4 -33 -1 35 c-1 31 -4 35
-28 36 -26 1 -28 -1 -27 -40z"/>
<path d="M2921 945 c0 -5 8 -25 17 -43 l18 -33 17 37 c10 20 16 38 14 41 -2 2
-10 -11 -17 -28 l-13 -31 -18 33 c-10 19 -18 30 -18 24z"/>
<path d="M3004 936 c-3 -8 -4 -25 -2 -38 2 -17 9 -23 28 -23 22 0 25 4 25 35
0 29 -4 36 -23 38 -13 2 -24 -3 -28 -12z m46 -26 c0 -23 -4 -30 -20 -30 -16 0
-20 7 -20 30 0 23 4 30 20 30 16 0 20 -7 20 -30z"/>
<path d="M3093 910 c0 -25 2 -35 4 -22 2 12 2 32 0 45 -2 12 -4 2 -4 -23z"/>
<path d="M2281 864 c0 -11 3 -14 6 -6 3 7 2 16 -1 19 -3 4 -6 -2 -5 -13z"/>
<path d="M710 750 c0 -48 1 -50 28 -50 35 0 52 16 52 50 0 34 -17 50 -52 50
-27 0 -28 -2 -28 -50z m65 0 c0 -31 -3 -35 -27 -38 -27 -3 -28 -1 -28 38 0 39
1 41 28 38 24 -3 27 -7 27 -38z"/>
<path d="M903 788 c-5 -7 -6 -31 -2 -53 l6 -40 2 38 c1 45 19 49 23 5 3 -34
30 -50 50 -30 6 6 0 8 -16 5 -19 -4 -26 -1 -26 11 0 11 9 16 26 16 35 0 29 34
-6 37 -58 3 -56 2 -40 13 8 5 10 10 4 10 -6 0 -16 -6 -21 -12z m77 -28 c0 -5
-9 -10 -20 -10 -11 0 -20 5 -20 10 0 6 9 10 20 10 11 0 20 -4 20 -10z"/>
<path d="M1150 787 c0 -8 -10 -13 -22 -13 -20 1 -23 -4 -23 -34 0 -31 3 -35
28 -36 26 -1 27 1 27 47 0 27 -2 49 -5 49 -3 0 -5 -6 -5 -13z m-5 -47 c0 -16
-6 -26 -17 -28 -14 -3 -18 3 -18 28 0 25 4 31 18 28 11 -2 17 -12 17 -28z"/>
<path d="M1317 794 c-15 -16 -5 -36 23 -45 36 -13 40 -39 6 -39 -13 0 -27 5
-29 10 -3 6 -4 5 -3 -2 2 -7 16 -13 32 -13 22 0 30 5 32 22 2 17 -3 23 -27 28
-37 8 -42 35 -7 35 13 0 27 -5 29 -10 3 -6 4 -5 3 2 -3 14 -48 23 -59 12z"/>
<path d="M1493 750 c0 -30 2 -43 4 -27 2 15 2 39 0 55 -2 15 -4 2 -4 -28z"/>
<path d="M1679 791 c-3 -7 -3 -29 -1 -50 4 -37 5 -39 43 -39 21 0 41 3 43 7 3
5 -6 6 -19 3 -18 -3 -25 0 -25 12 0 11 9 16 26 16 19 0 25 4 22 18 -2 12 -13
17 -37 18 -18 1 -36 7 -41 14 -6 9 -9 9 -11 1z m31 -51 c0 -16 -4 -30 -10 -30
-5 0 -10 14 -10 30 0 17 5 30 10 30 6 0 10 -13 10 -30z m50 20 c0 -5 -9 -10
-20 -10 -11 0 -20 5 -20 10 0 6 9 10 20 10 11 0 20 -4 20 -10z"/>
<path d="M1850 787 c0 -8 -10 -13 -22 -13 -20 1 -23 -4 -23 -34 0 -31 3 -35
28 -36 26 -1 27 1 27 47 0 27 -2 49 -5 49 -3 0 -5 -6 -5 -13z m-5 -47 c0 -16
-6 -26 -17 -28 -14 -3 -18 3 -18 28 0 25 4 31 18 28 11 -2 17 -12 17 -28z"/>
<path d="M1890 781 c-15 -29 -12 -74 6 -97 15 -18 15 -18 5 3 -14 28 -14 69
-1 94 6 10 8 19 6 19 -3 0 -10 -9 -16 -19z"/>
<path d="M1980 787 c0 -8 -10 -13 -22 -13 -20 1 -23 -4 -23 -34 0 -31 3 -35
28 -36 26 -1 27 1 27 47 0 27 -2 49 -5 49 -3 0 -5 -6 -5 -13z m-5 -47 c0 -16
-6 -26 -17 -28 -14 -3 -18 3 -18 28 0 25 4 31 18 28 11 -2 17 -12 17 -28z"/>
<path d="M2093 788 c-5 -7 -6 -31 -2 -53 l6 -40 2 38 c0 22 6 37 14 37 9 0 8
3 -2 9 -11 7 -11 9 0 14 8 3 9 6 3 6 -6 1 -16 -5 -21 -11z"/>
<path d="M2340 787 c0 -8 -10 -13 -22 -13 -20 1 -23 -4 -23 -34 0 -31 3 -35
28 -36 26 -1 27 1 27 47 0 27 -2 49 -5 49 -3 0 -5 -6 -5 -13z m-5 -47 c0 -16
-6 -26 -17 -28 -14 -3 -18 3 -18 28 0 25 4 31 18 28 11 -2 17 -12 17 -28z"/>
<path d="M2600 750 c0 -48 1 -50 28 -50 35 0 52 16 52 50 0 34 -17 50 -52 50
-27 0 -28 -2 -28 -50z m65 0 c0 -31 -3 -35 -27 -38 -27 -3 -28 -1 -28 38 0 39
1 41 28 38 24 -3 27 -7 27 -38z"/>
<path d="M2793 788 c-5 -7 -6 -31 -2 -53 l6 -40 2 38 c0 22 6 37 14 37 9 0 8
3 -2 9 -11 7 -11 9 0 14 8 3 9 6 3 6 -6 1 -16 -5 -21 -11z"/>
<path d="M3040 787 c0 -8 -10 -13 -22 -13 -20 1 -23 -4 -23 -34 0 -31 3 -35
28 -36 26 -1 27 1 27 47 0 27 -2 49 -5 49 -3 0 -5 -6 -5 -13z m-5 -47 c0 -16
-6 -26 -17 -28 -14 -3 -18 3 -18 28 0 25 4 31 18 28 11 -2 17 -12 17 -28z"/>
<path d="M3212 793 c12 -3 18 -18 21 -51 l3 -47 2 47 c2 35 6 48 20 51 9 3 -1
5 -23 5 -22 0 -32 -2 -23 -5z"/>
<path d="M3529 783 c6 -12 11 -34 11 -48 0 -14 -5 -36 -11 -48 -10 -21 -10
-21 5 -3 9 11 16 34 16 51 0 17 -7 40 -16 51 -15 18 -15 18 -5 -3z"/>
<path d="M3910 787 c0 -8 -10 -13 -22 -13 -20 1 -23 -4 -23 -34 0 -31 3 -35
28 -36 26 -1 27 1 27 47 0 27 -2 49 -5 49 -3 0 -5 -6 -5 -13z m-5 -47 c0 -16
-6 -26 -17 -28 -14 -3 -18 3 -18 28 0 25 4 31 18 28 11 -2 17 -12 17 -28z"/>
<path d="M461 768 c0 -9 -9 -19 -18 -21 -16 -4 -16 -5 -1 -6 9 0 19 -9 21 -18
4 -16 5 -16 6 -1 0 9 9 19 19 21 15 4 15 5 0 6 -9 0 -19 9 -21 19 -4 15 -5 15
-6 0z"/>
<path d="M544 766 c-3 -8 -4 -25 -2 -38 2 -17 9 -23 28 -23 22 0 25 4 25 35 0
29 -4 36 -23 38 -13 2 -24 -3 -28 -12z m46 -26 c0 -23 -4 -30 -20 -30 -16 0
-20 7 -20 30 0 23 4 30 20 30 16 0 20 -7 20 -30z"/>
<path d="M631 736 l2 -41 6 35 c8 48 38 54 44 8 l4 -33 -1 35 c-1 31 -4 35
-28 36 -26 1 -28 -1 -27 -40z"/>
<path d="M824 766 c-16 -41 20 -86 48 -58 6 6 0 8 -16 5 -19 -4 -26 -1 -26 11
0 11 9 16 26 16 19 0 25 5 22 18 -4 22 -46 29 -54 8z m46 -6 c0 -5 -9 -10 -20
-10 -11 0 -20 5 -20 10 0 6 9 10 20 10 11 0 20 -4 20 -10z"/>
<path d="M1021 736 l2 -41 6 35 c8 48 38 54 44 8 l4 -33 -1 35 c-1 31 -4 35
-28 36 -26 1 -28 -1 -27 -40z"/>
<path d="M1184 766 c-16 -41 20 -86 48 -58 6 6 0 8 -16 5 -19 -4 -26 -1 -26
11 0 11 9 16 26 16 19 0 25 5 22 18 -4 22 -46 29 -54 8z m46 -6 c0 -5 -9 -10
-20 -10 -11 0 -20 5 -20 10 0 6 9 10 20 10 11 0 20 -4 20 -10z"/>
<path d="M1261 735 c2 -33 3 -35 6 -10 2 17 11 35 20 42 13 10 13 12 -6 10
-18 -1 -21 -7 -20 -42z"/>
<path d="M1414 766 c-16 -41 20 -86 48 -58 6 6 0 8 -16 5 -19 -4 -26 -1 -26
11 0 11 9 16 26 16 19 0 25 5 22 18 -4 22 -46 29 -54 8z m46 -6 c0 -5 -9 -10
-20 -10 -11 0 -20 5 -20 10 0 6 9 10 20 10 11 0 20 -4 20 -10z"/>
<path d="M1524 766 c-16 -41 20 -86 48 -58 6 6 0 8 -16 5 -19 -4 -26 -1 -26
11 0 11 9 16 26 16 19 0 25 5 22 18 -4 22 -46 29 -54 8z m46 -6 c0 -5 -9 -10
-20 -10 -11 0 -20 5 -20 10 0 6 9 10 20 10 11 0 20 -4 20 -10z"/>
<path d="M1617 773 c-4 -3 -7 -19 -7 -35 0 -31 24 -48 42 -30 8 8 5 9 -11 5
-18 -5 -21 -1 -21 27 0 27 3 32 20 27 11 -3 18 -1 14 4 -6 11 -28 12 -37 2z"/>
<path d="M2014 766 c-16 -41 20 -86 48 -58 6 6 0 8 -16 5 -19 -4 -26 -1 -26
11 0 11 9 16 26 16 19 0 25 5 22 18 -4 22 -46 29 -54 8z m46 -6 c0 -5 -9 -10
-20 -10 -11 0 -20 5 -20 10 0 6 9 10 20 10 11 0 20 -4 20 -10z"/>
<path d="M2134 766 c-16 -41 20 -86 48 -58 6 6 0 8 -16 5 -19 -4 -26 -1 -26
11 0 11 9 16 26 16 19 0 25 5 22 18 -4 22 -46 29 -54 8z m46 -6 c0 -5 -9 -10
-20 -10 -11 0 -20 5 -20 10 0 6 9 10 20 10 11 0 20 -4 20 -10z"/>
<path d="M2211 736 l2 -41 6 35 c8 48 38 54 44 8 l4 -33 -1 35 c-1 31 -4 35
-28 36 -26 1 -28 -1 -27 -40z"/>
<path d="M2374 766 c-16 -41 20 -86 48 -58 6 6 0 8 -16 5 -19 -4 -26 -1 -26
11 0 11 9 16 26 16 19 0 25 5 22 18 -4 22 -46 29 -54 8z m46 -6 c0 -5 -9 -10
-20 -10 -11 0 -20 5 -20 10 0 6 9 10 20 10 11 0 20 -4 20 -10z"/>
<path d="M2451 735 c2 -33 3 -35 6 -10 2 17 11 35 20 42 13 10 13 12 -6 10
-18 -1 -21 -7 -20 -42z"/>
<path d="M2714 766 c-16 -41 20 -86 48 -58 6 6 0 8 -16 5 -19 -4 -26 -1 -26
11 0 11 9 16 26 16 19 0 25 5 22 18 -4 22 -46 29 -54 8z m46 -6 c0 -5 -9 -10
-20 -10 -11 0 -20 5 -20 10 0 6 9 10 20 10 11 0 20 -4 20 -10z"/>
<path d="M2834 766 c-16 -41 20 -86 48 -58 6 6 0 8 -16 5 -19 -4 -26 -1 -26
11 0 11 9 16 26 16 19 0 25 5 22 18 -4 22 -46 29 -54 8z m46 -6 c0 -5 -9 -10
-20 -10 -11 0 -20 5 -20 10 0 6 9 10 20 10 11 0 20 -4 20 -10z"/>
<path d="M2911 736 l2 -41 6 35 c8 48 38 54 44 8 l4 -33 -1 35 c-1 31 -4 35
-28 36 -26 1 -28 -1 -27 -40z"/>
<path d="M3074 766 c-16 -41 20 -86 48 -58 6 6 0 8 -16 5 -19 -4 -26 -1 -26
11 0 11 9 16 26 16 19 0 25 5 22 18 -4 22 -46 29 -54 8z m46 -6 c0 -5 -9 -10
-20 -10 -11 0 -20 5 -20 10 0 6 9 10 20 10 11 0 20 -4 20 -10z"/>
<path d="M3161 735 c2 -33 3 -35 6 -10 2 17 11 35 20 42 13 10 13 12 -6 10
-18 -1 -21 -7 -20 -42z"/>
<path d="M3286 765 c3 -11 11 -33 16 -49 8 -22 8 -30 -3 -38 -12 -8 -12 -9 0
-6 13 4 55 98 47 106 -2 2 -10 -12 -17 -32 l-13 -35 -18 37 c-10 20 -16 28
-12 17z"/>
<path d="M3361 721 c1 -32 4 -48 7 -36 4 11 16 20 27 20 16 0 20 7 20 35 0 31
-3 35 -27 36 -27 1 -28 0 -27 -55z m49 19 c0 -20 -5 -30 -15 -30 -18 0 -30 24
-21 45 10 28 36 17 36 -15z"/>
<path d="M3444 766 c-16 -41 20 -86 48 -58 6 6 0 8 -16 5 -19 -4 -26 -1 -26
11 0 11 9 16 26 16 19 0 25 5 22 18 -4 22 -46 29 -54 8z m46 -6 c0 -5 -9 -10
-20 -10 -11 0 -20 5 -20 10 0 6 9 10 20 10 11 0 20 -4 20 -10z"/>
<path d="M3671 775 c0 -5 8 -25 17 -43 l18 -33 17 37 c10 20 16 38 14 41 -2 2
-10 -11 -17 -28 l-13 -31 -18 33 c-10 19 -18 30 -18 24z"/>
<path d="M3754 766 c-3 -8 -4 -25 -2 -38 2 -17 9 -23 28 -23 22 0 25 4 25 35
0 29 -4 36 -23 38 -13 2 -24 -3 -28 -12z m46 -26 c0 -23 -4 -30 -20 -30 -16 0
-20 7 -20 30 0 23 4 30 20 30 16 0 20 -7 20 -30z"/>
<path d="M3833 740 c0 -25 2 -35 4 -22 2 12 2 32 0 45 -2 12 -4 2 -4 -23z"/>
<path d="M717 614 c-15 -16 -5 -36 23 -45 36 -13 40 -39 6 -39 -13 0 -27 5
-29 10 -3 6 -4 5 -3 -2 2 -7 16 -13 32 -13 22 0 30 5 32 22 2 17 -3 23 -27 28
-37 8 -42 35 -7 35 13 0 27 -5 29 -10 3 -6 4 -5 3 2 -3 14 -48 23 -59 12z"/>
<path d="M798 609 c-2 -6 -2 -28 0 -50 3 -28 9 -39 21 -38 10 0 11 2 4 6 -15
5 -18 60 -4 65 5 2 3 8 -4 15 -9 8 -15 9 -17 2z"/>
<path d="M969 611 c-3 -7 -14 -13 -27 -14 -19 -1 -22 -7 -21 -42 l2 -40 6 35
c9 50 41 55 41 6 0 -28 4 -36 18 -35 10 0 12 3 5 6 -14 5 -18 63 -4 63 4 0 15
-17 23 -37 l15 -38 16 50 c8 28 16 41 17 30 0 -11 7 -33 14 -50 l12 -30 17 49
c9 27 15 51 13 54 -3 2 -10 -15 -18 -39 l-13 -43 -10 37 c-14 48 -26 48 -40 0
l-10 -37 -14 44 c-8 25 -16 39 -19 31 -3 -10 -6 -10 -12 -1 -6 9 -9 9 -11 1z"/>
<path d="M1382 608 c-7 -7 -12 -24 -12 -38 0 -47 43 -67 71 -33 13 15 12 15
-7 3 -31 -19 -54 -6 -54 30 0 36 23 49 54 30 19 -12 20 -12 7 3 -16 20 -42 22
-59 5z"/>
<path d="M1483 570 c0 -30 2 -43 4 -27 2 15 2 39 0 55 -2 15 -4 2 -4 -28z"/>
<path d="M1622 570 c-1 -46 1 -51 9 -30 l10 25 21 -25 20 -25 -15 26 c-14 24
-14 28 1 45 9 10 5 8 -10 -5 l-27 -23 -4 33 c-2 22 -4 15 -5 -21z"/>
<path d="M1820 607 c0 -8 -10 -13 -22 -13 -20 1 -23 -4 -23 -34 0 -31 3 -35
28 -36 26 -1 27 1 27 47 0 27 -2 49 -5 49 -3 0 -5 -6 -5 -13z m-5 -47 c0 -16
-6 -26 -17 -28 -14 -3 -18 3 -18 28 0 25 4 31 18 28 11 -2 17 -12 17 -28z"/>
<path d="M1870 601 c-15 -29 -12 -74 6 -97 15 -18 15 -18 5 3 -14 28 -14 69
-1 94 6 10 8 19 6 19 -3 0 -10 -9 -16 -19z"/>
<path d="M1909 603 c6 -12 11 -34 11 -48 0 -14 -5 -36 -11 -48 -10 -21 -10
-21 5 -3 9 11 16 34 16 51 0 17 -7 40 -16 51 -15 18 -15 18 -5 -3z"/>
<path d="M2290 607 c0 -8 -10 -13 -22 -13 -20 1 -23 -4 -23 -34 0 -31 3 -35
28 -36 26 -1 27 1 27 47 0 27 -2 49 -5 49 -3 0 -5 -6 -5 -13z m-5 -47 c0 -16
-6 -26 -17 -28 -14 -3 -18 3 -18 28 0 25 4 31 18 28 11 -2 17 -12 17 -28z"/>
<path d="M461 588 c0 -9 -9 -19 -18 -21 -16 -4 -16 -5 -1 -6 9 0 19 -9 21 -18
4 -16 5 -16 6 -1 0 9 9 19 19 21 15 4 15 5 0 6 -9 0 -19 9 -21 19 -4 15 -5 15
-6 0z"/>
<path d="M544 586 c-3 -8 -4 -25 -2 -38 2 -17 9 -23 28 -23 22 0 25 4 25 35 0
29 -4 36 -23 38 -13 2 -24 -3 -28 -12z m46 -26 c0 -23 -4 -30 -20 -30 -16 0
-20 7 -20 30 0 23 4 30 20 30 16 0 20 -7 20 -30z"/>
<path d="M631 556 l2 -41 6 35 c8 48 38 54 44 8 l4 -33 -1 35 c-1 31 -4 35
-28 36 -26 1 -28 -1 -27 -40z"/>
<path d="M846 592 c-3 -5 6 -7 19 -4 31 6 33 -10 3 -23 -33 -14 -29 -40 5 -41
26 -1 28 1 25 35 -2 28 -8 37 -25 39 -11 2 -24 -1 -27 -6z m44 -42 c0 -12 -28
-25 -36 -17 -9 9 6 27 22 27 8 0 14 -5 14 -10z"/>
<path d="M1136 592 c-3 -5 6 -7 19 -4 31 6 33 -10 3 -23 -33 -14 -29 -40 5
-41 26 -1 28 1 25 35 -2 28 -8 37 -25 39 -11 2 -24 -1 -27 -6z m44 -42 c0 -12
-28 -25 -36 -17 -9 9 6 27 22 27 8 0 14 -5 14 -10z"/>
<path d="M1211 595 c0 -5 8 -25 17 -43 l18 -33 17 37 c10 20 16 38 14 41 -2 2
-10 -11 -17 -28 l-13 -31 -18 33 c-10 19 -18 30 -18 24z"/>
<path d="M1294 586 c-16 -41 20 -86 48 -58 6 6 0 8 -16 5 -19 -4 -26 -1 -26
11 0 11 9 16 26 16 19 0 25 5 22 18 -4 22 -46 29 -54 8z m46 -6 c0 -5 -9 -10
-20 -10 -11 0 -20 5 -20 10 0 6 9 10 20 10 11 0 20 -4 20 -10z"/>
<path d="M1513 560 c0 -25 2 -35 4 -22 2 12 2 32 0 45 -2 12 -4 2 -4 -23z"/>
<path d="M1557 593 c-4 -3 -7 -19 -7 -35 0 -31 24 -48 42 -30 8 8 5 9 -11 5
-18 -5 -21 -1 -21 27 0 27 3 32 20 27 11 -3 18 -1 14 4 -6 11 -28 12 -37 2z"/>
<path d="M1694 586 c-16 -41 20 -86 48 -58 6 6 0 8 -16 5 -19 -4 -26 -1 -26
11 0 11 9 16 26 16 19 0 25 5 22 18 -4 22 -46 29 -54 8z m46 -6 c0 -5 -9 -10
-20 -10 -11 0 -20 5 -20 10 0 6 9 10 20 10 11 0 20 -4 20 -10z"/>
<path d="M2051 595 c0 -5 8 -25 17 -43 l18 -33 17 37 c10 20 16 38 14 41 -2 2
-10 -11 -17 -28 l-13 -31 -18 33 c-10 19 -18 30 -18 24z"/>
<path d="M2134 586 c-3 -8 -4 -25 -2 -38 2 -17 9 -23 28 -23 22 0 25 4 25 35
0 29 -4 36 -23 38 -13 2 -24 -3 -28 -12z m46 -26 c0 -23 -4 -30 -20 -30 -16 0
-20 7 -20 30 0 23 4 30 20 30 16 0 20 -7 20 -30z"/>
<path d="M2213 560 c0 -25 2 -35 4 -22 2 12 2 32 0 45 -2 12 -4 2 -4 -23z"/>
<path d="M711 388 c1 -29 4 -43 6 -30 2 12 9 22 16 22 6 0 22 -10 36 -22 24
-21 24 -21 8 -2 -16 19 -16 22 -2 28 10 3 15 15 13 28 -2 19 -10 24 -40 26
l-38 3 1 -53z m69 22 c0 -16 -7 -20 -30 -20 -23 0 -30 4 -30 20 0 16 7 20 30
20 23 0 30 -4 30 -20z"/>
<path d="M1048 429 c-2 -6 -2 -28 0 -50 3 -28 9 -39 21 -38 10 0 11 2 4 6 -15
5 -18 60 -4 65 5 2 3 8 -4 15 -9 8 -15 9 -17 2z"/>
<path d="M1102 428 c-15 -15 -15 -61 0 -76 15 -15 51 -15 66 0 19 19 14 38
-10 37 -18 -1 -19 -2 -5 -6 28 -7 14 -28 -19 -28 -26 0 -29 3 -29 35 0 29 4
36 23 38 13 2 31 -2 40 -10 15 -12 16 -11 3 5 -16 20 -51 23 -69 5z"/>
<path d="M1492 428 c-7 -7 -12 -24 -12 -38 0 -47 43 -67 71 -33 13 15 12 15
-7 3 -31 -19 -54 -6 -54 30 0 36 23 49 54 30 19 -12 20 -12 7 3 -16 20 -42 22
-59 5z"/>
<path d="M1583 390 c0 -30 2 -43 4 -27 2 15 2 39 0 55 -2 15 -4 2 -4 -28z"/>
<path d="M1732 390 c-1 -46 1 -51 9 -30 l10 25 21 -25 20 -25 -15 26 c-14 24
-14 28 1 45 9 10 5 8 -10 -5 l-27 -23 -4 33 c-2 22 -4 15 -5 -21z"/>
<path d="M1930 427 c0 -8 -10 -13 -22 -13 -20 1 -23 -4 -23 -34 0 -31 3 -35
28 -36 26 -1 27 1 27 47 0 27 -2 49 -5 49 -3 0 -5 -6 -5 -13z m-5 -47 c0 -16
-6 -26 -17 -28 -14 -3 -18 3 -18 28 0 25 4 31 18 28 11 -2 17 -12 17 -28z"/>
<path d="M1970 421 c-15 -29 -12 -74 6 -97 15 -18 15 -18 5 3 -14 28 -14 69
-1 94 6 10 8 19 6 19 -3 0 -10 -9 -16 -19z"/>
<path d="M2019 423 c6 -12 11 -34 11 -48 0 -14 -5 -36 -11 -48 -10 -21 -10
-21 5 -3 9 11 16 34 16 51 0 17 -7 40 -16 51 -15 18 -15 18 -5 -3z"/>
<path d="M2400 427 c0 -8 -10 -13 -22 -13 -20 1 -23 -4 -23 -34 0 -31 3 -35
28 -36 26 -1 27 1 27 47 0 27 -2 49 -5 49 -3 0 -5 -6 -5 -13z m-5 -47 c0 -16
-6 -26 -17 -28 -14 -3 -18 3 -18 28 0 25 4 31 18 28 11 -2 17 -12 17 -28z"/>
<path d="M461 408 c0 -9 -9 -19 -18 -21 -16 -4 -16 -5 -1 -6 9 0 19 -9 21 -18
4 -16 5 -16 6 -1 0 9 9 19 19 21 15 4 15 5 0 6 -9 0 -19 9 -21 19 -4 15 -5 15
-6 0z"/>
<path d="M544 406 c-3 -8 -4 -25 -2 -38 2 -17 9 -23 28 -23 22 0 25 4 25 35 0
29 -4 36 -23 38 -13 2 -24 -3 -28 -12z m46 -26 c0 -23 -4 -30 -20 -30 -16 0
-20 7 -20 30 0 23 4 30 20 30 16 0 20 -7 20 -30z"/>
<path d="M631 376 l2 -41 6 35 c8 48 38 54 44 8 l4 -33 -1 35 c-1 31 -4 35
-28 36 -26 1 -28 -1 -27 -40z"/>
<path d="M824 406 c-16 -41 20 -86 48 -58 6 6 0 8 -16 5 -19 -4 -26 -1 -26 11
0 11 9 16 26 16 19 0 25 5 22 18 -4 22 -46 29 -54 8z m46 -6 c0 -5 -9 -10 -20
-10 -11 0 -20 5 -20 10 0 6 9 10 20 10 11 0 20 -4 20 -10z"/>
<path d="M905 410 c-8 -14 3 -30 21 -30 8 0 14 -7 14 -16 0 -12 -6 -15 -21
-11 -16 4 -19 3 -11 -5 14 -14 42 -3 42 18 0 9 -9 18 -20 21 -11 3 -20 10 -20
15 0 6 9 8 20 5 11 -3 18 -1 14 4 -7 12 -31 11 -39 -1z"/>
<path d="M974 406 c-16 -41 20 -86 48 -58 6 6 0 8 -16 5 -19 -4 -26 -1 -26 11
0 11 9 16 26 16 19 0 25 5 22 18 -4 22 -46 29 -54 8z m46 -6 c0 -5 -9 -10 -20
-10 -11 0 -20 5 -20 10 0 6 9 10 20 10 11 0 20 -4 20 -10z"/>
<path d="M1196 412 c-3 -5 6 -7 19 -4 31 6 33 -10 3 -23 -33 -14 -29 -40 5
-41 26 -1 28 1 25 35 -2 28 -8 37 -25 39 -11 2 -24 -1 -27 -6z m44 -42 c0 -12
-28 -25 -36 -17 -9 9 6 27 22 27 8 0 14 -5 14 -10z"/>
<path d="M1281 376 l2 -41 6 34 c9 49 31 52 32 4 l2 -38 6 34 c8 47 29 51 34
7 l4 -36 -1 37 c-1 38 -1 38 -43 39 l-43 0 1 -40z"/>
<path d="M1394 406 c-16 -41 20 -86 48 -58 6 6 0 8 -16 5 -19 -4 -26 -1 -26
11 0 11 9 16 26 16 19 0 25 5 22 18 -4 22 -46 29 -54 8z m46 -6 c0 -5 -9 -10
-20 -10 -11 0 -20 5 -20 10 0 6 9 10 20 10 11 0 20 -4 20 -10z"/>
<path d="M1623 380 c0 -25 2 -35 4 -22 2 12 2 32 0 45 -2 12 -4 2 -4 -23z"/>
<path d="M1657 413 c-4 -3 -7 -19 -7 -35 0 -31 24 -48 42 -30 8 8 5 9 -11 5
-18 -5 -21 -1 -21 27 0 27 3 32 20 27 11 -3 18 -1 14 4 -6 11 -28 12 -37 2z"/>
<path d="M1804 406 c-16 -41 20 -86 48 -58 6 6 0 8 -16 5 -19 -4 -26 -1 -26
11 0 11 9 16 26 16 19 0 25 5 22 18 -4 22 -46 29 -54 8z m46 -6 c0 -5 -9 -10
-20 -10 -11 0 -20 5 -20 10 0 6 9 10 20 10 11 0 20 -4 20 -10z"/>
<path d="M2151 415 c0 -5 8 -25 17 -43 l18 -33 17 37 c10 20 16 38 14 41 -2 2
-10 -11 -17 -28 l-13 -31 -18 33 c-10 19 -18 30 -18 24z"/>
<path d="M2234 406 c-3 -8 -4 -25 -2 -38 2 -17 9 -23 28 -23 22 0 25 4 25 35
0 29 -4 36 -23 38 -13 2 -24 -3 -28 -12z m46 -26 c0 -23 -4 -30 -20 -30 -16 0
-20 7 -20 30 0 23 4 30 20 30 16 0 20 -7 20 -30z"/>
<path d="M2323 380 c0 -25 2 -35 4 -22 2 12 2 32 0 45 -2 12 -4 2 -4 -23z"/>
</g>
</svg>
