<?xml version="1.0" encoding="UTF-8"?>
<!DOCTYPE svg PUBLIC "-//W3C//DTD SVG 1.1//EN" "http://www.w3.org/Graphics/SVG/1.1/DTD/svg11.dtd">
<svg xmlns="http://www.w3.org/2000/svg" version="1.1" width="1212px" height="403px" style="shape-rendering:geometricPrecision; text-rendering:geometricPrecision; image-rendering:optimizeQuality; fill-rule:evenodd; clip-rule:evenodd" xmlns:xlink="http://www.w3.org/1999/xlink">
<g><path style="opacity:1" fill="#fefefe" d="M -0.5,-0.5 C 403.5,-0.5 807.5,-0.5 1211.5,-0.5C 1211.5,133.833 1211.5,268.167 1211.5,402.5C 807.5,402.5 403.5,402.5 -0.5,402.5C -0.5,268.167 -0.5,133.833 -0.5,-0.5 Z"/></g>
<g><path style="opacity:1" fill="#000000" d="M 10.5,19.5 C 169.833,19.5 329.167,19.5 488.5,19.5C 488.5,25.5 488.5,31.5 488.5,37.5C 726.167,37.5 963.833,37.5 1201.5,37.5C 1201.5,158.833 1201.5,280.167 1201.5,401.5C 804.5,401.5 407.5,401.5 10.5,401.5C 10.5,274.167 10.5,146.833 10.5,19.5 Z"/></g>
<g><path style="opacity:1" fill="#fefffe" d="M 12.5,21.5 C 170.5,21.5 328.5,21.5 486.5,21.5C 486.5,26.8333 486.5,32.1667 486.5,37.5C 328.5,37.5 170.5,37.5 12.5,37.5C 12.5,32.1667 12.5,26.8333 12.5,21.5 Z"/></g>
<g><path style="opacity:1" fill="#fefefe" d="M 12.5,39.5 C 408.167,39.5 803.833,39.5 1199.5,39.5C 1199.5,159.5 1199.5,279.5 1199.5,399.5C 803.833,399.5 408.167,399.5 12.5,399.5C 12.5,279.5 12.5,159.5 12.5,39.5 Z"/></g>
<g><path style="opacity:1" fill="#0b0b0b" d="M 639.5,50.5 C 643.673,50.9711 644.34,52.6378 641.5,55.5C 642.309,56.9856 642.309,58.3189 641.5,59.5C 639.887,57.5395 638.887,55.2061 638.5,52.5C 638.863,51.8165 639.196,51.1499 639.5,50.5 Z"/></g>
<g><path style="opacity:1" fill="#0e0e0e" d="M 571.5,51.5 C 574.448,51.6166 577.448,51.7832 580.5,52C 581.777,54.4659 581.777,56.9659 580.5,59.5C 579.167,51.5 577.833,51.5 576.5,59.5C 575.167,51.5 573.833,51.5 572.5,59.5C 571.52,56.9135 571.187,54.2469 571.5,51.5 Z"/></g>
<g><path style="opacity:1" fill="#171717" d="M 586.5,51.5 C 589.127,51.2933 590.793,52.46 591.5,55C 589.481,60.7343 587.148,60.9009 584.5,55.5C 585.18,54.1401 585.847,52.8068 586.5,51.5 Z"/></g>
<g><path style="opacity:1" fill="#232323" d="M 603.5,51.5 C 606.833,51.5 608.5,53.1667 608.5,56.5C 602.792,56.4924 602.459,56.9924 607.5,58C 604.414,60.2438 602.414,59.4105 601.5,55.5C 602.18,54.1401 602.847,52.8068 603.5,51.5 Z"/></g>
<g><path style="opacity:1" fill="#0e0e0e" d="M 609.5,51.5 C 612.448,51.6166 615.448,51.7832 618.5,52C 619.777,54.4659 619.777,56.9659 618.5,59.5C 617.167,51.5 615.833,51.5 614.5,59.5C 613.167,51.5 611.833,51.5 610.5,59.5C 609.52,56.9135 609.187,54.2469 609.5,51.5 Z"/></g>
<g><path style="opacity:1" fill="#232323" d="M 624.5,51.5 C 627.833,51.5 629.5,53.1667 629.5,56.5C 623.792,56.4924 623.459,56.9924 628.5,58C 625.414,60.2438 623.414,59.4105 622.5,55.5C 623.18,54.1401 623.847,52.8068 624.5,51.5 Z"/></g>
<g><path style="opacity:1" fill="#060606" d="M 630.5,51.5 C 631.94,52.3629 633.274,52.3629 634.5,51.5C 637.505,53.5028 638.172,56.1695 636.5,59.5C 635.534,57.604 635.201,55.604 635.5,53.5C 634.5,53.5 633.5,53.5 632.5,53.5C 632.799,55.604 632.466,57.604 631.5,59.5C 630.52,56.9135 630.187,54.2469 630.5,51.5 Z"/></g>
<g><path style="opacity:1" fill="#222222" d="M 595.5,55.5 C 593.912,54.3647 593.579,53.0314 594.5,51.5C 595.429,52.6888 595.762,54.0222 595.5,55.5 Z"/></g>
<g><path style="opacity:1" fill="#232323" d="M 598.5,55.5 C 598.312,53.8967 598.812,52.5634 600,51.5C 600.348,53.1398 599.848,54.4732 598.5,55.5 Z"/></g>
<g><path style="opacity:1" fill="#e0e0e0" d="M 586.5,53.5 C 587.5,53.5 588.5,53.5 589.5,53.5C 589.5,54.8333 589.5,56.1667 589.5,57.5C 588.5,57.5 587.5,57.5 586.5,57.5C 586.5,56.1667 586.5,54.8333 586.5,53.5 Z"/></g>
<g><path style="opacity:1" fill="#151515" d="M 595.5,55.5 C 596.5,56.8333 597.5,56.8333 598.5,55.5C 597.5,60.8333 596.5,60.8333 595.5,55.5 Z"/></g>
<g><path style="opacity:1" fill="#000000" d="M 239.5,76.5 C 360.5,76.5 481.5,76.5 602.5,76.5C 602.5,105.833 602.5,135.167 602.5,164.5C 542.118,163.839 481.951,164.506 422,166.5C 421.333,163.833 420.667,163.833 420,166.5C 360.049,164.506 299.882,163.839 239.5,164.5C 239.5,135.167 239.5,105.833 239.5,76.5 Z"/></g>
<g><path style="opacity:1" fill="#fbfbc9" d="M 241.5,78.5 C 361.167,78.5 480.833,78.5 600.5,78.5C 600.5,93.5 600.5,108.5 600.5,123.5C 480.833,123.5 361.167,123.5 241.5,123.5C 241.5,108.5 241.5,93.5 241.5,78.5 Z"/></g>
<g><path style="opacity:1" fill="#010100" d="M 406.5,87.5 C 407.309,88.4687 408.309,89.3021 409.5,90C 406.833,92.3333 406.833,94.6667 409.5,97C 408.552,97.4828 407.552,97.6495 406.5,97.5C 406.163,93.9889 406.163,90.6556 406.5,87.5 Z"/></g>
<g><path style="opacity:1" fill="#010101" d="M 420.5,90.5 C 422.437,88.6735 424.437,88.5068 426.5,90C 424.862,92.1335 424.029,94.6335 424,97.5C 423.503,95.1902 423.337,92.8568 423.5,90.5C 422.5,90.5 421.5,90.5 420.5,90.5 Z"/></g>
<g><path style="opacity:1" fill="#010100" d="M 398.5,89.5 C 399.289,89.7828 399.956,90.2828 400.5,91C 399.736,93.0693 399.236,95.236 399,97.5C 398.503,94.854 398.336,92.1873 398.5,89.5 Z"/></g>
<g><path style="opacity:1" fill="#010100" d="M 420.5,90.5 C 419.79,92.7463 419.29,95.0796 419,97.5C 418.333,94.8333 418.333,92.1667 419,89.5C 419.383,90.056 419.883,90.3893 420.5,90.5 Z"/></g>
<g><path style="opacity:1" fill="#010100" d="M 411.5,90.5 C 411.62,91.5862 412.287,92.2528 413.5,92.5C 414.713,92.2528 415.38,91.5862 415.5,90.5C 416.404,91.209 416.737,92.209 416.5,93.5C 414.833,93.5 413.167,93.5 411.5,93.5C 410.373,95.9076 410.373,94.9076 411.5,90.5 Z"/></g>
<g><path style="opacity:1" fill="#fefecb" d="M 411.5,90.5 C 412.833,90.5 414.167,90.5 415.5,90.5C 415.38,91.5862 414.713,92.2528 413.5,92.5C 412.287,92.2528 411.62,91.5862 411.5,90.5 Z"/></g>
<g><path style="opacity:1" fill="#010101" d="M 431.5,90.5 C 432.629,92.6282 432.796,94.9615 432,97.5C 430.312,96.6753 430.145,95.6753 431.5,94.5C 430.624,93.7492 429.624,93.2492 428.5,93C 430.119,92.7645 431.119,91.9311 431.5,90.5 Z"/></g>
<g><path style="opacity:1" fill="#010101" d="M 443.5,90.5 C 443.62,91.5862 444.287,92.2528 445.5,92.5C 446.713,92.2528 447.38,91.5862 447.5,90.5C 448.404,91.209 448.737,92.209 448.5,93.5C 446.833,93.5 445.167,93.5 443.5,93.5C 442.373,95.9076 442.373,94.9076 443.5,90.5 Z"/></g>
<g><path style="opacity:1" fill="#fefecb" d="M 443.5,90.5 C 444.833,90.5 446.167,90.5 447.5,90.5C 447.38,91.5862 446.713,92.2528 445.5,92.5C 444.287,92.2528 443.62,91.5862 443.5,90.5 Z"/></g>
<g><path style="opacity:1" fill="#080807" d="M 372.5,104.5 C 373.376,104.369 374.043,104.702 374.5,105.5C 373.375,108.46 372.375,111.46 371.5,114.5C 371.167,114.333 370.833,114.167 370.5,114C 371.61,110.951 372.277,107.784 372.5,104.5 Z"/></g>
<g><path style="opacity:1" fill="#000000" d="M 378.5,107.5 C 378.722,104.924 380.055,104.09 382.5,105C 381.545,108.099 380.711,111.266 380,114.5C 379.374,112.287 379.541,110.12 380.5,108C 380.317,106.316 379.65,106.15 378.5,107.5 Z"/></g>
<g><path style="opacity:1" fill="#0d0d0a" d="M 442.5,108.5 C 443.434,107.432 443.768,106.099 443.5,104.5C 446.665,103.964 449.331,104.797 451.5,107C 450.687,108.314 449.687,109.481 448.5,110.5C 449.727,114.893 449.394,115.226 447.5,111.5C 446.311,110.571 444.978,110.238 443.5,110.5C 443.5,111.833 443.5,113.167 443.5,114.5C 441.25,114.819 439.25,114.319 437.5,113C 438.554,111.612 438.72,110.112 438,108.5C 436.983,110.376 436.149,112.376 435.5,114.5C 435.429,106.629 433.762,106.629 430.5,114.5C 430.102,111.96 430.602,109.293 432,106.5C 433.667,106.833 435.333,107.167 437,107.5C 439.429,104.775 441.262,105.108 442.5,108.5 Z"/></g>
<g><path style="opacity:1" fill="#1a1a16" d="M 385.5,106.5 C 390.723,108.919 390.723,111.586 385.5,114.5C 381.692,111.894 381.692,109.227 385.5,106.5 Z"/></g>
<g><path style="opacity:1" fill="#20201b" d="M 402.5,106.5 C 408.139,108.901 407.806,110.568 401.5,111.5C 402.651,112.731 403.817,112.731 405,111.5C 405.612,113.237 404.946,114.237 403,114.5C 398.612,112.069 398.446,109.402 402.5,106.5 Z"/></g>
<g><path style="opacity:1" fill="#0b0b08" d="M 409.5,106.5 C 410.532,109.134 410.199,111.801 408.5,114.5C 408.167,114.333 407.833,114.167 407.5,114C 408.355,111.564 409.021,109.064 409.5,106.5 Z"/></g>
<g><path style="opacity:1" fill="#171714" d="M 412.5,106.5 C 414.703,108.936 414.703,111.603 412.5,114.5C 412.486,111.805 412.486,109.138 412.5,106.5 Z"/></g>
<g><path style="opacity:1" fill="#000100" d="M 416.5,106.5 C 417.478,106.811 418.145,107.478 418.5,108.5C 417.811,110.444 417.311,112.444 417,114.5C 416.764,112.236 416.264,110.069 415.5,108C 416.056,107.617 416.389,107.117 416.5,106.5 Z"/></g>
<g><path style="opacity:1" fill="#20201b" d="M 423.5,106.5 C 429.139,108.901 428.806,110.568 422.5,111.5C 423.651,112.731 424.817,112.731 426,111.5C 426.612,113.237 425.946,114.237 424,114.5C 419.612,112.069 419.446,109.402 423.5,106.5 Z"/></g>
<g><path style="opacity:1" fill="#efefbf" d="M 444.5,106.5 C 446.288,106.215 447.955,106.548 449.5,107.5C 448.667,107.833 447.833,108.167 447,108.5C 445.624,108.316 444.791,107.649 444.5,106.5 Z"/></g>
<g><path style="opacity:1" fill="#20201b" d="M 467.5,106.5 C 473.139,108.901 472.806,110.568 466.5,111.5C 467.651,112.731 468.817,112.731 470,111.5C 470.612,113.237 469.946,114.237 468,114.5C 463.612,112.069 463.446,109.402 467.5,106.5 Z"/></g>
<g><path style="opacity:1" fill="#2c2c24" d="M 391.5,107.5 C 391.56,106.957 391.893,106.624 392.5,106.5C 393.298,108.078 393.798,109.744 394,111.5C 395.574,110.016 396.907,108.349 398,106.5C 397.69,109.689 396.19,112.355 393.5,114.5C 392.832,112.031 392.165,109.698 391.5,107.5 Z"/></g>
<g><path style="opacity:1" fill="#e7e7b9" d="M 384.5,108.5 C 385.5,108.5 386.5,108.5 387.5,108.5C 387.5,109.833 387.5,111.167 387.5,112.5C 386.5,112.5 385.5,112.5 384.5,112.5C 384.5,111.167 384.5,109.833 384.5,108.5 Z"/></g>
<g><path style="opacity:1" fill="#262620" d="M 456.5,112.5 C 456.5,112.833 456.5,113.167 456.5,113.5C 454.77,114.976 453.437,114.642 452.5,112.5C 453.041,110.465 453.708,108.465 454.5,106.5C 455.309,107.681 455.309,109.014 454.5,110.5C 454.747,111.713 455.414,112.38 456.5,112.5 Z"/></g>
<g><path style="opacity:1" fill="#1b1b17" d="M 459.5,112.5 C 458.596,111.791 458.263,110.791 458.5,109.5C 458.281,108.325 458.614,107.325 459.5,106.5C 459.833,106.833 460.167,107.167 460.5,107.5C 459.691,109.071 459.357,110.738 459.5,112.5 Z"/></g>
<g><path style="opacity:1" fill="#181714" d="M 378.5,107.5 C 378.327,110.179 377.327,112.513 375.5,114.5C 374.369,112.926 374.202,111.259 375,109.5C 375.333,110.167 375.667,110.833 376,111.5C 376.608,109.934 377.442,108.6 378.5,107.5 Z"/></g>
<g><path style="opacity:1" fill="#070706" d="M 462.5,104.5 C 463.139,105.097 463.472,105.93 463.5,107C 463,109.5 462.5,112 462,114.5C 461.612,111.151 461.779,107.817 462.5,104.5 Z"/></g>
<g><path style="opacity:1" fill="#c7c79f" d="M 442.5,108.5 C 442.66,110.199 442.494,111.866 442,113.5C 440.108,112.383 439.275,110.716 439.5,108.5C 440.5,108.5 441.5,108.5 442.5,108.5 Z"/></g>
<g><path style="opacity:1" fill="#7f7f65" d="M 458.5,109.5 C 458.263,110.791 458.596,111.791 459.5,112.5C 459.196,114.796 458.196,115.129 456.5,113.5C 456.5,113.167 456.5,112.833 456.5,112.5C 457.167,111.5 457.833,110.5 458.5,109.5 Z"/></g>
<g><path style="opacity:1" fill="#fefecb" d="M 241.5,124.5 C 361.167,124.5 480.833,124.5 600.5,124.5C 600.5,127.167 600.5,129.833 600.5,132.5C 480.833,132.5 361.167,132.5 241.5,132.5C 241.5,129.833 241.5,127.167 241.5,124.5 Z"/></g>
<g><path style="opacity:1" fill="#f1f1c1" d="M 241.5,133.5 C 361.167,133.5 480.833,133.5 600.5,133.5C 600.5,143.167 600.5,152.833 600.5,162.5C 480.833,162.5 361.167,162.5 241.5,162.5C 241.5,152.833 241.5,143.167 241.5,133.5 Z"/></g>
<g><path style="opacity:1" fill="#000000" d="M 292.5,148.5 C 291.694,147.003 291.028,145.336 290.5,143.5C 290.833,143.167 291.167,142.833 291.5,142.5C 292.466,144.396 292.799,146.396 292.5,148.5 Z"/></g>
<g><path style="opacity:1" fill="#000000" d="M 297.5,142.5 C 298.239,142.369 298.906,142.536 299.5,143C 298.736,145.069 298.236,147.236 298,149.5C 296.952,147.079 296.786,144.746 297.5,142.5 Z"/></g>
<g><path style="opacity:1" fill="#010100" d="M 398.5,148.5 C 397.694,147.003 397.028,145.336 396.5,143.5C 396.833,143.167 397.167,142.833 397.5,142.5C 398.466,144.396 398.799,146.396 398.5,148.5 Z"/></g>
<g><path style="opacity:1" fill="#010100" d="M 403.5,142.5 C 404.239,142.369 404.906,142.536 405.5,143C 404.736,145.069 404.236,147.236 404,149.5C 402.952,147.079 402.786,144.746 403.5,142.5 Z"/></g>
<g><path style="opacity:1" fill="#000000" d="M 256.5,143.5 C 257.404,144.209 257.737,145.209 257.5,146.5C 261.5,146.833 261.5,147.167 257.5,147.5C 257.167,151.5 256.833,151.5 256.5,147.5C 252.5,147.167 252.5,146.833 256.5,146.5C 256.5,145.5 256.5,144.5 256.5,143.5 Z"/></g>
<g><path style="opacity:1" fill="#000000" d="M 281.5,144.5 C 283.441,145.638 283.608,147.304 282,149.5C 281.506,147.866 281.34,146.199 281.5,144.5 Z"/></g>
<g><path style="opacity:1" fill="#000000" d="M 329.5,144.5 C 331.441,145.638 331.608,147.304 330,149.5C 329.506,147.866 329.34,146.199 329.5,144.5 Z"/></g>
<g><path style="opacity:1" fill="#11110e" d="M 365.5,149.5 C 365.298,147.011 365.798,144.677 367,142.5C 367.772,143.849 368.939,144.682 370.5,145C 367.658,145.348 365.991,146.848 365.5,149.5 Z"/></g>
<g><path style="opacity:1" fill="#11110f" d="M 431.5,149.5 C 431.298,147.011 431.798,144.677 433,142.5C 433.772,143.849 434.939,144.682 436.5,145C 433.658,145.348 431.991,146.848 431.5,149.5 Z"/></g>
<g><path style="opacity:1" fill="#010101" d="M 470.5,144.5 C 472.441,145.638 472.608,147.304 471,149.5C 470.506,147.866 470.34,146.199 470.5,144.5 Z"/></g>
<g><path style="opacity:1" fill="#020201" d="M 513.5,144.5 C 515.441,145.638 515.608,147.304 514,149.5C 513.506,147.866 513.34,146.199 513.5,144.5 Z"/></g>
<g><path style="opacity:1" fill="#12120f" d="M 545.5,149.5 C 545.298,147.011 545.798,144.677 547,142.5C 547.772,143.849 548.939,144.682 550.5,145C 547.658,145.348 545.991,146.848 545.5,149.5 Z"/></g>
<g><path style="opacity:1" fill="#030302" d="M 590.5,144.5 C 592.441,145.638 592.608,147.304 591,149.5C 590.506,147.866 590.34,146.199 590.5,144.5 Z"/></g>
<g><path style="opacity:1" fill="#000000" d="M 275.5,151.5 C 276.567,149.121 275.567,148.121 272.5,148.5C 274.518,147.953 276.351,146.953 278,145.5C 278.17,147.845 277.837,150.179 277,152.5C 276.617,151.944 276.117,151.611 275.5,151.5 Z"/></g>
<g><path style="opacity:1" fill="#000000" d="M 321.5,145.5 C 322.404,146.209 322.737,147.209 322.5,148.5C 320.5,148.5 318.5,148.5 316.5,148.5C 316.649,149.552 316.483,150.552 316,151.5C 314.623,147.529 315.623,146.196 319,147.5C 320.376,147.316 321.209,146.649 321.5,145.5 Z"/></g>
<g><path style="opacity:1" fill="#000000" d="M 333.5,145.5 C 334.239,145.369 334.906,145.536 335.5,146C 334.118,150.705 333.451,150.539 333.5,145.5 Z"/></g>
<g><path style="opacity:1" fill="#000000" d="M 359.5,151.5 C 360.567,149.121 359.567,148.121 356.5,148.5C 358.518,147.953 360.351,146.953 362,145.5C 362.17,147.845 361.837,150.179 361,152.5C 360.617,151.944 360.117,151.611 359.5,151.5 Z"/></g>
<g><path style="opacity:1" fill="#010100" d="M 381.5,145.5 C 382.404,146.209 382.737,147.209 382.5,148.5C 380.5,148.5 378.5,148.5 376.5,148.5C 376.649,149.552 376.483,150.552 376,151.5C 374.623,147.529 375.623,146.196 379,147.5C 380.376,147.316 381.209,146.649 381.5,145.5 Z"/></g>
<g><path style="opacity:1" fill="#010101" d="M 425.5,151.5 C 426.567,149.121 425.567,148.121 422.5,148.5C 424.518,147.953 426.351,146.953 428,145.5C 428.17,147.845 427.837,150.179 427,152.5C 426.617,151.944 426.117,151.611 425.5,151.5 Z"/></g>
<g><path style="opacity:1" fill="#010101" d="M 448.5,145.5 C 449.404,146.209 449.737,147.209 449.5,148.5C 447.5,148.5 445.5,148.5 443.5,148.5C 443.649,149.552 443.483,150.552 443,151.5C 441.623,147.529 442.623,146.196 446,147.5C 447.376,147.316 448.209,146.649 448.5,145.5 Z"/></g>
<g><path style="opacity:1" fill="#010101" d="M 464.5,151.5 C 465.567,149.121 464.567,148.121 461.5,148.5C 463.518,147.953 465.351,146.953 467,145.5C 467.17,147.845 466.837,150.179 466,152.5C 465.617,151.944 465.117,151.611 464.5,151.5 Z"/></g>
<g><path style="opacity:1" fill="#010101" d="M 483.5,145.5 C 484.404,146.209 484.737,147.209 484.5,148.5C 482.5,148.5 480.5,148.5 478.5,148.5C 478.649,149.552 478.483,150.552 478,151.5C 476.623,147.529 477.623,146.196 481,147.5C 482.376,147.316 483.209,146.649 483.5,145.5 Z"/></g>
<g><path style="opacity:1" fill="#010101" d="M 508.5,151.5 C 509.567,149.121 508.567,148.121 505.5,148.5C 507.518,147.953 509.351,146.953 511,145.5C 511.17,147.845 510.837,150.179 510,152.5C 509.617,151.944 509.117,151.611 508.5,151.5 Z"/></g>
<g><path style="opacity:1" fill="#010101" d="M 527.5,145.5 C 528.404,146.209 528.737,147.209 528.5,148.5C 526.5,148.5 524.5,148.5 522.5,148.5C 522.649,149.552 522.483,150.552 522,151.5C 520.623,147.529 521.623,146.196 525,147.5C 526.376,147.316 527.209,146.649 527.5,145.5 Z"/></g>
<g><path style="opacity:1" fill="#020201" d="M 579.5,145.5 C 580.404,146.209 580.737,147.209 580.5,148.5C 578.5,148.5 576.5,148.5 574.5,148.5C 574.649,149.552 574.483,150.552 574,151.5C 572.623,147.529 573.623,146.196 577,147.5C 578.376,147.316 579.209,146.649 579.5,145.5 Z"/></g>
<g><path style="opacity:1" fill="#020201" d="M 585.5,151.5 C 586.567,149.121 585.567,148.121 582.5,148.5C 584.518,147.953 586.351,146.953 588,145.5C 588.17,147.845 587.837,150.179 587,152.5C 586.617,151.944 586.117,151.611 585.5,151.5 Z"/></g>
<g><path style="opacity:1" fill="#000000" d="M 309.5,147.5 C 310.914,149.044 311.247,150.711 310.5,152.5C 309.548,150.955 309.215,149.288 309.5,147.5 Z"/></g>
<g><path style="opacity:1" fill="#000000" d="M 349.5,147.5 C 350.914,149.044 351.247,150.711 350.5,152.5C 349.548,150.955 349.215,149.288 349.5,147.5 Z"/></g>
<g><path style="opacity:1" fill="#010100" d="M 415.5,147.5 C 416.914,149.044 417.247,150.711 416.5,152.5C 415.548,150.955 415.215,149.288 415.5,147.5 Z"/></g>
<g><path style="opacity:1" fill="#fefecb" d="M 272.5,148.5 C 275.567,148.121 276.567,149.121 275.5,151.5C 274.5,151.5 273.5,151.5 272.5,151.5C 272.5,150.5 272.5,149.5 272.5,148.5 Z"/></g>
<g><path style="opacity:1" fill="#000000" d="M 292.5,148.5 C 294.852,149.543 295.019,150.876 293,152.5C 292.51,151.207 292.343,149.873 292.5,148.5 Z"/></g>
<g><path style="opacity:1" fill="#fefecb" d="M 356.5,148.5 C 359.567,148.121 360.567,149.121 359.5,151.5C 358.5,151.5 357.5,151.5 356.5,151.5C 356.5,150.5 356.5,149.5 356.5,148.5 Z"/></g>
<g><path style="opacity:1" fill="#010100" d="M 398.5,148.5 C 400.852,149.543 401.019,150.876 399,152.5C 398.51,151.207 398.343,149.873 398.5,148.5 Z"/></g>
<g><path style="opacity:1" fill="#fefecb" d="M 422.5,148.5 C 425.567,148.121 426.567,149.121 425.5,151.5C 424.5,151.5 423.5,151.5 422.5,151.5C 422.5,150.5 422.5,149.5 422.5,148.5 Z"/></g>
<g><path style="opacity:1" fill="#fefecb" d="M 461.5,148.5 C 464.567,148.121 465.567,149.121 464.5,151.5C 463.5,151.5 462.5,151.5 461.5,151.5C 461.5,150.5 461.5,149.5 461.5,148.5 Z"/></g>
<g><path style="opacity:1" fill="#fefecb" d="M 505.5,148.5 C 508.567,148.121 509.567,149.121 508.5,151.5C 507.5,151.5 506.5,151.5 505.5,151.5C 505.5,150.5 505.5,149.5 505.5,148.5 Z"/></g>
<g><path style="opacity:1" fill="#fdfdcb" d="M 582.5,148.5 C 585.567,148.121 586.567,149.121 585.5,151.5C 584.5,151.5 583.5,151.5 582.5,151.5C 582.5,150.5 582.5,149.5 582.5,148.5 Z"/></g>
<g><path style="opacity:1" fill="#000000" d="M 365.5,149.5 C 366.895,150.648 366.728,151.648 365,152.5C 364.26,151.251 364.427,150.251 365.5,149.5 Z"/></g>
<g><path style="opacity:1" fill="#010101" d="M 431.5,149.5 C 432.895,150.648 432.728,151.648 431,152.5C 430.26,151.251 430.427,150.251 431.5,149.5 Z"/></g>
<g><path style="opacity:1" fill="#000000" d="M 496.5,149.5 C 498.49,150.999 500.823,151.832 503.5,152C 501.19,152.497 498.857,152.663 496.5,152.5C 496.5,151.5 496.5,150.5 496.5,149.5 Z"/></g>
<g><path style="opacity:1" fill="#020201" d="M 545.5,149.5 C 546.895,150.648 546.728,151.648 545,152.5C 544.26,151.251 544.427,150.251 545.5,149.5 Z"/></g>
<g><path style="opacity:1" fill="#000000" d="M 413.5,174.5 C 415.723,175.702 418.223,176.369 421,176.5C 423.625,176.419 425.959,175.752 428,174.5C 428.374,175.416 428.874,176.25 429.5,177C 426.854,177.497 424.187,177.664 421.5,177.5C 421.167,182.833 420.833,182.833 420.5,177.5C 417.813,177.664 415.146,177.497 412.5,177C 413.252,176.329 413.586,175.496 413.5,174.5 Z"/></g>
<g><path style="opacity:1" fill="#000000" d="M 420.5,211.5 C 421.479,214.625 421.813,217.958 421.5,221.5C 421.167,222.833 420.833,222.833 420.5,221.5C 420.5,218.167 420.5,214.833 420.5,211.5 Z"/></g>
<g><path style="opacity:1" fill="#000000" d="M 210.5,221.5 C 216.842,221.334 223.175,221.5 229.5,222C 223.509,222.499 217.509,222.666 211.5,222.5C 211.666,228.176 211.499,233.843 211,239.5C 210.501,233.509 210.334,227.509 210.5,221.5 Z"/></g>
<g><path style="opacity:1" fill="#010101" d="M 868.5,242.5 C 973.5,242.5 1078.5,242.5 1183.5,242.5C 1183.5,289.5 1183.5,336.5 1183.5,383.5C 1078.5,383.5 973.5,383.5 868.5,383.5C 868.5,336.5 868.5,289.5 868.5,242.5 Z"/></g>
<g><path style="opacity:1" fill="#fcfcca" d="M 870.5,244.5 C 974.167,244.5 1077.83,244.5 1181.5,244.5C 1181.5,259.5 1181.5,274.5 1181.5,289.5C 1077.83,289.5 974.167,289.5 870.5,289.5C 870.5,274.5 870.5,259.5 870.5,244.5 Z"/></g>
<g><path style="opacity:1" fill="#080907" d="M 1004.5,255.5 C 1005.29,255.783 1005.96,256.283 1006.5,257C 1005.74,259.069 1005.24,261.236 1005,263.5C 1004.5,260.854 1004.34,258.187 1004.5,255.5 Z"/></g>
<g><path style="opacity:1" fill="#090907" d="M 1026.5,256.5 C 1025.79,258.746 1025.29,261.08 1025,263.5C 1024.33,260.833 1024.33,258.167 1025,255.5C 1025.38,256.056 1025.88,256.389 1026.5,256.5 Z"/></g>
<g><path style="opacity:1" fill="#060605" d="M 1012.5,253.5 C 1013.31,254.469 1014.31,255.302 1015.5,256C 1012.83,258.333 1012.83,260.667 1015.5,263C 1014.55,263.483 1013.55,263.649 1012.5,263.5C 1012.16,259.989 1012.16,256.656 1012.5,253.5 Z"/></g>
<g><path style="opacity:1" fill="#b7b793" d="M 1021.5,256.5 C 1021.38,257.586 1020.71,258.253 1019.5,258.5C 1018.29,258.253 1017.62,257.586 1017.5,256.5C 1018.83,255.167 1020.17,255.167 1021.5,256.5 Z"/></g>
<g><path style="opacity:1" fill="#080806" d="M 1026.5,256.5 C 1028.44,254.674 1030.44,254.507 1032.5,256C 1030.86,258.133 1030.03,260.633 1030,263.5C 1029.5,261.19 1029.34,258.857 1029.5,256.5C 1028.5,256.5 1027.5,256.5 1026.5,256.5 Z"/></g>
<g><path style="opacity:1" fill="#b7b793" d="M 1053.5,256.5 C 1053.38,257.586 1052.71,258.253 1051.5,258.5C 1050.29,258.253 1049.62,257.586 1049.5,256.5C 1050.83,255.167 1052.17,255.167 1053.5,256.5 Z"/></g>
<g><path style="opacity:1" fill="#4d4d40" d="M 985.5,257.5 C 986.239,257.369 986.906,257.536 987.5,258C 986.167,258.667 986.167,259.333 987.5,260C 985.023,260.368 984.356,259.535 985.5,257.5 Z"/></g>
<g><path style="opacity:1" fill="#4d4d40" d="M 993.5,257.5 C 994.239,257.369 994.906,257.536 995.5,258C 994.167,258.667 994.167,259.333 995.5,260C 993.023,260.368 992.356,259.535 993.5,257.5 Z"/></g>
<g><path style="opacity:1" fill="#040403" d="M 1017.5,256.5 C 1017.62,257.586 1018.29,258.253 1019.5,258.5C 1020.71,258.253 1021.38,257.586 1021.5,256.5C 1022.4,257.209 1022.74,258.209 1022.5,259.5C 1020.83,259.5 1019.17,259.5 1017.5,259.5C 1016.37,261.908 1016.37,260.908 1017.5,256.5 Z"/></g>
<g><path style="opacity:1" fill="#050504" d="M 1049.5,256.5 C 1049.62,257.586 1050.29,258.253 1051.5,258.5C 1052.71,258.253 1053.38,257.586 1053.5,256.5C 1054.4,257.209 1054.74,258.209 1054.5,259.5C 1052.83,259.5 1051.17,259.5 1049.5,259.5C 1048.37,261.908 1048.37,260.908 1049.5,256.5 Z"/></g>
<g><path style="opacity:1" fill="#060605" d="M 1037.5,256.5 C 1038.63,258.628 1038.8,260.961 1038,263.5C 1036.31,262.675 1036.15,261.675 1037.5,260.5C 1036.62,259.749 1035.62,259.249 1034.5,259C 1036.12,258.764 1037.12,257.931 1037.5,256.5 Z"/></g>
<g><path style="opacity:1" fill="#676754" d="M 1057.5,260.5 C 1059.98,260.747 1059.98,261.413 1057.5,262.5C 1056.54,262.03 1056.54,261.363 1057.5,260.5 Z"/></g>
<g><path style="opacity:1" fill="#676754" d="M 1065.5,260.5 C 1067.98,260.747 1067.98,261.413 1065.5,262.5C 1064.54,262.03 1064.54,261.363 1065.5,260.5 Z"/></g>
<g><path style="opacity:1" fill="#000000" d="M 210.5,269.5 C 211.479,272.625 211.813,275.958 211.5,279.5C 271.833,279.5 332.167,279.5 392.5,279.5C 392.5,302.5 392.5,325.5 392.5,348.5C 270.833,348.5 149.167,348.5 27.5,348.5C 27.5,325.5 27.5,302.5 27.5,279.5C 88.5,279.5 149.5,279.5 210.5,279.5C 210.5,276.167 210.5,272.833 210.5,269.5 Z"/></g>
<g><path style="opacity:1" fill="#000000" d="M 631.5,269.5 C 632.479,272.625 632.813,275.958 632.5,279.5C 692.167,279.5 751.833,279.5 811.5,279.5C 811.5,302.5 811.5,325.5 811.5,348.5C 690.833,348.5 570.167,348.5 449.5,348.5C 449.5,325.5 449.5,302.5 449.5,279.5C 510.167,279.5 570.833,279.5 631.5,279.5C 631.5,276.167 631.5,272.833 631.5,269.5 Z"/></g>
<g><path style="opacity:1" fill="#11110e" d="M 1038.5,272.5 C 1039.16,273.398 1039.82,274.398 1040.5,275.5C 1042.32,274.571 1043.66,275.238 1044.5,277.5C 1044.02,279.889 1042.69,281.556 1040.5,282.5C 1039.27,281.855 1037.93,281.689 1036.5,282C 1037.61,278.951 1038.28,275.784 1038.5,272.5 Z"/></g>
<g><path style="opacity:1" fill="#0c0c0a" d="M 1000.5,272.5 C 1001.38,272.369 1002.04,272.702 1002.5,273.5C 1001.37,276.46 1000.37,279.46 999.5,282.5C 999.167,282.333 998.833,282.167 998.5,282C 999.61,278.951 1000.28,275.784 1000.5,272.5 Z"/></g>
<g><path style="opacity:1" fill="#e5e5b7" d="M 1039.5,276.5 C 1040.5,276.5 1041.5,276.5 1042.5,276.5C 1042.5,277.833 1042.5,279.167 1042.5,280.5C 1041.5,280.5 1040.5,280.5 1039.5,280.5C 1039.5,279.167 1039.5,277.833 1039.5,276.5 Z"/></g>
<g><path style="opacity:1" fill="#1e1e1a" d="M 1051.5,274.5 C 1057.14,276.901 1056.81,278.568 1050.5,279.5C 1051.65,280.731 1052.82,280.731 1054,279.5C 1054.61,281.237 1053.95,282.237 1052,282.5C 1047.61,280.069 1047.45,277.402 1051.5,274.5 Z"/></g>
<g><path style="opacity:1" fill="#272620" d="M 1007.5,272.5 C 1008.55,272.351 1009.55,272.517 1010.5,273C 1009.54,276.099 1008.71,279.266 1008,282.5C 1007.67,280.5 1007.33,278.5 1007,276.5C 1006.09,278.664 1004.92,280.664 1003.5,282.5C 1002.37,280.926 1002.2,279.259 1003,277.5C 1003.33,278.167 1003.67,278.833 1004,279.5C 1005.18,277.14 1006.35,274.807 1007.5,272.5 Z"/></g>
<g><path style="opacity:1" fill="#171713" d="M 1014.5,274.5 C 1019.72,276.919 1019.72,279.586 1014.5,282.5C 1010.69,279.894 1010.69,277.227 1014.5,274.5 Z"/></g>
<g><path style="opacity:1" fill="#e5e5b7" d="M 1013.5,276.5 C 1014.5,276.5 1015.5,276.5 1016.5,276.5C 1016.5,277.833 1016.5,279.167 1016.5,280.5C 1015.5,280.5 1014.5,280.5 1013.5,280.5C 1013.5,279.167 1013.5,277.833 1013.5,276.5 Z"/></g>
<g><path style="opacity:1" fill="#1d1d19" d="M 1046.5,272.5 C 1047.53,275.777 1047.2,279.11 1045.5,282.5C 1045.17,282.167 1044.83,281.833 1044.5,281.5C 1045.64,278.601 1046.31,275.601 1046.5,272.5 Z"/></g>
<g><path style="opacity:1" fill="#171714" d="M 1030.5,274.5 C 1032.35,274.222 1033.68,274.889 1034.5,276.5C 1033.96,278.535 1033.29,280.535 1032.5,282.5C 1031.27,281.855 1029.93,281.689 1028.5,282C 1027.22,280.703 1027.38,279.536 1029,278.5C 1031.35,281.043 1032.52,280.377 1032.5,276.5C 1030.01,276.869 1029.34,276.203 1030.5,274.5 Z"/></g>
<g><path style="opacity:1" fill="#1e1d19" d="M 1019.5,275.5 C 1019.56,274.957 1019.89,274.624 1020.5,274.5C 1021.3,276.078 1021.8,277.744 1022,279.5C 1023.57,278.016 1024.91,276.349 1026,274.5C 1025.69,277.689 1024.19,280.355 1021.5,282.5C 1020.83,280.031 1020.17,277.698 1019.5,275.5 Z"/></g>
<g><path style="opacity:1" fill="#fdfdca" d="M 29.5,281.5 C 149.833,281.5 270.167,281.5 390.5,281.5C 390.5,290.167 390.5,298.833 390.5,307.5C 270.167,307.5 149.833,307.5 29.5,307.5C 29.5,298.833 29.5,290.167 29.5,281.5 Z"/></g>
<g><path style="opacity:1" fill="#fdfdca" d="M 451.5,281.5 C 570.833,281.5 690.167,281.5 809.5,281.5C 809.5,290.167 809.5,298.833 809.5,307.5C 690.167,307.5 570.833,307.5 451.5,307.5C 451.5,298.833 451.5,290.167 451.5,281.5 Z"/></g>
<g><path style="opacity:1" fill="#060604" d="M 173.5,294.5 C 173.5,295.5 173.5,296.5 173.5,297.5C 172.141,298.007 171.141,299.007 170.5,300.5C 169.167,297.167 169.167,293.833 170.5,290.5C 171.298,292.078 171.798,293.744 172,295.5C 172.383,294.944 172.883,294.611 173.5,294.5 Z"/></g>
<g><path style="opacity:1" fill="#000000" d="M 191.5,290.5 C 192.675,290.281 193.675,290.614 194.5,291.5C 193.915,294.503 193.248,297.503 192.5,300.5C 191.513,297.232 191.18,293.898 191.5,290.5 Z"/></g>
<g><path style="opacity:1" fill="#000000" d="M 199.5,290.5 C 200.5,290.5 201.5,290.5 202.5,290.5C 202.132,303.721 201.132,303.721 199.5,290.5 Z"/></g>
<g><path style="opacity:1" fill="#060605" d="M 262.5,290.5 C 265.665,289.964 268.331,290.797 270.5,293C 269.833,294.333 268.833,295.333 267.5,296C 269.616,297.171 270.282,298.671 269.5,300.5C 268.5,298.833 267.167,297.5 265.5,296.5C 264.833,297.833 264.167,299.167 263.5,300.5C 262.513,297.232 262.18,293.898 262.5,290.5 Z"/></g>
<g><path style="opacity:1" fill="#000000" d="M 281.5,290.5 C 282.777,291.694 283.444,293.36 283.5,295.5C 283.167,297.167 282.833,298.833 282.5,300.5C 281.513,297.232 281.18,293.898 281.5,290.5 Z"/></g>
<g><path style="opacity:1" fill="#000000" d="M 549.5,290.5 C 552.596,289.907 554.929,290.907 556.5,293.5C 555.579,295.756 553.912,296.756 551.5,296.5C 551.762,297.978 551.429,299.311 550.5,300.5C 549.513,297.232 549.18,293.898 549.5,290.5 Z"/></g>
<g><path style="opacity:1" fill="#010201" d="M 601.5,290.5 C 602.777,291.694 603.444,293.36 603.5,295.5C 603.167,297.167 602.833,298.833 602.5,300.5C 601.513,297.232 601.18,293.898 601.5,290.5 Z"/></g>
<g><path style="opacity:1" fill="#010101" d="M 613.5,290.5 C 614.675,290.281 615.675,290.614 616.5,291.5C 615.915,294.503 615.248,297.503 614.5,300.5C 613.513,297.232 613.18,293.898 613.5,290.5 Z"/></g>
<g><path style="opacity:1" fill="#010101" d="M 621.5,290.5 C 622.5,290.5 623.5,290.5 624.5,290.5C 624.132,303.721 623.132,303.721 621.5,290.5 Z"/></g>
<g><path style="opacity:1" fill="#070705" d="M 683.5,290.5 C 686.665,289.964 689.331,290.797 691.5,293C 690.833,294.333 689.833,295.333 688.5,296C 690.616,297.171 691.282,298.671 690.5,300.5C 689.5,298.833 688.167,297.5 686.5,296.5C 685.833,297.833 685.167,299.167 684.5,300.5C 683.513,297.232 683.18,293.898 683.5,290.5 Z"/></g>
<g><path style="opacity:1" fill="#020301" d="M 702.5,290.5 C 703.777,291.694 704.444,293.36 704.5,295.5C 704.167,297.167 703.833,298.833 703.5,300.5C 702.513,297.232 702.18,293.898 702.5,290.5 Z"/></g>
<g><path style="opacity:1" fill="#fefecb" d="M 870.5,290.5 C 974.167,290.5 1077.83,290.5 1181.5,290.5C 1181.5,293.167 1181.5,295.833 1181.5,298.5C 1077.83,298.5 974.167,298.5 870.5,298.5C 870.5,295.833 870.5,293.167 870.5,290.5 Z"/></g>
<g><path style="opacity:1" fill="#070706" d="M 143.5,291.5 C 145.205,292.535 146.872,292.535 148.5,291.5C 152.167,292.5 152.5,294.167 149.5,296.5C 150.309,297.986 150.309,299.319 149.5,300.5C 148.205,298.672 147.205,296.672 146.5,294.5C 145.319,296.135 145.319,297.802 146.5,299.5C 145.726,300.711 144.893,300.711 144,299.5C 143.058,296.729 142.892,294.062 143.5,291.5 Z"/></g>
<g><path style="opacity:1" fill="#090907" d="M 256.5,294.5 C 257.372,290.911 259.039,290.577 261.5,293.5C 260.585,294.328 259.919,295.328 259.5,296.5C 260.309,297.986 260.309,299.319 259.5,300.5C 258.016,298.718 257.016,296.718 256.5,294.5 Z"/></g>
<g><path style="opacity:1" fill="#070705" d="M 593.5,291.5 C 595.435,292.15 597.435,292.483 599.5,292.5C 599.813,295.247 599.48,297.914 598.5,300.5C 597.833,298.5 597.167,296.5 596.5,294.5C 595.9,296.576 595.567,298.576 595.5,300.5C 593.887,298.539 592.887,296.206 592.5,293.5C 592.863,292.817 593.196,292.15 593.5,291.5 Z"/></g>
<g><path style="opacity:1" fill="#0b0b08" d="M 677.5,294.5 C 678.372,290.911 680.039,290.577 682.5,293.5C 681.585,294.328 680.919,295.328 680.5,296.5C 681.309,297.986 681.309,299.319 680.5,300.5C 679.016,298.718 678.016,296.718 677.5,294.5 Z"/></g>
<g><path style="opacity:1" fill="#0f0f0c" d="M 154.5,292.5 C 158.254,293.828 159.421,296.494 158,300.5C 156.575,299.788 155.075,299.621 153.5,300C 152.216,298.703 152.383,297.536 154,296.5C 154.308,297.308 154.808,297.975 155.5,298.5C 156.429,297.311 156.762,295.978 156.5,294.5C 154.007,294.869 153.34,294.203 154.5,292.5 Z"/></g>
<g><path style="opacity:1" fill="#131310" d="M 162.5,292.5 C 164.196,292.685 165.529,293.519 166.5,295C 165.451,295.492 164.451,295.326 163.5,294.5C 162.167,295.833 162.167,297.167 163.5,298.5C 167.236,297.523 167.236,298.19 163.5,300.5C 160.019,298.211 159.685,295.544 162.5,292.5 Z"/></g>
<g><path style="opacity:1" fill="#21211c" d="M 179.5,292.5 C 182.797,292.632 184.463,294.298 184.5,297.5C 178.792,297.492 178.459,297.992 183.5,299C 180.414,301.244 178.414,300.411 177.5,296.5C 178.18,295.14 178.847,293.807 179.5,292.5 Z"/></g>
<g><path style="opacity:1" fill="#12120f" d="M 185.5,292.5 C 186.94,293.363 188.274,293.363 189.5,292.5C 189.833,292.833 190.167,293.167 190.5,293.5C 189.675,294.386 188.675,294.719 187.5,294.5C 187.799,296.604 187.466,298.604 186.5,300.5C 185.52,297.914 185.187,295.247 185.5,292.5 Z"/></g>
<g><path style="opacity:1" fill="#131310" d="M 205.5,292.5 C 208.321,292.316 209.988,293.649 210.5,296.5C 208.167,301.833 205.833,301.833 203.5,296.5C 204.18,295.14 204.847,293.807 205.5,292.5 Z"/></g>
<g><path style="opacity:1" fill="#21211c" d="M 222.5,292.5 C 225.797,292.632 227.463,294.298 227.5,297.5C 221.792,297.492 221.459,297.992 226.5,299C 223.414,301.244 221.414,300.411 220.5,296.5C 221.18,295.14 221.847,293.807 222.5,292.5 Z"/></g>
<g><path style="opacity:1" fill="#080806" d="M 234.5,294.5 C 234.114,302.398 233.114,302.398 231.5,294.5C 230.833,296.5 230.167,298.5 229.5,300.5C 228.167,297.833 228.167,295.167 229.5,292.5C 230.5,293.833 231.5,293.833 232.5,292.5C 233.182,293.243 233.849,293.909 234.5,294.5 Z"/></g>
<g><path style="opacity:1" fill="#10100d" d="M 234.5,294.5 C 235.255,292.534 236.421,292.2 238,293.5C 238.814,295.902 238.647,298.235 237.5,300.5C 237.036,298.025 236.036,296.025 234.5,294.5 Z"/></g>
<g><path style="opacity:1" fill="#21211c" d="M 243.5,292.5 C 246.797,292.632 248.463,294.298 248.5,297.5C 242.792,297.492 242.459,297.992 247.5,299C 244.414,301.244 242.414,300.411 241.5,296.5C 242.18,295.14 242.847,293.807 243.5,292.5 Z"/></g>
<g><path style="opacity:1" fill="#050403" d="M 256.5,294.5 C 255.833,302.5 255.167,302.5 254.5,294.5C 253.5,294.5 252.5,294.5 251.5,294.5C 251.799,296.604 251.466,298.604 250.5,300.5C 249.167,297.833 249.167,295.167 250.5,292.5C 252.712,291.911 254.712,292.577 256.5,294.5 Z"/></g>
<g><path style="opacity:1" fill="#f9f9c7" d="M 264.5,292.5 C 265.978,292.238 267.311,292.571 268.5,293.5C 267.833,293.833 267.167,294.167 266.5,294.5C 265.287,294.253 264.62,293.586 264.5,292.5 Z"/></g>
<g><path style="opacity:1" fill="#000000" d="M 273.5,292.5 C 275.308,293.918 275.975,295.918 275.5,298.5C 276.5,298.5 277.5,298.5 278.5,298.5C 278.201,296.396 278.534,294.396 279.5,292.5C 280.833,295.167 280.833,297.833 279.5,300.5C 274.413,300.705 272.413,298.039 273.5,292.5 Z"/></g>
<g><path style="opacity:1" fill="#21211c" d="M 286.5,292.5 C 289.797,292.632 291.463,294.298 291.5,297.5C 285.792,297.492 285.459,297.992 290.5,299C 287.414,301.244 285.414,300.411 284.5,296.5C 285.18,295.14 285.847,293.807 286.5,292.5 Z"/></g>
<g><path style="opacity:1" fill="#f6f6c4" d="M 551.5,292.5 C 552.675,292.281 553.675,292.614 554.5,293.5C 552.948,294.798 551.948,294.465 551.5,292.5 Z"/></g>
<g><path style="opacity:1" fill="#131310" d="M 558.5,292.5 C 559.94,293.363 561.274,293.363 562.5,292.5C 562.833,292.833 563.167,293.167 563.5,293.5C 562.675,294.386 561.675,294.719 560.5,294.5C 560.799,296.604 560.466,298.604 559.5,300.5C 558.52,297.914 558.187,295.247 558.5,292.5 Z"/></g>
<g><path style="opacity:1" fill="#171714" d="M 566.5,292.5 C 569.127,292.293 570.793,293.46 571.5,296C 569.481,301.734 567.148,301.901 564.5,296.5C 565.18,295.14 565.847,293.807 566.5,292.5 Z"/></g>
<g><path style="opacity:1" fill="#0e0e0b" d="M 573.5,292.5 C 574.777,293.694 575.444,295.36 575.5,297.5C 575.333,299.167 575.167,300.833 575,302.5C 574.586,302.957 574.086,303.291 573.5,303.5C 573.311,300.015 573.311,296.348 573.5,292.5 Z"/></g>
<g><path style="opacity:1" fill="#23231d" d="M 578.5,292.5 C 581.833,292.5 583.5,294.167 583.5,297.5C 577.792,297.492 577.459,297.992 582.5,299C 579.414,301.244 577.414,300.411 576.5,296.5C 577.18,295.14 577.847,293.807 578.5,292.5 Z"/></g>
<g><path style="opacity:1" fill="#141411" d="M 586.5,292.5 C 588.196,292.685 589.529,293.519 590.5,295C 589.451,295.492 588.451,295.326 587.5,294.5C 586.167,295.833 586.167,297.167 587.5,298.5C 591.236,297.523 591.236,298.19 587.5,300.5C 584.019,298.211 583.685,295.544 586.5,292.5 Z"/></g>
<g><path style="opacity:1" fill="#23231d" d="M 607.5,292.5 C 610.833,292.5 612.5,294.167 612.5,297.5C 606.792,297.492 606.459,297.992 611.5,299C 608.414,301.244 606.414,300.411 605.5,296.5C 606.18,295.14 606.847,293.807 607.5,292.5 Z"/></g>
<g><path style="opacity:1" fill="#171714" d="M 627.5,292.5 C 630.127,292.293 631.793,293.46 632.5,296C 630.481,301.734 628.148,301.901 625.5,296.5C 626.18,295.14 626.847,293.807 627.5,292.5 Z"/></g>
<g><path style="opacity:1" fill="#23231e" d="M 643.5,292.5 C 646.833,292.5 648.5,294.167 648.5,297.5C 642.792,297.492 642.459,297.992 647.5,299C 644.414,301.244 642.414,300.411 641.5,296.5C 642.18,295.14 642.847,293.807 643.5,292.5 Z"/></g>
<g><path style="opacity:1" fill="#0a0a08" d="M 655.5,294.5 C 655.114,302.398 654.114,302.398 652.5,294.5C 651.833,296.5 651.167,298.5 650.5,300.5C 649.167,297.833 649.167,295.167 650.5,292.5C 651.5,293.833 652.5,293.833 653.5,292.5C 654.182,293.243 654.849,293.909 655.5,294.5 Z"/></g>
<g><path style="opacity:1" fill="#11110e" d="M 655.5,294.5 C 656.255,292.534 657.421,292.2 659,293.5C 659.814,295.902 659.647,298.235 658.5,300.5C 658.036,298.025 657.036,296.025 655.5,294.5 Z"/></g>
<g><path style="opacity:1" fill="#23231e" d="M 664.5,292.5 C 667.833,292.5 669.5,294.167 669.5,297.5C 663.792,297.492 663.459,297.992 668.5,299C 665.414,301.244 663.414,300.411 662.5,296.5C 663.18,295.14 663.847,293.807 664.5,292.5 Z"/></g>
<g><path style="opacity:1" fill="#060605" d="M 677.5,294.5 C 676.833,302.5 676.167,302.5 675.5,294.5C 674.5,294.5 673.5,294.5 672.5,294.5C 672.799,296.604 672.466,298.604 671.5,300.5C 670.167,297.833 670.167,295.167 671.5,292.5C 673.712,291.911 675.712,292.577 677.5,294.5 Z"/></g>
<g><path style="opacity:1" fill="#f8f8c6" d="M 685.5,292.5 C 686.978,292.238 688.311,292.571 689.5,293.5C 688.833,293.833 688.167,294.167 687.5,294.5C 686.287,294.253 685.62,293.586 685.5,292.5 Z"/></g>
<g><path style="opacity:1" fill="#020201" d="M 693.5,292.5 C 695.308,293.918 695.975,295.918 695.5,298.5C 696.5,298.5 697.5,298.5 698.5,298.5C 698.201,296.396 698.534,294.396 699.5,292.5C 700.833,295.167 700.833,297.833 699.5,300.5C 694.413,300.705 692.413,298.039 693.5,292.5 Z"/></g>
<g><path style="opacity:1" fill="#23231e" d="M 707.5,292.5 C 710.833,292.5 712.5,294.167 712.5,297.5C 706.792,297.492 706.459,297.992 711.5,299C 708.414,301.244 706.414,300.411 705.5,296.5C 706.18,295.14 706.847,293.807 707.5,292.5 Z"/></g>
<g><path style="opacity:1" fill="#20201b" d="M 213.5,296.5 C 211.912,295.365 211.579,294.031 212.5,292.5C 213.429,293.689 213.762,295.022 213.5,296.5 Z"/></g>
<g><path style="opacity:1" fill="#22221d" d="M 216.5,296.5 C 216.312,294.897 216.812,293.563 218,292.5C 218.348,294.14 217.848,295.473 216.5,296.5 Z"/></g>
<g><path style="opacity:1" fill="#22221d" d="M 635.5,296.5 C 633.912,295.365 633.579,294.031 634.5,292.5C 635.429,293.689 635.762,295.022 635.5,296.5 Z"/></g>
<g><path style="opacity:1" fill="#23231d" d="M 638.5,296.5 C 638.312,294.897 638.812,293.563 640,292.5C 640.348,294.14 639.848,295.473 638.5,296.5 Z"/></g>
<g><path style="opacity:1" fill="#151512" d="M 134.5,290.5 C 135.5,290.5 136.5,290.5 137.5,290.5C 137.998,293.829 138.998,296.995 140.5,300C 140.167,300.167 139.833,300.333 139.5,300.5C 138.532,299.511 137.365,298.844 136,298.5C 134.415,299.245 132.915,299.745 131.5,300C 133.002,296.995 134.002,293.829 134.5,290.5 Z"/></g>
<g><path style="opacity:1" fill="#dadaae" d="M 135.5,292.5 C 138.459,295.271 138.126,296.271 134.5,295.5C 135.127,294.583 135.461,293.583 135.5,292.5 Z"/></g>
<g><path style="opacity:1" fill="#e2e2b4" d="M 205.5,294.5 C 206.5,294.5 207.5,294.5 208.5,294.5C 208.5,295.833 208.5,297.167 208.5,298.5C 207.5,298.5 206.5,298.5 205.5,298.5C 205.5,297.167 205.5,295.833 205.5,294.5 Z"/></g>
<g><path style="opacity:1" fill="#e1e1b3" d="M 566.5,294.5 C 567.5,294.5 568.5,294.5 569.5,294.5C 569.5,295.833 569.5,297.167 569.5,298.5C 568.5,298.5 567.5,298.5 566.5,298.5C 566.5,297.167 566.5,295.833 566.5,294.5 Z"/></g>
<g><path style="opacity:1" fill="#e0e0b3" d="M 627.5,294.5 C 628.5,294.5 629.5,294.5 630.5,294.5C 630.5,295.833 630.5,297.167 630.5,298.5C 629.5,298.5 628.5,298.5 627.5,298.5C 627.5,297.167 627.5,295.833 627.5,294.5 Z"/></g>
<g><path style="opacity:1" fill="#787861" d="M 173.5,297.5 C 173.5,296.5 173.5,295.5 173.5,294.5C 173.517,292.972 174.184,292.472 175.5,293C 174.736,295.069 174.236,297.236 174,299.5C 173.536,298.906 173.369,298.239 173.5,297.5 Z"/></g>
<g><path style="opacity:1" fill="#000000" d="M 195.5,295.5 C 196.222,295.918 196.722,296.584 197,297.5C 197.556,295.405 198.056,295.238 198.5,297C 196.908,301.225 195.908,300.725 195.5,295.5 Z"/></g>
<g><path style="opacity:1" fill="#020201" d="M 617.5,295.5 C 618.222,295.918 618.722,296.584 619,297.5C 619.556,295.405 620.056,295.238 620.5,297C 618.908,301.225 617.908,300.725 617.5,295.5 Z"/></g>
<g><path style="opacity:1" fill="#141411" d="M 213.5,296.5 C 214.5,297.833 215.5,297.833 216.5,296.5C 215.5,301.833 214.5,301.833 213.5,296.5 Z"/></g>
<g><path style="opacity:1" fill="#151512" d="M 635.5,296.5 C 636.5,297.833 637.5,297.833 638.5,296.5C 637.5,301.833 636.5,301.833 635.5,296.5 Z"/></g>
<g><path style="opacity:1" fill="#f2f2c1" d="M 870.5,299.5 C 974.167,299.5 1077.83,299.5 1181.5,299.5C 1181.5,326.833 1181.5,354.167 1181.5,381.5C 1077.83,381.5 974.167,381.5 870.5,381.5C 870.5,354.167 870.5,326.833 870.5,299.5 Z"/></g>
<g><path style="opacity:1" fill="#feffcb" d="M 29.5,308.5 C 149.833,308.5 270.167,308.5 390.5,308.5C 390.5,311.167 390.5,313.833 390.5,316.5C 270.167,316.5 149.833,316.5 29.5,316.5C 29.5,313.833 29.5,311.167 29.5,308.5 Z"/></g>
<g><path style="opacity:1" fill="#fefecb" d="M 451.5,308.5 C 570.833,308.5 690.167,308.5 809.5,308.5C 809.5,311.167 809.5,313.833 809.5,316.5C 690.167,316.5 570.833,316.5 451.5,316.5C 451.5,313.833 451.5,311.167 451.5,308.5 Z"/></g>
<g><path style="opacity:1" fill="#020201" d="M 954.5,310.5 C 952.708,310.366 951.042,310.699 949.5,311.5C 951.042,310.699 952.708,310.366 954.5,310.5 Z"/></g>
<g><path style="opacity:1" fill="#fdfdca" d="M 954.5,310.5 C 954.567,311.959 954.234,313.292 953.5,314.5C 952.167,314.5 950.833,314.5 949.5,314.5C 949.5,313.5 949.5,312.5 949.5,311.5C 951.042,310.699 952.708,310.366 954.5,310.5 Z"/></g>
<g><path style="opacity:1" fill="#040403" d="M 912.5,314.5 C 911.323,312.897 911.489,311.564 913,310.5C 914.534,311.881 914.368,313.214 912.5,314.5 Z"/></g>
<g><path style="opacity:1" fill="#070705" d="M 932.5,311.5 C 934.441,312.638 934.608,314.304 933,316.5C 932.506,314.866 932.34,313.199 932.5,311.5 Z"/></g>
<g><path style="opacity:1" fill="#080806" d="M 958.5,311.5 C 960.859,312.389 961.025,313.722 959,315.5C 958.51,314.207 958.343,312.873 958.5,311.5 Z"/></g>
<g><path style="opacity:1" fill="#080806" d="M 979.5,311.5 C 981.859,312.389 982.025,313.722 980,315.5C 979.51,314.207 979.343,312.873 979.5,311.5 Z"/></g>
<g><path style="opacity:1" fill="#696955" d="M 1008.5,309.5 C 1009.78,310.386 1009.78,311.386 1008.5,312.5C 1007.91,311.767 1007.91,310.767 1008.5,309.5 Z"/></g>
<g><path style="opacity:1" fill="#060604" d="M 1050.5,314.5 C 1049.32,312.897 1049.49,311.564 1051,310.5C 1052.53,311.881 1052.37,313.214 1050.5,314.5 Z"/></g>
<g><path style="opacity:1" fill="#61604f" d="M 899.5,312.5 C 898.167,312.833 896.833,313.167 895.5,313.5C 896.538,311.481 897.872,311.147 899.5,312.5 Z"/></g>
<g><path style="opacity:1" fill="#fdfdca" d="M 899.5,312.5 C 900.234,313.708 900.567,315.041 900.5,316.5C 899.5,316.833 898.833,317.5 898.5,318.5C 897.5,318.5 896.5,318.5 895.5,318.5C 895.5,316.833 895.5,315.167 895.5,313.5C 896.833,313.167 898.167,312.833 899.5,312.5 Z"/></g>
<g><path style="opacity:1" fill="#60604f" d="M 975.5,312.5 C 974.167,312.833 972.833,313.167 971.5,313.5C 972.538,311.481 973.872,311.147 975.5,312.5 Z"/></g>
<g><path style="opacity:1" fill="#fdfdca" d="M 975.5,312.5 C 976.234,313.708 976.567,315.041 976.5,316.5C 975.5,316.833 974.833,317.5 974.5,318.5C 973.5,318.5 972.5,318.5 971.5,318.5C 971.5,316.833 971.5,315.167 971.5,313.5C 972.833,313.167 974.167,312.833 975.5,312.5 Z"/></g>
<g><path style="opacity:1" fill="#080806" d="M 1026.5,310.5 C 1027.47,310.987 1028.47,311.487 1029.5,312C 1028.03,313.098 1027.2,314.598 1027,316.5C 1026.09,314.342 1025.92,312.342 1026.5,310.5 Z"/></g>
<g><path style="opacity:1" fill="#030303" d="M 885.5,310.5 C 886.404,311.209 886.737,312.209 886.5,313.5C 890.5,313.833 890.5,314.167 886.5,314.5C 886.167,318.5 885.833,318.5 885.5,314.5C 881.5,314.167 881.5,313.833 885.5,313.5C 885.5,312.5 885.5,311.5 885.5,310.5 Z"/></g>
<g><path style="opacity:1" fill="#070705" d="M 900.5,316.5 C 900.567,315.041 900.234,313.708 899.5,312.5C 900.117,312.389 900.617,312.056 901,311.5C 901.78,313.387 901.613,315.054 900.5,316.5 Z"/></g>
<g><path style="opacity:1" fill="#626250" d="M 954.5,310.5 C 955.124,310.917 955.457,311.584 955.5,312.5C 955.253,313.713 954.586,314.38 953.5,314.5C 954.234,313.292 954.567,311.959 954.5,310.5 Z"/></g>
<g><path style="opacity:1" fill="#080806" d="M 976.5,316.5 C 976.567,315.041 976.234,313.708 975.5,312.5C 976.117,312.389 976.617,312.056 977,311.5C 977.78,313.387 977.613,315.054 976.5,316.5 Z"/></g>
<g><path style="opacity:1" fill="#030302" d="M 908.5,312.5 C 909.404,313.209 909.737,314.209 909.5,315.5C 907.5,315.5 905.5,315.5 903.5,315.5C 903.649,316.552 903.483,317.552 903,318.5C 901.623,314.529 902.623,313.196 906,314.5C 907.376,314.316 908.209,313.649 908.5,312.5 Z"/></g>
<g><path style="opacity:1" fill="#070705" d="M 912.5,314.5 C 912.807,316.446 912.807,318.113 912.5,319.5C 911.212,317.701 911.212,316.035 912.5,314.5 Z"/></g>
<g><path style="opacity:1" fill="#030302" d="M 926.5,318.5 C 927.567,316.121 926.567,315.121 923.5,315.5C 925.518,314.953 927.351,313.953 929,312.5C 929.17,314.845 928.837,317.179 928,319.5C 927.617,318.944 927.117,318.611 926.5,318.5 Z"/></g>
<g><path style="opacity:1" fill="#030302" d="M 945.5,312.5 C 946.404,313.209 946.737,314.209 946.5,315.5C 944.5,315.5 942.5,315.5 940.5,315.5C 940.649,316.552 940.483,317.552 940,318.5C 938.623,314.529 939.623,313.196 943,314.5C 944.376,314.316 945.209,313.649 945.5,312.5 Z"/></g>
<g><path style="opacity:1" fill="#030302" d="M 949.5,311.5 C 949.5,312.5 949.5,313.5 949.5,314.5C 950.833,314.5 952.167,314.5 953.5,314.5C 952.122,315.234 950.622,315.901 949,316.5C 948.22,314.613 948.387,312.946 949.5,311.5 Z"/></g>
<g><path style="opacity:1" fill="#040403" d="M 989.5,312.5 C 990.404,313.209 990.737,314.209 990.5,315.5C 988.5,315.5 986.5,315.5 984.5,315.5C 984.649,316.552 984.483,317.552 984,318.5C 982.623,314.529 983.623,313.196 987,314.5C 988.376,314.316 989.209,313.649 989.5,312.5 Z"/></g>
<g><path style="opacity:1" fill="#040403" d="M 1044.5,318.5 C 1045.57,316.121 1044.57,315.121 1041.5,315.5C 1043.52,314.953 1045.35,313.953 1047,312.5C 1047.17,314.845 1046.84,317.179 1046,319.5C 1045.62,318.944 1045.12,318.611 1044.5,318.5 Z"/></g>
<g><path style="opacity:1" fill="#090907" d="M 1050.5,314.5 C 1050.81,316.446 1050.81,318.113 1050.5,319.5C 1049.21,317.701 1049.21,316.035 1050.5,314.5 Z"/></g>
<g><path style="opacity:1" fill="#fdfdca" d="M 923.5,315.5 C 926.567,315.121 927.567,316.121 926.5,318.5C 925.5,318.5 924.5,318.5 923.5,318.5C 923.5,317.5 923.5,316.5 923.5,315.5 Z"/></g>
<g><path style="opacity:1" fill="#fcfcca" d="M 1041.5,315.5 C 1044.57,315.121 1045.57,316.121 1044.5,318.5C 1043.5,318.5 1042.5,318.5 1041.5,318.5C 1041.5,317.5 1041.5,316.5 1041.5,315.5 Z"/></g>
<g><path style="opacity:1" fill="#f1f1c1" d="M 29.5,317.5 C 149.833,317.5 270.167,317.5 390.5,317.5C 390.5,327.167 390.5,336.833 390.5,346.5C 270.167,346.5 149.833,346.5 29.5,346.5C 29.5,336.833 29.5,327.167 29.5,317.5 Z"/></g>
<g><path style="opacity:1" fill="#f1f1c1" d="M 451.5,317.5 C 570.833,317.5 690.167,317.5 809.5,317.5C 809.5,327.167 809.5,336.833 809.5,346.5C 690.167,346.5 570.833,346.5 451.5,346.5C 451.5,336.833 451.5,327.167 451.5,317.5 Z"/></g>
<g><path style="opacity:1" fill="#070705" d="M 900.5,316.5 C 900.657,317.873 900.49,319.207 900,320.5C 899.722,319.584 899.222,318.918 898.5,318.5C 898.833,317.5 899.5,316.833 900.5,316.5 Z"/></g>
<g><path style="opacity:1" fill="#020201" d="M 914.5,316.5 C 916.49,317.999 918.823,318.832 921.5,319C 919.19,319.497 916.857,319.663 914.5,319.5C 914.5,318.5 914.5,317.5 914.5,316.5 Z"/></g>
<g><path style="opacity:1" fill="#080806" d="M 976.5,316.5 C 976.657,317.873 976.49,319.207 976,320.5C 975.722,319.584 975.222,318.918 974.5,318.5C 974.833,317.5 975.5,316.833 976.5,316.5 Z"/></g>
<g><path style="opacity:1" fill="#8c8c71" d="M 1011.5,317.5 C 1012.81,320.38 1011.81,321.88 1008.5,322C 1010.14,320.871 1011.14,319.371 1011.5,317.5 Z"/></g>
<g><path style="opacity:1" fill="#000000" d="M 77.5,326.5 C 78.4778,326.811 79.1445,327.478 79.5,328.5C 78.7695,331.109 78.2695,333.776 78,336.5C 77.5017,333.183 77.335,329.85 77.5,326.5 Z"/></g>
<g><path style="opacity:1" fill="#000000" d="M 85.5,326.5 C 86.6408,329.64 86.8075,332.973 86,336.5C 85.7305,333.776 85.2305,331.109 84.5,328.5C 84.8627,327.817 85.1961,327.15 85.5,326.5 Z"/></g>
<g><path style="opacity:1" fill="#000000" d="M 154.5,329.5 C 153.167,331.5 153.167,333.5 154.5,335.5C 153.883,335.611 153.383,335.944 153,336.5C 152.333,333.167 152.333,329.833 153,326.5C 153.232,327.737 153.732,328.737 154.5,329.5 Z"/></g>
<g><path style="opacity:1" fill="#000000" d="M 183.5,326.5 C 184.478,326.811 185.145,327.478 185.5,328.5C 184.77,331.109 184.27,333.776 184,336.5C 183.502,333.183 183.335,329.85 183.5,326.5 Z"/></g>
<g><path style="opacity:1" fill="#000000" d="M 191.5,326.5 C 192.641,329.64 192.808,332.973 192,336.5C 191.73,333.776 191.23,331.109 190.5,328.5C 190.863,327.817 191.196,327.15 191.5,326.5 Z"/></g>
<g><path style="opacity:1" fill="#000000" d="M 220.5,329.5 C 219.167,331.5 219.167,333.5 220.5,335.5C 219.883,335.611 219.383,335.944 219,336.5C 218.333,333.167 218.333,329.833 219,326.5C 219.232,327.737 219.732,328.737 220.5,329.5 Z"/></g>
<g><path style="opacity:1" fill="#000000" d="M 284.5,326.5 C 285.477,329.287 285.81,332.287 285.5,335.5C 287.527,335.338 289.527,335.505 291.5,336C 289.19,336.497 286.857,336.663 284.5,336.5C 284.5,333.167 284.5,329.833 284.5,326.5 Z"/></g>
<g><path style="opacity:1" fill="#000000" d="M 335.5,329.5 C 334.167,331.5 334.167,333.5 335.5,335.5C 334.883,335.611 334.383,335.944 334,336.5C 333.333,333.167 333.333,329.833 334,326.5C 334.232,327.737 334.732,328.737 335.5,329.5 Z"/></g>
<g><path style="opacity:1" fill="#010101" d="M 498.5,326.5 C 499.478,326.811 500.145,327.478 500.5,328.5C 499.77,331.109 499.27,333.776 499,336.5C 498.502,333.183 498.335,329.85 498.5,326.5 Z"/></g>
<g><path style="opacity:1" fill="#020201" d="M 506.5,326.5 C 507.641,329.64 507.808,332.973 507,336.5C 506.73,333.776 506.23,331.109 505.5,328.5C 505.863,327.817 506.196,327.15 506.5,326.5 Z"/></g>
<g><path style="opacity:1" fill="#030302" d="M 576.5,329.5 C 575.167,331.5 575.167,333.5 576.5,335.5C 575.883,335.611 575.383,335.944 575,336.5C 574.333,333.167 574.333,329.833 575,326.5C 575.232,327.737 575.732,328.737 576.5,329.5 Z"/></g>
<g><path style="opacity:1" fill="#030302" d="M 605.5,326.5 C 606.478,326.811 607.145,327.478 607.5,328.5C 606.77,331.109 606.27,333.776 606,336.5C 605.502,333.183 605.335,329.85 605.5,326.5 Z"/></g>
<g><path style="opacity:1" fill="#030302" d="M 613.5,326.5 C 614.641,329.64 614.808,332.973 614,336.5C 613.73,333.776 613.23,331.109 612.5,328.5C 612.863,327.817 613.196,327.15 613.5,326.5 Z"/></g>
<g><path style="opacity:1" fill="#040403" d="M 642.5,329.5 C 641.167,331.5 641.167,333.5 642.5,335.5C 641.883,335.611 641.383,335.944 641,336.5C 640.333,333.167 640.333,329.833 641,326.5C 641.232,327.737 641.732,328.737 642.5,329.5 Z"/></g>
<g><path style="opacity:1" fill="#030302" d="M 705.5,326.5 C 706.477,329.287 706.81,332.287 706.5,335.5C 708.527,335.338 710.527,335.505 712.5,336C 710.19,336.497 707.857,336.663 705.5,336.5C 705.5,333.167 705.5,329.833 705.5,326.5 Z"/></g>
<g><path style="opacity:1" fill="#040504" d="M 755.5,329.5 C 754.167,331.5 754.167,333.5 755.5,335.5C 754.883,335.611 754.383,335.944 754,336.5C 753.333,333.167 753.333,329.833 754,326.5C 754.232,327.737 754.732,328.737 755.5,329.5 Z"/></g>
<g><path style="opacity:1" fill="#020201" d="M 953.5,327.5 C 951.708,327.366 950.042,327.699 948.5,328.5C 950.042,327.699 951.708,327.366 953.5,327.5 Z"/></g>
<g><path style="opacity:1" fill="#020202" d="M 1044.5,327.5 C 1042.71,327.366 1041.04,327.699 1039.5,328.5C 1041.04,327.699 1042.71,327.366 1044.5,327.5 Z"/></g>
<g><path style="opacity:1" fill="#fdfdca" d="M 953.5,327.5 C 953.567,328.959 953.234,330.292 952.5,331.5C 951.167,331.5 949.833,331.5 948.5,331.5C 948.5,330.5 948.5,329.5 948.5,328.5C 950.042,327.699 951.708,327.366 953.5,327.5 Z"/></g>
<g><path style="opacity:1" fill="#fcfcca" d="M 1044.5,327.5 C 1044.57,328.959 1044.23,330.292 1043.5,331.5C 1042.17,331.5 1040.83,331.5 1039.5,331.5C 1039.5,330.5 1039.5,329.5 1039.5,328.5C 1041.04,327.699 1042.71,327.366 1044.5,327.5 Z"/></g>
<g><path style="opacity:1" fill="#000000" d="M 44.5,328.5 C 45.404,329.209 45.7373,330.209 45.5,331.5C 49.5,331.833 49.5,332.167 45.5,332.5C 45.1667,336.5 44.8333,336.5 44.5,332.5C 40.5,332.167 40.5,331.833 44.5,331.5C 44.5,330.5 44.5,329.5 44.5,328.5 Z"/></g>
<g><path style="opacity:1" fill="#000000" d="M 68.5,328.5 C 69.2891,328.783 69.9558,329.283 70.5,330C 69.7362,332.069 69.2362,334.236 69,336.5C 68.5026,333.854 68.3359,331.187 68.5,328.5 Z"/></g>
<g><path style="opacity:1" fill="#000000" d="M 117.5,328.5 C 118.289,328.783 118.956,329.283 119.5,330C 118.736,332.069 118.236,334.236 118,336.5C 117.503,333.854 117.336,331.187 117.5,328.5 Z"/></g>
<g><path style="opacity:1" fill="#000000" d="M 122.5,328.5 C 126.243,328.459 126.41,329.126 123,330.5C 122.667,332.5 122.333,334.5 122,336.5C 121.278,333.739 121.445,331.073 122.5,328.5 Z"/></g>
<g><path style="opacity:1" fill="#000000" d="M 257.5,328.5 C 258.289,328.783 258.956,329.283 259.5,330C 258.736,332.069 258.236,334.236 258,336.5C 257.503,333.854 257.336,331.187 257.5,328.5 Z"/></g>
<g><path style="opacity:1" fill="#000000" d="M 301.5,328.5 C 302.289,328.783 302.956,329.283 303.5,330C 302.736,332.069 302.236,334.236 302,336.5C 301.503,333.854 301.336,331.187 301.5,328.5 Z"/></g>
<g><path style="opacity:1" fill="#010100" d="M 378.5,328.5 C 379.289,328.783 379.956,329.283 380.5,330C 379.736,332.069 379.236,334.236 379,336.5C 378.503,333.854 378.336,331.187 378.5,328.5 Z"/></g>
<g><path style="opacity:1" fill="#010101" d="M 466.5,328.5 C 467.404,329.209 467.737,330.209 467.5,331.5C 471.5,331.833 471.5,332.167 467.5,332.5C 467.167,336.5 466.833,336.5 466.5,332.5C 462.5,332.167 462.5,331.833 466.5,331.5C 466.5,330.5 466.5,329.5 466.5,328.5 Z"/></g>
<g><path style="opacity:1" fill="#010101" d="M 490.5,328.5 C 491.289,328.783 491.956,329.283 492.5,330C 491.736,332.069 491.236,334.236 491,336.5C 490.503,333.854 490.336,331.187 490.5,328.5 Z"/></g>
<g><path style="opacity:1" fill="#020201" d="M 538.5,328.5 C 539.289,328.783 539.956,329.283 540.5,330C 539.736,332.069 539.236,334.236 539,336.5C 538.503,333.854 538.336,331.187 538.5,328.5 Z"/></g>
<g><path style="opacity:1" fill="#020201" d="M 543.5,328.5 C 547.243,328.459 547.41,329.126 544,330.5C 543.667,332.5 543.333,334.5 543,336.5C 542.278,333.739 542.445,331.073 543.5,328.5 Z"/></g>
<g><path style="opacity:1" fill="#040403" d="M 678.5,328.5 C 679.289,328.783 679.956,329.283 680.5,330C 679.736,332.069 679.236,334.236 679,336.5C 678.503,333.854 678.336,331.187 678.5,328.5 Z"/></g>
<g><path style="opacity:1" fill="#050504" d="M 722.5,328.5 C 723.289,328.783 723.956,329.283 724.5,330C 723.736,332.069 723.236,334.236 723,336.5C 722.503,333.854 722.336,331.187 722.5,328.5 Z"/></g>
<g><path style="opacity:1" fill="#060605" d="M 798.5,328.5 C 799.289,328.783 799.956,329.283 800.5,330C 799.736,332.069 799.236,334.236 799,336.5C 798.503,333.854 798.336,331.187 798.5,328.5 Z"/></g>
<g><path style="opacity:1" fill="#040403" d="M 910.5,331.5 C 909.323,329.897 909.489,328.564 911,327.5C 912.534,328.881 912.368,330.214 910.5,331.5 Z"/></g>
<g><path style="opacity:1" fill="#070705" d="M 930.5,328.5 C 932.441,329.638 932.608,331.304 931,333.5C 930.506,331.866 930.34,330.199 930.5,328.5 Z"/></g>
<g><path style="opacity:1" fill="#080806" d="M 956.5,328.5 C 958.859,329.389 959.025,330.722 957,332.5C 956.51,331.207 956.343,329.873 956.5,328.5 Z"/></g>
<g><path style="opacity:1" fill="#080806" d="M 978.5,328.5 C 980.859,329.389 981.025,330.722 979,332.5C 978.51,331.207 978.343,329.873 978.5,328.5 Z"/></g>
<g><path style="opacity:1" fill="#696955" d="M 1007.5,326.5 C 1008.78,327.386 1008.78,328.386 1007.5,329.5C 1006.91,328.767 1006.91,327.767 1007.5,326.5 Z"/></g>
<g><path style="opacity:1" fill="#090906" d="M 1021.5,328.5 C 1023.44,329.638 1023.61,331.304 1022,333.5C 1021.51,331.866 1021.34,330.199 1021.5,328.5 Z"/></g>
<g><path style="opacity:1" fill="#090907" d="M 1047.5,328.5 C 1049.86,329.389 1050.03,330.722 1048,332.5C 1047.51,331.207 1047.34,329.873 1047.5,328.5 Z"/></g>
<g><path style="opacity:1" fill="#0a0a08" d="M 1069.5,328.5 C 1071.86,329.389 1072.03,330.722 1070,332.5C 1069.51,331.207 1069.34,329.873 1069.5,328.5 Z"/></g>
<g><path style="opacity:1" fill="#070706" d="M 1130.5,331.5 C 1129.32,329.897 1129.49,328.564 1131,327.5C 1132.53,328.881 1132.37,330.214 1130.5,331.5 Z"/></g>
<g><path style="opacity:1" fill="#000000" d="M 65.5,329.5 C 66.6291,331.628 66.7958,333.961 66,336.5C 64.3117,335.675 64.1451,334.675 65.5,333.5C 64.624,332.749 63.624,332.249 62.5,332C 64.1193,331.764 65.1193,330.931 65.5,329.5 Z"/></g>
<g><path style="opacity:1" fill="#feffcb" d="M 89.5,329.5 C 90.8333,329.5 92.1667,329.5 93.5,329.5C 93.5,331.5 93.5,333.5 93.5,335.5C 92.1667,335.5 90.8333,335.5 89.5,335.5C 89.5,333.5 89.5,331.5 89.5,329.5 Z"/></g>
<g><path style="opacity:1" fill="#000000" d="M 105.5,329.5 C 105.62,330.586 106.287,331.253 107.5,331.5C 108.713,331.253 109.38,330.586 109.5,329.5C 110.404,330.209 110.737,331.209 110.5,332.5C 108.833,332.5 107.167,332.5 105.5,332.5C 104.373,334.908 104.373,333.908 105.5,329.5 Z"/></g>
<g><path style="opacity:1" fill="#feffcb" d="M 105.5,329.5 C 106.833,329.5 108.167,329.5 109.5,329.5C 109.38,330.586 108.713,331.253 107.5,331.5C 106.287,331.253 105.62,330.586 105.5,329.5 Z"/></g>
<g><path style="opacity:1" fill="#feffcb" d="M 130.5,329.5 C 131.833,329.5 133.167,329.5 134.5,329.5C 134.5,331.5 134.5,333.5 134.5,335.5C 133.167,335.5 131.833,335.5 130.5,335.5C 130.5,333.5 130.5,331.5 130.5,329.5 Z"/></g>
<g><path style="opacity:1" fill="#000000" d="M 149.5,329.5 C 150.629,331.628 150.796,333.961 150,336.5C 148.312,335.675 148.145,334.675 149.5,333.5C 148.624,332.749 147.624,332.249 146.5,332C 148.119,331.764 149.119,330.931 149.5,329.5 Z"/></g>
<g><path style="opacity:1" fill="#feffcb" d="M 154.5,329.5 C 155.5,329.5 156.5,329.5 157.5,329.5C 157.5,331.5 157.5,333.5 157.5,335.5C 156.5,335.5 155.5,335.5 154.5,335.5C 153.167,333.5 153.167,331.5 154.5,329.5 Z"/></g>
<g><path style="opacity:1" fill="#000000" d="M 165.5,329.5 C 165.62,330.586 166.287,331.253 167.5,331.5C 168.713,331.253 169.38,330.586 169.5,329.5C 170.404,330.209 170.737,331.209 170.5,332.5C 168.833,332.5 167.167,332.5 165.5,332.5C 164.373,334.908 164.373,333.908 165.5,329.5 Z"/></g>
<g><path style="opacity:1" fill="#feffcb" d="M 165.5,329.5 C 166.833,329.5 168.167,329.5 169.5,329.5C 169.38,330.586 168.713,331.253 167.5,331.5C 166.287,331.253 165.62,330.586 165.5,329.5 Z"/></g>
<g><path style="opacity:1" fill="#feffcb" d="M 196.5,329.5 C 197.833,329.5 199.167,329.5 200.5,329.5C 200.5,331.5 200.5,333.5 200.5,335.5C 199.167,335.5 197.833,335.5 196.5,335.5C 196.5,333.5 196.5,331.5 196.5,329.5 Z"/></g>
<g><path style="opacity:1" fill="#000000" d="M 215.5,329.5 C 216.629,331.628 216.796,333.961 216,336.5C 214.312,335.675 214.145,334.675 215.5,333.5C 214.624,332.749 213.624,332.249 212.5,332C 214.119,331.764 215.119,330.931 215.5,329.5 Z"/></g>
<g><path style="opacity:1" fill="#feffcb" d="M 220.5,329.5 C 221.5,329.5 222.5,329.5 223.5,329.5C 223.5,331.5 223.5,333.5 223.5,335.5C 222.5,335.5 221.5,335.5 220.5,335.5C 219.167,333.5 219.167,331.5 220.5,329.5 Z"/></g>
<g><path style="opacity:1" fill="#000000" d="M 231.5,329.5 C 231.62,330.586 232.287,331.253 233.5,331.5C 234.713,331.253 235.38,330.586 235.5,329.5C 236.404,330.209 236.737,331.209 236.5,332.5C 234.833,332.5 233.167,332.5 231.5,332.5C 230.373,334.908 230.373,333.908 231.5,329.5 Z"/></g>
<g><path style="opacity:1" fill="#fefecc" d="M 231.5,329.5 C 232.833,329.5 234.167,329.5 235.5,329.5C 235.38,330.586 234.713,331.253 233.5,331.5C 232.287,331.253 231.62,330.586 231.5,329.5 Z"/></g>
<g><path style="opacity:1" fill="#000000" d="M 254.5,329.5 C 255.629,331.628 255.796,333.961 255,336.5C 253.312,335.675 253.145,334.675 254.5,333.5C 253.624,332.749 252.624,332.249 251.5,332C 253.119,331.764 254.119,330.931 254.5,329.5 Z"/></g>
<g><path style="opacity:1" fill="#000000" d="M 267.5,329.5 C 267.62,330.586 268.287,331.253 269.5,331.5C 270.713,331.253 271.38,330.586 271.5,329.5C 272.404,330.209 272.737,331.209 272.5,332.5C 270.833,332.5 269.167,332.5 267.5,332.5C 266.373,334.908 266.373,333.908 267.5,329.5 Z"/></g>
<g><path style="opacity:1" fill="#fefecb" d="M 267.5,329.5 C 268.833,329.5 270.167,329.5 271.5,329.5C 271.38,330.586 270.713,331.253 269.5,331.5C 268.287,331.253 267.62,330.586 267.5,329.5 Z"/></g>
<g><path style="opacity:1" fill="#000000" d="M 298.5,329.5 C 299.629,331.628 299.796,333.961 299,336.5C 297.312,335.675 297.145,334.675 298.5,333.5C 297.624,332.749 296.624,332.249 295.5,332C 297.119,331.764 298.119,330.931 298.5,329.5 Z"/></g>
<g><path style="opacity:1" fill="#000000" d="M 310.5,329.5 C 310.62,330.586 311.287,331.253 312.5,331.5C 313.713,331.253 314.38,330.586 314.5,329.5C 315.404,330.209 315.737,331.209 315.5,332.5C 313.833,332.5 312.167,332.5 310.5,332.5C 309.373,334.908 309.373,333.908 310.5,329.5 Z"/></g>
<g><path style="opacity:1" fill="#fefecb" d="M 310.5,329.5 C 311.833,329.5 313.167,329.5 314.5,329.5C 314.38,330.586 313.713,331.253 312.5,331.5C 311.287,331.253 310.62,330.586 310.5,329.5 Z"/></g>
<g><path style="opacity:1" fill="#fefecb" d="M 335.5,329.5 C 336.5,329.5 337.5,329.5 338.5,329.5C 338.5,331.5 338.5,333.5 338.5,335.5C 337.5,335.5 336.5,335.5 335.5,335.5C 334.167,333.5 334.167,331.5 335.5,329.5 Z"/></g>
<g><path style="opacity:1" fill="#fefecb" d="M 342.5,329.5 C 343.833,329.5 345.167,329.5 346.5,329.5C 346.5,331.5 346.5,333.5 346.5,335.5C 345.167,335.5 343.833,335.5 342.5,335.5C 342.5,333.5 342.5,331.5 342.5,329.5 Z"/></g>
<g><path style="opacity:1" fill="#fefecb" d="M 350.5,329.5 C 351.833,329.5 353.167,329.5 354.5,329.5C 354.5,331.5 354.5,333.5 354.5,335.5C 353.167,335.5 351.833,335.5 350.5,335.5C 350.5,333.5 350.5,331.5 350.5,329.5 Z"/></g>
<g><path style="opacity:1" fill="#000000" d="M 362.5,329.5 C 362.62,330.586 363.287,331.253 364.5,331.5C 365.713,331.253 366.38,330.586 366.5,329.5C 367.404,330.209 367.737,331.209 367.5,332.5C 365.833,332.5 364.167,332.5 362.5,332.5C 361.373,334.908 361.373,333.908 362.5,329.5 Z"/></g>
<g><path style="opacity:1" fill="#fefecb" d="M 362.5,329.5 C 363.833,329.5 365.167,329.5 366.5,329.5C 366.38,330.586 365.713,331.253 364.5,331.5C 363.287,331.253 362.62,330.586 362.5,329.5 Z"/></g>
<g><path style="opacity:1" fill="#010100" d="M 375.5,329.5 C 376.629,331.628 376.796,333.961 376,336.5C 374.312,335.675 374.145,334.675 375.5,333.5C 374.624,332.749 373.624,332.249 372.5,332C 374.119,331.764 375.119,330.931 375.5,329.5 Z"/></g>
<g><path style="opacity:1" fill="#010101" d="M 487.5,329.5 C 488.629,331.628 488.796,333.961 488,336.5C 486.312,335.675 486.145,334.675 487.5,333.5C 486.624,332.749 485.624,332.249 484.5,332C 486.119,331.764 487.119,330.931 487.5,329.5 Z"/></g>
<g><path style="opacity:1" fill="#fefecb" d="M 511.5,329.5 C 512.833,329.5 514.167,329.5 515.5,329.5C 515.5,331.5 515.5,333.5 515.5,335.5C 514.167,335.5 512.833,335.5 511.5,335.5C 511.5,333.5 511.5,331.5 511.5,329.5 Z"/></g>
<g><path style="opacity:1" fill="#010101" d="M 526.5,329.5 C 526.62,330.586 527.287,331.253 528.5,331.5C 529.713,331.253 530.38,330.586 530.5,329.5C 531.404,330.209 531.737,331.209 531.5,332.5C 529.833,332.5 528.167,332.5 526.5,332.5C 525.373,334.908 525.373,333.908 526.5,329.5 Z"/></g>
<g><path style="opacity:1" fill="#fefecb" d="M 526.5,329.5 C 527.833,329.5 529.167,329.5 530.5,329.5C 530.38,330.586 529.713,331.253 528.5,331.5C 527.287,331.253 526.62,330.586 526.5,329.5 Z"/></g>
<g><path style="opacity:1" fill="#fefecb" d="M 551.5,329.5 C 552.833,329.5 554.167,329.5 555.5,329.5C 555.5,331.5 555.5,333.5 555.5,335.5C 554.167,335.5 552.833,335.5 551.5,335.5C 551.5,333.5 551.5,331.5 551.5,329.5 Z"/></g>
<g><path style="opacity:1" fill="#020201" d="M 571.5,329.5 C 572.629,331.628 572.796,333.961 572,336.5C 570.312,335.675 570.145,334.675 571.5,333.5C 570.624,332.749 569.624,332.249 568.5,332C 570.119,331.764 571.119,330.931 571.5,329.5 Z"/></g>
<g><path style="opacity:1" fill="#fdfdcb" d="M 576.5,329.5 C 577.5,329.5 578.5,329.5 579.5,329.5C 579.5,331.5 579.5,333.5 579.5,335.5C 578.5,335.5 577.5,335.5 576.5,335.5C 575.167,333.5 575.167,331.5 576.5,329.5 Z"/></g>
<g><path style="opacity:1" fill="#020201" d="M 587.5,329.5 C 587.62,330.586 588.287,331.253 589.5,331.5C 590.713,331.253 591.38,330.586 591.5,329.5C 592.404,330.209 592.737,331.209 592.5,332.5C 590.833,332.5 589.167,332.5 587.5,332.5C 586.373,334.908 586.373,333.908 587.5,329.5 Z"/></g>
<g><path style="opacity:1" fill="#fdfdcb" d="M 587.5,329.5 C 588.833,329.5 590.167,329.5 591.5,329.5C 591.38,330.586 590.713,331.253 589.5,331.5C 588.287,331.253 587.62,330.586 587.5,329.5 Z"/></g>
<g><path style="opacity:1" fill="#fdfdcb" d="M 617.5,329.5 C 618.833,329.5 620.167,329.5 621.5,329.5C 621.5,331.5 621.5,333.5 621.5,335.5C 620.167,335.5 618.833,335.5 617.5,335.5C 617.5,333.5 617.5,331.5 617.5,329.5 Z"/></g>
<g><path style="opacity:1" fill="#030302" d="M 637.5,329.5 C 638.629,331.628 638.796,333.961 638,336.5C 636.312,335.675 636.145,334.675 637.5,333.5C 636.624,332.749 635.624,332.249 634.5,332C 636.119,331.764 637.119,330.931 637.5,329.5 Z"/></g>
<g><path style="opacity:1" fill="#fdfdca" d="M 642.5,329.5 C 643.5,329.5 644.5,329.5 645.5,329.5C 645.5,331.5 645.5,333.5 645.5,335.5C 644.5,335.5 643.5,335.5 642.5,335.5C 641.167,333.5 641.167,331.5 642.5,329.5 Z"/></g>
<g><path style="opacity:1" fill="#030302" d="M 653.5,329.5 C 653.62,330.586 654.287,331.253 655.5,331.5C 656.713,331.253 657.38,330.586 657.5,329.5C 658.404,330.209 658.737,331.209 658.5,332.5C 656.833,332.5 655.167,332.5 653.5,332.5C 652.373,334.908 652.373,333.908 653.5,329.5 Z"/></g>
<g><path style="opacity:1" fill="#fdfdca" d="M 653.5,329.5 C 654.833,329.5 656.167,329.5 657.5,329.5C 657.38,330.586 656.713,331.253 655.5,331.5C 654.287,331.253 653.62,330.586 653.5,329.5 Z"/></g>
<g><path style="opacity:1" fill="#030302" d="M 675.5,329.5 C 676.629,331.628 676.796,333.961 676,336.5C 674.312,335.675 674.145,334.675 675.5,333.5C 674.624,332.749 673.624,332.249 672.5,332C 674.119,331.764 675.119,330.931 675.5,329.5 Z"/></g>
<g><path style="opacity:1" fill="#030302" d="M 687.5,329.5 C 687.62,330.586 688.287,331.253 689.5,331.5C 690.713,331.253 691.38,330.586 691.5,329.5C 692.404,330.209 692.737,331.209 692.5,332.5C 690.833,332.5 689.167,332.5 687.5,332.5C 686.373,334.908 686.373,333.908 687.5,329.5 Z"/></g>
<g><path style="opacity:1" fill="#fdfdca" d="M 687.5,329.5 C 688.833,329.5 690.167,329.5 691.5,329.5C 691.38,330.586 690.713,331.253 689.5,331.5C 688.287,331.253 687.62,330.586 687.5,329.5 Z"/></g>
<g><path style="opacity:1" fill="#030303" d="M 718.5,329.5 C 719.629,331.628 719.796,333.961 719,336.5C 717.312,335.675 717.145,334.675 718.5,333.5C 717.624,332.749 716.624,332.249 715.5,332C 717.119,331.764 718.119,330.931 718.5,329.5 Z"/></g>
<g><path style="opacity:1" fill="#030303" d="M 731.5,329.5 C 731.62,330.586 732.287,331.253 733.5,331.5C 734.713,331.253 735.38,330.586 735.5,329.5C 736.404,330.209 736.737,331.209 736.5,332.5C 734.833,332.5 733.167,332.5 731.5,332.5C 730.373,334.908 730.373,333.908 731.5,329.5 Z"/></g>
<g><path style="opacity:1" fill="#fdfdca" d="M 731.5,329.5 C 732.833,329.5 734.167,329.5 735.5,329.5C 735.38,330.586 734.713,331.253 733.5,331.5C 732.287,331.253 731.62,330.586 731.5,329.5 Z"/></g>
<g><path style="opacity:1" fill="#fdfdca" d="M 755.5,329.5 C 756.5,329.5 757.5,329.5 758.5,329.5C 758.5,331.5 758.5,333.5 758.5,335.5C 757.5,335.5 756.5,335.5 755.5,335.5C 754.167,333.5 754.167,331.5 755.5,329.5 Z"/></g>
<g><path style="opacity:1" fill="#fdfdca" d="M 763.5,329.5 C 764.833,329.5 766.167,329.5 767.5,329.5C 767.5,331.5 767.5,333.5 767.5,335.5C 766.167,335.5 764.833,335.5 763.5,335.5C 763.5,333.5 763.5,331.5 763.5,329.5 Z"/></g>
<g><path style="opacity:1" fill="#fdfdca" d="M 771.5,329.5 C 772.833,329.5 774.167,329.5 775.5,329.5C 775.5,331.5 775.5,333.5 775.5,335.5C 774.167,335.5 772.833,335.5 771.5,335.5C 771.5,333.5 771.5,331.5 771.5,329.5 Z"/></g>
<g><path style="opacity:1" fill="#60604f" d="M 973.5,329.5 C 972.167,329.833 970.833,330.167 969.5,330.5C 970.538,328.481 971.872,328.147 973.5,329.5 Z"/></g>
<g><path style="opacity:1" fill="#fdfdca" d="M 973.5,329.5 C 974.234,330.708 974.567,332.041 974.5,333.5C 973.5,333.833 972.833,334.5 972.5,335.5C 971.5,335.5 970.5,335.5 969.5,335.5C 969.5,333.833 969.5,332.167 969.5,330.5C 970.833,330.167 972.167,329.833 973.5,329.5 Z"/></g>
<g><path style="opacity:1" fill="#60604e" d="M 1064.5,329.5 C 1063.17,329.833 1061.83,330.167 1060.5,330.5C 1061.54,328.481 1062.87,328.147 1064.5,329.5 Z"/></g>
<g><path style="opacity:1" fill="#fcfcca" d="M 1064.5,329.5 C 1065.23,330.708 1065.57,332.041 1065.5,333.5C 1064.5,333.833 1063.83,334.5 1063.5,335.5C 1062.5,335.5 1061.5,335.5 1060.5,335.5C 1060.5,333.833 1060.5,332.167 1060.5,330.5C 1061.83,330.167 1063.17,329.833 1064.5,329.5 Z"/></g>
<g><path style="opacity:1" fill="#0a0a08" d="M 1106.5,327.5 C 1107.47,327.987 1108.47,328.487 1109.5,329C 1108.03,330.098 1107.2,331.598 1107,333.5C 1106.09,331.342 1105.92,329.342 1106.5,327.5 Z"/></g>
<g><path style="opacity:1" fill="#fbfbc9" d="M 1172.5,329.5 C 1173.23,330.708 1173.57,332.041 1173.5,333.5C 1172.5,333.833 1171.83,334.5 1171.5,335.5C 1170.5,335.5 1169.5,335.5 1168.5,335.5C 1167.89,332.031 1169.22,330.031 1172.5,329.5 Z"/></g>
<g><path style="opacity:1" fill="#030303" d="M 885.5,327.5 C 886.404,328.209 886.737,329.209 886.5,330.5C 890.5,330.833 890.5,331.167 886.5,331.5C 886.167,335.5 885.833,335.5 885.5,331.5C 881.5,331.167 881.5,330.833 885.5,330.5C 885.5,329.5 885.5,328.5 885.5,327.5 Z"/></g>
<g><path style="opacity:1" fill="#626250" d="M 953.5,327.5 C 954.124,327.917 954.457,328.584 954.5,329.5C 954.253,330.713 953.586,331.38 952.5,331.5C 953.234,330.292 953.567,328.959 953.5,327.5 Z"/></g>
<g><path style="opacity:1" fill="#080806" d="M 974.5,333.5 C 974.567,332.041 974.234,330.708 973.5,329.5C 974.117,329.389 974.617,329.056 975,328.5C 975.78,330.387 975.613,332.054 974.5,333.5 Z"/></g>
<g><path style="opacity:1" fill="#626250" d="M 1044.5,327.5 C 1045.12,327.917 1045.46,328.584 1045.5,329.5C 1045.25,330.713 1044.59,331.38 1043.5,331.5C 1044.23,330.292 1044.57,328.959 1044.5,327.5 Z"/></g>
<g><path style="opacity:1" fill="#0a0a08" d="M 1065.5,333.5 C 1065.57,332.041 1065.23,330.708 1064.5,329.5C 1065.12,329.389 1065.62,329.056 1066,328.5C 1066.78,330.387 1066.61,332.054 1065.5,333.5 Z"/></g>
<g><path style="opacity:1" fill="#0c0c0a" d="M 1173.5,333.5 C 1173.57,332.041 1173.23,330.708 1172.5,329.5C 1173.12,329.389 1173.62,329.056 1174,328.5C 1174.78,330.387 1174.61,332.054 1173.5,333.5 Z"/></g>
<g><path style="opacity:1" fill="#030302" d="M 783.5,329.5 C 783.62,330.586 784.287,331.253 785.5,331.5C 786.713,331.253 787.38,330.586 787.5,329.5C 788.404,330.209 788.737,331.209 788.5,332.5C 786.833,332.5 785.167,332.5 783.5,332.5C 782.373,334.908 782.373,333.908 783.5,329.5 Z"/></g>
<g><path style="opacity:1" fill="#fdfdca" d="M 783.5,329.5 C 784.833,329.5 786.167,329.5 787.5,329.5C 787.38,330.586 786.713,331.253 785.5,331.5C 784.287,331.253 783.62,330.586 783.5,329.5 Z"/></g>
<g><path style="opacity:1" fill="#030302" d="M 907.5,329.5 C 908.404,330.209 908.737,331.209 908.5,332.5C 906.5,332.5 904.5,332.5 902.5,332.5C 902.649,333.552 902.483,334.552 902,335.5C 900.623,331.529 901.623,330.196 905,331.5C 906.376,331.316 907.209,330.649 907.5,329.5 Z"/></g>
<g><path style="opacity:1" fill="#070705" d="M 910.5,331.5 C 910.807,333.446 910.807,335.113 910.5,336.5C 909.212,334.701 909.212,333.035 910.5,331.5 Z"/></g>
<g><path style="opacity:1" fill="#030302" d="M 925.5,335.5 C 926.567,333.121 925.567,332.121 922.5,332.5C 924.518,331.953 926.351,330.953 928,329.5C 928.17,331.845 927.837,334.179 927,336.5C 926.617,335.944 926.117,335.611 925.5,335.5 Z"/></g>
<g><path style="opacity:1" fill="#030302" d="M 944.5,329.5 C 945.404,330.209 945.737,331.209 945.5,332.5C 943.5,332.5 941.5,332.5 939.5,332.5C 939.649,333.552 939.483,334.552 939,335.5C 937.623,331.529 938.623,330.196 942,331.5C 943.376,331.316 944.209,330.649 944.5,329.5 Z"/></g>
<g><path style="opacity:1" fill="#030302" d="M 948.5,328.5 C 948.5,329.5 948.5,330.5 948.5,331.5C 949.833,331.5 951.167,331.5 952.5,331.5C 951.122,332.234 949.622,332.901 948,333.5C 947.22,331.613 947.387,329.946 948.5,328.5 Z"/></g>
<g><path style="opacity:1" fill="#040403" d="M 987.5,329.5 C 988.404,330.209 988.737,331.209 988.5,332.5C 986.5,332.5 984.5,332.5 982.5,332.5C 982.649,333.552 982.483,334.552 982,335.5C 980.623,331.529 981.623,330.196 985,331.5C 986.376,331.316 987.209,330.649 987.5,329.5 Z"/></g>
<g><path style="opacity:1" fill="#040403" d="M 1016.5,335.5 C 1017.57,333.121 1016.57,332.121 1013.5,332.5C 1015.52,331.953 1017.35,330.953 1019,329.5C 1019.17,331.845 1018.84,334.179 1018,336.5C 1017.62,335.944 1017.12,335.611 1016.5,335.5 Z"/></g>
<g><path style="opacity:1" fill="#040403" d="M 1035.5,329.5 C 1036.4,330.209 1036.74,331.209 1036.5,332.5C 1034.5,332.5 1032.5,332.5 1030.5,332.5C 1030.65,333.552 1030.48,334.552 1030,335.5C 1028.62,331.529 1029.62,330.196 1033,331.5C 1034.38,331.316 1035.21,330.649 1035.5,329.5 Z"/></g>
<g><path style="opacity:1" fill="#030303" d="M 1039.5,328.5 C 1039.5,329.5 1039.5,330.5 1039.5,331.5C 1040.83,331.5 1042.17,331.5 1043.5,331.5C 1042.12,332.234 1040.62,332.901 1039,333.5C 1038.22,331.613 1038.39,329.946 1039.5,328.5 Z"/></g>
<g><path style="opacity:1" fill="#050504" d="M 1078.5,329.5 C 1079.4,330.209 1079.74,331.209 1079.5,332.5C 1077.5,332.5 1075.5,332.5 1073.5,332.5C 1073.65,333.552 1073.48,334.552 1073,335.5C 1071.62,331.529 1072.62,330.196 1076,331.5C 1077.38,331.316 1078.21,330.649 1078.5,329.5 Z"/></g>
<g><path style="opacity:1" fill="#050504" d="M 1125.5,335.5 C 1126.57,333.121 1125.57,332.121 1122.5,332.5C 1124.52,331.953 1126.35,330.953 1128,329.5C 1128.17,331.845 1127.84,334.179 1127,336.5C 1126.62,335.944 1126.12,335.611 1125.5,335.5 Z"/></g>
<g><path style="opacity:1" fill="#0c0c09" d="M 1130.5,331.5 C 1130.81,333.446 1130.81,335.113 1130.5,336.5C 1129.21,334.701 1129.21,333.035 1130.5,331.5 Z"/></g>
<g><path style="opacity:1" fill="#0c0c09" d="M 1149.5,331.5 C 1150.91,333.044 1151.25,334.711 1150.5,336.5C 1149.55,334.955 1149.21,333.288 1149.5,331.5 Z"/></g>
<g><path style="opacity:1" fill="#fdfdca" d="M 922.5,332.5 C 925.567,332.121 926.567,333.121 925.5,335.5C 924.5,335.5 923.5,335.5 922.5,335.5C 922.5,334.5 922.5,333.5 922.5,332.5 Z"/></g>
<g><path style="opacity:1" fill="#fcfcca" d="M 1013.5,332.5 C 1016.57,332.121 1017.57,333.121 1016.5,335.5C 1015.5,335.5 1014.5,335.5 1013.5,335.5C 1013.5,334.5 1013.5,333.5 1013.5,332.5 Z"/></g>
<g><path style="opacity:1" fill="#fbfbc9" d="M 1122.5,332.5 C 1125.57,332.121 1126.57,333.121 1125.5,335.5C 1124.5,335.5 1123.5,335.5 1122.5,335.5C 1122.5,334.5 1122.5,333.5 1122.5,332.5 Z"/></g>
<g><path style="opacity:1" fill="#030303" d="M 795.5,329.5 C 796.629,331.628 796.796,333.961 796,336.5C 794.312,335.675 794.145,334.675 795.5,333.5C 794.624,332.749 793.624,332.249 792.5,332C 794.119,331.764 795.119,330.931 795.5,329.5 Z"/></g>
<g><path style="opacity:1" fill="#090907" d="M 1173.5,333.5 C 1173.87,335.993 1173.2,336.66 1171.5,335.5C 1171.83,334.5 1172.5,333.833 1173.5,333.5 Z"/></g>
<g><path style="opacity:1" fill="#020201" d="M 913.5,333.5 C 915.49,334.999 917.823,335.832 920.5,336C 918.19,336.497 915.857,336.663 913.5,336.5C 913.5,335.5 913.5,334.5 913.5,333.5 Z"/></g>
<g><path style="opacity:1" fill="#080806" d="M 974.5,333.5 C 974.657,334.873 974.49,336.207 974,337.5C 973.722,336.584 973.222,335.918 972.5,335.5C 972.833,334.5 973.5,333.833 974.5,333.5 Z"/></g>
<g><path style="opacity:1" fill="#090907" d="M 1065.5,333.5 C 1065.66,334.873 1065.49,336.207 1065,337.5C 1064.72,336.584 1064.22,335.918 1063.5,335.5C 1063.83,334.5 1064.5,333.833 1065.5,333.5 Z"/></g>
<g><path style="opacity:1" fill="#696955" d="M 739.5,336.5 C 740.776,337.386 740.776,338.386 739.5,339.5C 738.913,338.767 738.913,337.767 739.5,336.5 Z"/></g>
<g><path style="opacity:1" fill="#8b8b70" d="M 1134.5,334.5 C 1135.81,337.38 1134.81,338.88 1131.5,339C 1133.14,337.871 1134.14,336.371 1134.5,334.5 Z"/></g>
<g><path style="opacity:1" fill="#040403" d="M 912.5,349.5 C 911.323,347.897 911.489,346.564 913,345.5C 914.534,346.881 914.368,348.214 912.5,349.5 Z"/></g>
<g><path style="opacity:1" fill="#070705" d="M 927.5,347.5 C 927.167,348.5 926.5,349.167 925.5,349.5C 925.131,347.007 925.797,346.34 927.5,347.5 Z"/></g>
<g><path style="opacity:1" fill="#696955" d="M 960.5,344.5 C 961.776,345.386 961.776,346.386 960.5,347.5C 959.913,346.767 959.913,345.767 960.5,344.5 Z"/></g>
<g><path style="opacity:1" fill="#080806" d="M 981.5,346.5 C 983.441,347.638 983.608,349.304 982,351.5C 981.506,349.866 981.34,348.199 981.5,346.5 Z"/></g>
<g><path style="opacity:1" fill="#050504" d="M 990.5,349.5 C 989.323,347.897 989.489,346.564 991,345.5C 992.534,346.881 992.368,348.214 990.5,349.5 Z"/></g>
<g><path style="opacity:1" fill="#61604f" d="M 899.5,347.5 C 898.167,347.833 896.833,348.167 895.5,348.5C 896.538,346.481 897.872,346.147 899.5,347.5 Z"/></g>
<g><path style="opacity:1" fill="#fdfdca" d="M 899.5,347.5 C 900.234,348.708 900.567,350.041 900.5,351.5C 899.5,351.833 898.833,352.5 898.5,353.5C 897.5,353.5 896.5,353.5 895.5,353.5C 895.5,351.833 895.5,350.167 895.5,348.5C 896.833,348.167 898.167,347.833 899.5,347.5 Z"/></g>
<g><path style="opacity:1" fill="#fcfcca" d="M 927.5,347.5 C 928.5,347.5 929.5,347.5 930.5,347.5C 931.113,350.969 929.779,352.969 926.5,353.5C 925.766,352.292 925.433,350.959 925.5,349.5C 926.5,349.167 927.167,348.5 927.5,347.5 Z"/></g>
<g><path style="opacity:1" fill="#fdfdca" d="M 953.5,347.5 C 954.234,348.708 954.567,350.041 954.5,351.5C 953.5,351.833 952.833,352.5 952.5,353.5C 951.5,353.5 950.5,353.5 949.5,353.5C 948.887,350.031 950.221,348.031 953.5,347.5 Z"/></g>
<g><path style="opacity:1" fill="#030303" d="M 885.5,345.5 C 886.404,346.209 886.737,347.209 886.5,348.5C 890.5,348.833 890.5,349.167 886.5,349.5C 886.167,353.5 885.833,353.5 885.5,349.5C 881.5,349.167 881.5,348.833 885.5,348.5C 885.5,347.5 885.5,346.5 885.5,345.5 Z"/></g>
<g><path style="opacity:1" fill="#070705" d="M 900.5,351.5 C 900.567,350.041 900.234,348.708 899.5,347.5C 900.117,347.389 900.617,347.056 901,346.5C 901.78,348.387 901.613,350.054 900.5,351.5 Z"/></g>
<g><path style="opacity:1" fill="#080806" d="M 954.5,351.5 C 954.567,350.041 954.234,348.708 953.5,347.5C 954.117,347.389 954.617,347.056 955,346.5C 955.78,348.387 955.613,350.054 954.5,351.5 Z"/></g>
<g><path style="opacity:1" fill="#030302" d="M 908.5,347.5 C 909.404,348.209 909.737,349.209 909.5,350.5C 907.5,350.5 905.5,350.5 903.5,350.5C 903.649,351.552 903.483,352.552 903,353.5C 901.623,349.529 902.623,348.196 906,349.5C 907.376,349.316 908.209,348.649 908.5,347.5 Z"/></g>
<g><path style="opacity:1" fill="#070705" d="M 912.5,349.5 C 912.807,351.446 912.807,353.113 912.5,354.5C 911.212,352.701 911.212,351.035 912.5,349.5 Z"/></g>
<g><path style="opacity:1" fill="#070705" d="M 925.5,349.5 C 925.433,350.959 925.766,352.292 926.5,353.5C 925.883,353.611 925.383,353.944 925,354.5C 924.22,352.613 924.387,350.946 925.5,349.5 Z"/></g>
<g><path style="opacity:1" fill="#030302" d="M 938.5,347.5 C 939.404,348.209 939.737,349.209 939.5,350.5C 937.5,350.5 935.5,350.5 933.5,350.5C 933.649,351.552 933.483,352.552 933,353.5C 931.623,349.529 932.623,348.196 936,349.5C 937.376,349.316 938.209,348.649 938.5,347.5 Z"/></g>
<g><path style="opacity:1" fill="#030303" d="M 946.5,347.5 C 947.404,348.209 947.737,349.209 947.5,350.5C 945.5,350.5 943.5,350.5 941.5,350.5C 941.649,351.552 941.483,352.552 941,353.5C 939.623,349.529 940.623,348.196 944,349.5C 945.376,349.316 946.209,348.649 946.5,347.5 Z"/></g>
<g><path style="opacity:1" fill="#080806" d="M 990.5,349.5 C 990.807,351.446 990.807,353.113 990.5,354.5C 989.212,352.701 989.212,351.035 990.5,349.5 Z"/></g>
<g><path style="opacity:1" fill="#050504" d="M 954.5,351.5 C 954.869,353.993 954.203,354.66 952.5,353.5C 952.833,352.5 953.5,351.833 954.5,351.5 Z"/></g>
<g><path style="opacity:1" fill="#070705" d="M 900.5,351.5 C 900.657,352.873 900.49,354.207 900,355.5C 899.722,354.584 899.222,353.918 898.5,353.5C 898.833,352.5 899.5,351.833 900.5,351.5 Z"/></g>
<g><path style="opacity:1" fill="#76765f" d="M 962.5,352.5 C 963.867,354.093 963.534,355.426 961.5,356.5C 961.167,356.333 960.833,356.167 960.5,356C 961.823,355.184 962.489,354.017 962.5,352.5 Z"/></g>
<g><path style="opacity:1" fill="#020201" d="M 989.5,363.5 C 987.379,363.325 985.379,363.659 983.5,364.5C 983.97,363.307 984.97,362.64 986.5,362.5C 987.726,362.52 988.726,362.853 989.5,363.5 Z"/></g>
<g><path style="opacity:1" fill="#020202" d="M 1108.5,363.5 C 1106.38,363.325 1104.38,363.659 1102.5,364.5C 1102.97,363.307 1103.97,362.64 1105.5,362.5C 1106.73,362.52 1107.73,362.853 1108.5,363.5 Z"/></g>
<g><path style="opacity:1" fill="#fdfdca" d="M 989.5,363.5 C 989.567,364.959 989.234,366.292 988.5,367.5C 986.833,367.5 985.167,367.5 983.5,367.5C 983.5,366.5 983.5,365.5 983.5,364.5C 985.379,363.659 987.379,363.325 989.5,363.5 Z"/></g>
<g><path style="opacity:1" fill="#fcfcca" d="M 1108.5,363.5 C 1108.57,364.959 1108.23,366.292 1107.5,367.5C 1105.83,367.5 1104.17,367.5 1102.5,367.5C 1102.5,366.5 1102.5,365.5 1102.5,364.5C 1104.38,363.659 1106.38,363.325 1108.5,363.5 Z"/></g>
<g><path style="opacity:1" fill="#040403" d="M 912.5,367.5 C 911.323,365.897 911.489,364.564 913,363.5C 914.534,364.881 914.368,366.214 912.5,367.5 Z"/></g>
<g><path style="opacity:1" fill="#060705" d="M 918.5,368.5 C 917.694,367.003 917.028,365.336 916.5,363.5C 916.833,363.167 917.167,362.833 917.5,362.5C 918.466,364.396 918.799,366.396 918.5,368.5 Z"/></g>
<g><path style="opacity:1" fill="#070706" d="M 951.5,364.5 C 953.441,365.638 953.608,367.304 952,369.5C 951.506,367.866 951.34,366.199 951.5,364.5 Z"/></g>
<g><path style="opacity:1" fill="#080806" d="M 971.5,364.5 C 973.441,365.638 973.608,367.304 972,369.5C 971.506,367.866 971.34,366.199 971.5,364.5 Z"/></g>
<g><path style="opacity:1" fill="#050504" d="M 979.5,367.5 C 978.323,365.897 978.489,364.564 980,363.5C 981.534,364.881 981.368,366.214 979.5,367.5 Z"/></g>
<g><path style="opacity:1" fill="#696955" d="M 1015.5,362.5 C 1016.78,363.386 1016.78,364.386 1015.5,365.5C 1014.91,364.767 1014.91,363.767 1015.5,362.5 Z"/></g>
<g><path style="opacity:1" fill="#080806" d="M 1036.5,368.5 C 1035.69,367.003 1035.03,365.336 1034.5,363.5C 1034.83,363.167 1035.17,362.833 1035.5,362.5C 1036.47,364.396 1036.8,366.396 1036.5,368.5 Z"/></g>
<g><path style="opacity:1" fill="#0a0a08" d="M 1069.5,364.5 C 1071.44,365.638 1071.61,367.304 1070,369.5C 1069.51,367.866 1069.34,366.199 1069.5,364.5 Z"/></g>
<g><path style="opacity:1" fill="#0b0b08" d="M 1089.5,364.5 C 1091.44,365.638 1091.61,367.304 1090,369.5C 1089.51,367.866 1089.34,366.199 1089.5,364.5 Z"/></g>
<g><path style="opacity:1" fill="#070705" d="M 1097.5,367.5 C 1096.32,365.897 1096.49,364.564 1098,363.5C 1099.53,364.881 1099.37,366.214 1097.5,367.5 Z"/></g>
<g><path style="opacity:1" fill="#61604f" d="M 899.5,365.5 C 898.167,365.833 896.833,366.167 895.5,366.5C 896.538,364.481 897.872,364.147 899.5,365.5 Z"/></g>
<g><path style="opacity:1" fill="#fdfdca" d="M 899.5,365.5 C 900.234,366.708 900.567,368.041 900.5,369.5C 899.5,369.833 898.833,370.5 898.5,371.5C 897.5,371.5 896.5,371.5 895.5,371.5C 895.5,369.833 895.5,368.167 895.5,366.5C 896.833,366.167 898.167,365.833 899.5,365.5 Z"/></g>
<g><path style="opacity:1" fill="#060605" d="M 923.5,362.5 C 924.239,362.369 924.906,362.536 925.5,363C 924.736,365.069 924.236,367.236 924,369.5C 922.952,367.079 922.786,364.746 923.5,362.5 Z"/></g>
<g><path style="opacity:1" fill="#080806" d="M 955.5,365.5 C 956.239,365.369 956.906,365.536 957.5,366C 956.118,370.705 955.451,370.539 955.5,365.5 Z"/></g>
<g><path style="opacity:1" fill="#080806" d="M 1041.5,362.5 C 1042.24,362.369 1042.91,362.536 1043.5,363C 1042.74,365.069 1042.24,367.236 1042,369.5C 1040.95,367.079 1040.79,364.746 1041.5,362.5 Z"/></g>
<g><path style="opacity:1" fill="#0a0a08" d="M 1073.5,365.5 C 1074.24,365.369 1074.91,365.536 1075.5,366C 1074.12,370.705 1073.45,370.539 1073.5,365.5 Z"/></g>
<g><path style="opacity:1" fill="#030303" d="M 885.5,363.5 C 886.404,364.209 886.737,365.209 886.5,366.5C 890.5,366.833 890.5,367.167 886.5,367.5C 886.167,371.5 885.833,371.5 885.5,367.5C 881.5,367.167 881.5,366.833 885.5,366.5C 885.5,365.5 885.5,364.5 885.5,363.5 Z"/></g>
<g><path style="opacity:1" fill="#070705" d="M 900.5,369.5 C 900.567,368.041 900.234,366.708 899.5,365.5C 900.117,365.389 900.617,365.056 901,364.5C 901.78,366.387 901.613,368.054 900.5,369.5 Z"/></g>
<g><path style="opacity:1" fill="#050504" d="M 989.5,363.5 C 990.124,363.917 990.457,364.584 990.5,365.5C 990.253,366.713 989.586,367.38 988.5,367.5C 989.234,366.292 989.567,364.959 989.5,363.5 Z"/></g>
<g><path style="opacity:1" fill="#070706" d="M 1108.5,363.5 C 1109.12,363.917 1109.46,364.584 1109.5,365.5C 1109.25,366.713 1108.59,367.38 1107.5,367.5C 1108.23,366.292 1108.57,364.959 1108.5,363.5 Z"/></g>
<g><path style="opacity:1" fill="#030302" d="M 908.5,365.5 C 909.404,366.209 909.737,367.209 909.5,368.5C 907.5,368.5 905.5,368.5 903.5,368.5C 903.649,369.552 903.483,370.552 903,371.5C 901.623,367.529 902.623,366.196 906,367.5C 907.376,367.316 908.209,366.649 908.5,365.5 Z"/></g>
<g><path style="opacity:1" fill="#070705" d="M 912.5,367.5 C 912.807,369.446 912.807,371.113 912.5,372.5C 911.212,370.701 911.212,369.035 912.5,367.5 Z"/></g>
<g><path style="opacity:1" fill="#060705" d="M 935.5,367.5 C 936.914,369.044 937.247,370.711 936.5,372.5C 935.548,370.955 935.215,369.288 935.5,367.5 Z"/></g>
<g><path style="opacity:1" fill="#030303" d="M 947.5,365.5 C 948.404,366.209 948.737,367.209 948.5,368.5C 946.5,368.5 944.5,368.5 942.5,368.5C 942.649,369.552 942.483,370.552 942,371.5C 940.623,367.529 941.623,366.196 945,367.5C 946.376,367.316 947.209,366.649 947.5,365.5 Z"/></g>
<g><path style="opacity:1" fill="#040403" d="M 967.5,365.5 C 968.404,366.209 968.737,367.209 968.5,368.5C 966.5,368.5 964.5,368.5 962.5,368.5C 962.649,369.552 962.483,370.552 962,371.5C 960.623,367.529 961.623,366.196 965,367.5C 966.376,367.316 967.209,366.649 967.5,365.5 Z"/></g>
<g><path style="opacity:1" fill="#080806" d="M 979.5,367.5 C 979.807,369.446 979.807,371.113 979.5,372.5C 978.212,370.701 978.212,369.035 979.5,367.5 Z"/></g>
<g><path style="opacity:1" fill="#040403" d="M 983.5,364.5 C 983.5,365.5 983.5,366.5 983.5,367.5C 985.167,367.5 986.833,367.5 988.5,367.5C 988.217,368.289 987.717,368.956 987,369.5C 985.667,368.167 984.333,368.167 983,369.5C 982.22,367.613 982.387,365.946 983.5,364.5 Z"/></g>
<g><path style="opacity:1" fill="#040403" d="M 1010.5,365.5 C 1011.4,366.209 1011.74,367.209 1011.5,368.5C 1009.5,368.5 1007.5,368.5 1005.5,368.5C 1005.65,369.552 1005.48,370.552 1005,371.5C 1003.62,367.529 1004.62,366.196 1008,367.5C 1009.38,367.316 1010.21,366.649 1010.5,365.5 Z"/></g>
<g><path style="opacity:1" fill="#090906" d="M 1053.5,367.5 C 1054.91,369.044 1055.25,370.711 1054.5,372.5C 1053.55,370.955 1053.21,369.288 1053.5,367.5 Z"/></g>
<g><path style="opacity:1" fill="#050503" d="M 1065.5,365.5 C 1066.4,366.209 1066.74,367.209 1066.5,368.5C 1064.5,368.5 1062.5,368.5 1060.5,368.5C 1060.65,369.552 1060.48,370.552 1060,371.5C 1058.62,367.529 1059.62,366.196 1063,367.5C 1064.38,367.316 1065.21,366.649 1065.5,365.5 Z"/></g>
<g><path style="opacity:1" fill="#050504" d="M 1085.5,365.5 C 1086.4,366.209 1086.74,367.209 1086.5,368.5C 1084.5,368.5 1082.5,368.5 1080.5,368.5C 1080.65,369.552 1080.48,370.552 1080,371.5C 1078.62,367.529 1079.62,366.196 1083,367.5C 1084.38,367.316 1085.21,366.649 1085.5,365.5 Z"/></g>
<g><path style="opacity:1" fill="#0b0b08" d="M 1097.5,367.5 C 1097.81,369.446 1097.81,371.113 1097.5,372.5C 1096.21,370.701 1096.21,369.035 1097.5,367.5 Z"/></g>
<g><path style="opacity:1" fill="#050504" d="M 1102.5,364.5 C 1102.5,365.5 1102.5,366.5 1102.5,367.5C 1104.17,367.5 1105.83,367.5 1107.5,367.5C 1107.22,368.289 1106.72,368.956 1106,369.5C 1104.67,368.167 1103.33,368.167 1102,369.5C 1101.22,367.613 1101.39,365.946 1102.5,364.5 Z"/></g>
<g><path style="opacity:1" fill="#060604" d="M 1128.5,365.5 C 1129.4,366.209 1129.74,367.209 1129.5,368.5C 1127.5,368.5 1125.5,368.5 1123.5,368.5C 1123.65,369.552 1123.48,370.552 1123,371.5C 1121.62,367.529 1122.62,366.196 1126,367.5C 1127.38,367.316 1128.21,366.649 1128.5,365.5 Z"/></g>
<g><path style="opacity:1" fill="#060605" d="M 918.5,368.5 C 920.852,369.543 921.019,370.876 919,372.5C 918.51,371.207 918.343,369.873 918.5,368.5 Z"/></g>
<g><path style="opacity:1" fill="#080806" d="M 1036.5,368.5 C 1038.85,369.543 1039.02,370.876 1037,372.5C 1036.51,371.207 1036.34,369.873 1036.5,368.5 Z"/></g>
<g><path style="opacity:1" fill="#050604" d="M 997.5,369.5 C 998.573,370.251 998.74,371.251 998,372.5C 996.272,371.648 996.105,370.648 997.5,369.5 Z"/></g>
<g><path style="opacity:1" fill="#070706" d="M 1115.5,369.5 C 1116.57,370.251 1116.74,371.251 1116,372.5C 1114.27,371.648 1114.1,370.648 1115.5,369.5 Z"/></g>
<g><path style="opacity:1" fill="#070705" d="M 900.5,369.5 C 900.657,370.873 900.49,372.207 900,373.5C 899.722,372.584 899.222,371.918 898.5,371.5C 898.833,370.5 899.5,369.833 900.5,369.5 Z"/></g>
<g><path style="opacity:1" fill="#8c8c71" d="M 1018.5,370.5 C 1019.81,373.38 1018.81,374.88 1015.5,375C 1017.14,373.871 1018.14,372.371 1018.5,370.5 Z"/></g>
</svg>
